<svg width="48" height="48" viewBox="0 0 48 48" fill="none" xmlns="http://www.w3.org/2000/svg">
<rect width="3" height="3" rx="0.25" fill="#12bd95"/>
<rect x="5" width="3" height="3" rx="0.25" fill="#12bd95"/>
<rect x="10" width="3" height="3" rx="0.25" fill="#12bd95"/>
<rect x="15" width="3" height="3" rx="0.25" fill="#12bd95"/>
<rect x="20" width="3" height="3" rx="0.25" fill="#12bd95"/>
<rect x="25" width="3" height="3" rx="0.25" fill="#12bd95"/>
<rect x="30" width="3" height="3" rx="0.25" fill="#12bd95"/>
<rect x="35" width="3" height="3" rx="0.25" fill="#12bd95"/>
<rect x="40" width="3" height="3" rx="0.25" fill="#12bd95"/>
<rect x="45" width="3" height="3" rx="0.25" fill="#12bd95"/>
<rect y="5" width="3" height="3" rx="0.25" fill="#12bd95"/>
<rect x="5" y="5" width="3" height="3" rx="0.25" fill="#12bd95"/>
<rect x="10" y="5" width="3" height="3" rx="0.25" fill="#12bd95"/>
<rect x="15" y="5" width="3" height="3" rx="0.25" fill="#12bd95"/>
<rect x="20" y="5" width="3" height="3" rx="0.25" fill="#12bd95"/>
<rect x="25" y="5" width="3" height="3" rx="0.25" fill="#12bd95"/>
<rect x="30" y="5" width="3" height="3" rx="0.25" fill="#12bd95"/>
<rect x="35" y="5" width="3" height="3" rx="0.25" fill="#12bd95"/>
<rect x="40" y="5" width="3" height="3" rx="0.25" fill="#12bd95"/>
<rect x="45" y="5" width="3" height="3" rx="0.25" fill="#12bd95"/>
<rect y="10" width="3" height="3" rx="0.25" fill="#12bd95"/>
<rect x="5" y="10" width="3" height="3" rx="0.25" fill="#12bd95"/>
<rect x="10" y="10" width="3" height="3" rx="0.25" fill="#12bd95"/>
<rect x="15" y="10" width="3" height="3" rx="0.25" fill="#12bd95"/>
<rect x="20" y="10" width="3" height="3" rx="0.25" fill="#12bd95"/>
<rect x="25" y="10" width="3" height="3" rx="0.25" fill="#12bd95"/>
<rect x="30" y="10" width="3" height="3" rx="0.25" fill="#12bd95"/>
<rect x="35" y="10" width="3" height="3" rx="0.25" fill="#12bd95"/>
<rect x="40" y="10" width="3" height="3" rx="0.25" fill="#12bd95"/>
<rect x="45" y="10" width="3" height="3" rx="0.25" fill="#12bd95"/>
<rect y="15" width="3" height="3" rx="0.25" fill="#12bd95"/>
<rect x="5" y="15" width="3" height="3" rx="0.25" fill="#12bd95"/>
<rect x="10" y="15" width="3" height="3" rx="0.25" fill="#12bd95"/>
<rect x="15" y="15" width="3" height="3" rx="0.25" fill="#12bd95"/>
<rect x="20" y="15" width="3" height="3" rx="0.25" fill="#12bd95"/>
<rect x="25" y="15" width="3" height="3" rx="0.25" fill="#12bd95"/>
<rect x="30" y="15" width="3" height="3" rx="0.25" fill="#12bd95"/>
<rect x="35" y="15" width="3" height="3" rx="0.25" fill="#12bd95"/>
<rect x="40" y="15" width="3" height="3" rx="0.25" fill="#12bd95"/>
<rect x="45" y="15" width="3" height="3" rx="0.25" fill="#12bd95"/>
<rect y="20" width="3" height="3" rx="0.25" fill="#12bd95"/>
<rect x="5" y="20" width="3" height="3" rx="0.25" fill="#12bd95"/>
<rect x="10" y="20" width="3" height="3" rx="0.25" fill="#12bd95"/>
<rect x="15" y="20" width="3" height="3" rx="0.25" fill="#12bd95"/>
<rect x="20" y="20" width="3" height="3" rx="0.25" fill="#12bd95"/>
<rect x="25" y="20" width="3" height="3" rx="0.25" fill="#12bd95"/>
<rect x="30" y="20" width="3" height="3" rx="0.25" fill="#12bd95"/>
<rect x="35" y="20" width="3" height="3" rx="0.25" fill="#12bd95"/>
<rect x="40" y="20" width="3" height="3" rx="0.25" fill="#12bd95"/>
<rect x="45" y="20" width="3" height="3" rx="0.25" fill="#12bd95"/>
<rect y="25" width="3" height="3" rx="0.25" fill="#12bd95"/>
<rect x="5" y="25" width="3" height="3" rx="0.25" fill="#12bd95"/>
<rect x="10" y="25" width="3" height="3" rx="0.25" fill="#12bd95"/>
<rect x="15" y="25" width="3" height="3" rx="0.25" fill="#12bd95"/>
<rect x="20" y="25" width="3" height="3" rx="0.25" fill="#12bd95"/>
<rect x="25" y="25" width="3" height="3" rx="0.25" fill="#12bd95"/>
<rect x="30" y="25" width="3" height="3" rx="0.25" fill="#12bd95"/>
<rect x="35" y="25" width="3" height="3" rx="0.25" fill="#12bd95"/>
<rect x="40" y="25" width="3" height="3" rx="0.25" fill="#12bd95"/>
<rect x="45" y="25" width="3" height="3" rx="0.25" fill="#12bd95"/>
<rect y="30" width="3" height="3" rx="0.25" fill="#12bd95"/>
<rect x="5" y="30" width="3" height="3" rx="0.25" fill="#12bd95"/>
<rect x="10" y="30" width="3" height="3" rx="0.25" fill="#12bd95"/>
<rect x="15" y="30" width="3" height="3" rx="0.25" fill="#12bd95"/>
<rect x="20" y="30" width="3" height="3" rx="0.25" fill="#12bd95"/>
<rect x="25" y="30" width="3" height="3" rx="0.25" fill="#12bd95"/>
<rect x="30" y="30" width="3" height="3" rx="0.25" fill="#12bd95"/>
<rect x="35" y="30" width="3" height="3" rx="0.25" fill="#12bd95"/>
<rect x="40" y="30" width="3" height="3" rx="0.25" fill="#12bd95"/>
<rect x="45" y="30" width="3" height="3" rx="0.25" fill="#12bd95"/>
<rect y="35" width="3" height="3" rx="0.25" fill="#12bd95"/>
<rect x="5" y="35" width="3" height="3" rx="0.25" fill="#12bd95"/>
<rect x="10" y="35" width="3" height="3" rx="0.25" fill="#12bd95"/>
<rect x="15" y="35" width="3" height="3" rx="0.25" fill="#12bd95"/>
<rect x="20" y="35" width="3" height="3" rx="0.25" fill="#12bd95"/>
<rect x="25" y="35" width="3" height="3" rx="0.25" fill="#12bd95"/>
<rect x="30" y="35" width="3" height="3" rx="0.25" fill="#12bd95"/>
<rect x="35" y="35" width="3" height="3" rx="0.25" fill="#12bd95"/>
<rect x="40" y="35" width="3" height="3" rx="0.25" fill="#12bd95"/>
<rect x="45" y="35" width="3" height="3" rx="0.25" fill="#12bd95"/>
<rect y="40" width="3" height="3" rx="0.25" fill="#12bd95"/>
<rect x="5" y="40" width="3" height="3" rx="0.25" fill="#12bd95"/>
<rect x="10" y="40" width="3" height="3" rx="0.25" fill="#12bd95"/>
<rect x="15" y="40" width="3" height="3" rx="0.25" fill="#12bd95"/>
<rect x="20" y="40" width="3" height="3" rx="0.25" fill="#12bd95"/>
<rect x="25" y="40" width="3" height="3" rx="0.25" fill="#12bd95"/>
<rect x="30" y="40" width="3" height="3" rx="0.25" fill="#12bd95"/>
<rect x="35" y="40" width="3" height="3" rx="0.25" fill="#12bd95"/>
<rect x="40" y="40" width="3" height="3" rx="0.25" fill="#12bd95"/>
<rect x="45" y="40" width="3" height="3" rx="0.25" fill="#12bd95"/>
<rect y="45" width="3" height="3" rx="0.25" fill="#12bd95"/>
<rect x="5" y="45" width="3" height="3" rx="0.25" fill="#12bd95"/>
<rect x="10" y="45" width="3" height="3" rx="0.25" fill="#12bd95"/>
<rect x="15" y="45" width="3" height="3" rx="0.25" fill="#12bd95"/>
<rect x="20" y="45" width="3" height="3" rx="0.25" fill="#12bd95"/>
<rect x="25" y="45" width="3" height="3" rx="0.25" fill="#12bd95"/>
<rect x="30" y="45" width="3" height="3" rx="0.25" fill="#12bd95"/>
<rect x="35" y="45" width="3" height="3" rx="0.25" fill="#12bd95"/>
<rect x="40" y="45" width="3" height="3" rx="0.25" fill="#12bd95"/>
<rect x="45" y="45" width="3" height="3" rx="0.25" fill="#12bd95"/>
</svg>
