<svg width="32" height="41" viewBox="0 0 32 41" fill="none" xmlns="http://www.w3.org/2000/svg">
<path fill-rule="evenodd" clip-rule="evenodd" d="M13.1822 31.9377V40.9351H30.9441L25.1632 21.7105C24.8896 20.8005 25.0016 19.8181 25.4731 18.993L26.0677 17.9525C26.3244 17.5032 26.4002 16.9765 26.2664 16.4766C25.5229 13.6993 22.7814 4.24573 19.1028 0.935059C19.9692 6.71123 19.1028 11.1878 18.3808 13.787C14.5573 13.787 10.536 16.1598 9.26191 16.9787C8.99445 17.1507 8.82448 17.4311 8.77951 17.7459L8.48642 19.7975C8.44322 20.0999 8.24617 20.3563 7.96427 20.474C6.64983 21.023 2.80495 22.6321 0.907618 23.4621C0.563314 31.0373 8.52052 31.0408 11.8004 30.7233C12.523 30.6533 13.1822 31.2118 13.1822 31.9377ZM15.3482 0.935059C15.3482 4.54517 15.7814 10.1769 16.5034 12.6318C15.0435 12.725 13.5649 13.1246 12.2062 13.6841C11.8277 10.6357 13.6153 2.52351 15.3482 0.935059ZM12.3017 20.3557C12.4076 19.7292 12.5128 19.1072 13.0014 18.9021C13.4822 18.7002 14.5507 18.4253 15.491 18.1833C15.7559 18.1152 16.0107 18.0496 16.2393 17.9891C16.4637 17.9296 16.6628 18.1882 16.5493 18.3907C16.5305 18.4243 16.5115 18.4581 16.4925 18.4921C16.0736 19.2405 15.5955 20.0947 15.1225 20.2786C14.587 20.4868 13.3319 20.9312 12.5091 21.1144C12.3291 21.1545 12.1821 20.9802 12.2204 20.7998C12.251 20.6552 12.2763 20.5053 12.3017 20.3557Z" fill="#1CAAA2"/>
</svg>