<?xml version="1.0" encoding="UTF-8"?>
<svg width="31" height="41" fill="none" version="1.1" viewBox="0 0 31 41" xmlns="http://www.w3.org/2000/svg" xmlns:cc="http://creativecommons.org/ns#" xmlns:dc="http://purl.org/dc/elements/1.1/" xmlns:rdf="http://www.w3.org/1999/02/22-rdf-syntax-ns#">
 <metadata>
  <rdf:RDF>
   <cc:Work rdf:about="">
    <dc:format>image/svg+xml</dc:format>
    <dc:type rdf:resource="http://purl.org/dc/dcmitype/StillImage"/>
    <dc:title/>
   </cc:Work>
  </rdf:RDF>
 </metadata>
 <path d="m13 40.94v-8.997c0-0.7259-0.6592-1.284-1.382-1.214-3.28 0.3174-11.24 0.314-10.89-7.261 1.897-0.83 5.742-2.439 7.057-2.988 0.2819-0.1177 0.479-0.3741 0.5222-0.6765l0.2931-2.052c0.04497-0.3148 0.2149-0.5953 0.4824-0.7672 1.274-0.8189 5.295-3.192 9.119-3.192 0.7221-2.599 1.588-7.076 0.7221-12.85 3.678 3.311 6.42 12.76 7.164 15.54 0.1339 0.4998 0.0581 1.027-0.1987 1.476l-0.5946 1.04c-0.4714 0.8251-0.5834 1.808-0.3098 2.718l5.781 19.22zm3.366-27.98c-0.722-2.455-1.2-8.408-1.2-12.02-1.733 1.588-3.338 11.02-3.049 13.33 1.532-0.567 2.576-1.027 4.249-1.309z" clip-rule="evenodd" fill="#1caaa2" fill-rule="evenodd"/>
</svg>
