<svg width="53" height="58" viewBox="0 0 53 58" fill="none" xmlns="http://www.w3.org/2000/svg">
<path d="M19.7791 45.9026L19.3389 45.0047L19.7791 45.9026ZM25.8238 42.9395L26.8091 42.769L26.5816 41.4544L25.3836 42.0416L25.8238 42.9395ZM13.0848 43.8929L13.9467 43.3859L13.9467 43.3859L13.0848 43.8929ZM14.871 36.8777L15.3855 37.7352L15.3855 37.7352L14.871 36.8777ZM19.2903 34.2261L19.8048 35.0836L21.3789 34.1391L19.7318 33.3288L19.2903 34.2261ZM13.1391 33.0304L13.0684 32.0329L13.0683 32.0329L13.1391 33.0304ZM5.72752 36.3083L4.85338 36.794L5.4811 37.9238L6.41712 37.0325L5.72752 36.3083ZM5.72709 36.3075L6.60123 35.8218L5.97358 34.6921L5.03757 35.5832L5.72709 36.3075ZM20.2192 46.8005L26.2639 43.8375L25.3836 42.0416L19.3389 45.0047L20.2192 46.8005ZM12.2228 44.3999C13.8508 47.1676 17.3361 48.2139 20.2192 46.8005L19.3389 45.0047C17.3947 45.9577 15.0445 45.2522 13.9467 43.3859L12.2228 44.3999ZM14.3565 36.0202C11.466 37.7545 10.5137 41.4945 12.2228 44.3999L13.9467 43.3859C12.7942 41.4267 13.4364 38.9047 15.3855 37.7352L14.3565 36.0202ZM18.7758 33.3686L14.3565 36.0202L15.3855 37.7352L19.8048 35.0836L18.7758 33.3686ZM14 34C15.7423 34 17.3873 34.4043 18.8489 35.1234L19.7318 33.3288C18.0016 32.4776 16.0551 32 14 32V34ZM13.2098 34.0279C13.4706 34.0094 13.7341 34 14 34V32C13.6869 32 13.3762 32.0111 13.0684 32.0329L13.2098 34.0279ZM6.41712 37.0325C8.21327 35.3221 10.5843 34.2143 13.2099 34.0279L13.0683 32.0329C9.96249 32.2534 7.15827 33.5651 5.03793 35.5841L6.41712 37.0325ZM4.85294 36.7932L4.85338 36.794L6.60167 35.8226L6.60123 35.8218L4.85294 36.7932ZM3 45C3 41.8645 4.31059 39.0368 6.41661 37.0318L5.03757 35.5832C2.55152 37.95 1 41.2946 1 45H3ZM14 56C7.92487 56 3 51.0751 3 45H1C1 52.1797 6.8203 58 14 58V56ZM25 45C25 51.0751 20.0751 56 14 56V58C21.1797 58 27 52.1797 27 45H25ZM24.8384 43.11C24.9446 43.7234 25 44.3548 25 45H27C27 44.24 26.9347 43.4945 26.8091 42.769L24.8384 43.11Z" fill="white"/>
<path d="M37.217 37.3546L36.7769 36.4567L37.217 37.3546ZM19.7791 45.9026L19.3389 45.0047L19.3389 45.0047L19.7791 45.9026ZM43.0622 31.8249L42.1901 31.3357L43.0622 31.8249ZM51.1004 17.4961L51.9725 17.9853L51.1004 17.4961ZM50.5901 12.8689L51.3346 12.2013V12.2013L50.5901 12.8689ZM41.2729 2.47671L40.5284 3.14425L40.5284 3.14425L41.2729 2.47671ZM36.9907 1.3654L36.6647 0.420023L36.6647 0.420023L36.9907 1.3654ZM14.5961 9.08769L14.9221 10.0331H14.9221L14.5961 9.08769ZM8.071 14.0865L8.89892 14.6474L8.071 14.0865ZM2.06961 22.9457L1.24169 22.3849H1.24169L2.06961 22.9457ZM1.79217 29.2247L2.66633 28.739L1.79217 29.2247ZM5.72752 36.3083L4.85337 36.7939C5.00367 37.0645 5.27077 37.2502 5.57672 37.2969C5.88267 37.3435 6.19299 37.2459 6.41712 37.0325L5.72752 36.3083ZM15.4012 33.0807L15.2858 34.074C15.5536 34.1051 15.8226 34.0268 16.0318 33.8568L15.4012 33.0807ZM15.5006 32.9999L16.1312 33.776C16.495 33.4805 16.6047 32.9719 16.3951 32.5527L15.5006 32.9999ZM15.3925 25.4585L14.6643 24.7732V24.7732L15.3925 25.4585ZM17.3241 23.4062L18.0523 24.0916V24.0916L17.3241 23.4062ZM24.6391 23.4416L25.374 22.7633L25.374 22.7633L24.6391 23.4416ZM24.8656 23.687L24.1308 24.3653L24.1308 24.3653L24.8656 23.687ZM25.2546 28.6189L26.0867 29.1736V29.1736L25.2546 28.6189ZM23.9588 30.5627L24.7908 31.1174L23.9588 30.5627ZM21.5195 32.8886L22.034 33.7461L21.5195 32.8886ZM14.871 36.8777L15.3855 37.7352L14.871 36.8777ZM13.0848 43.8929L13.9467 43.3859L13.0848 43.8929ZM36.7769 36.4567L19.3389 45.0047L20.2192 46.8005L37.6572 38.2525L36.7769 36.4567ZM42.1901 31.3357C40.9467 33.5521 39.0588 35.3381 36.7769 36.4567L37.6572 38.2525C40.3033 36.9554 42.4926 34.8843 43.9344 32.3142L42.1901 31.3357ZM50.2282 17.0068L42.1901 31.3357L43.9344 32.3142L51.9725 17.9853L50.2282 17.0068ZM49.8455 13.5364C50.7024 14.4922 50.8563 15.8873 50.2282 17.0068L51.9725 17.9853C53.0192 16.1194 52.7628 13.7943 51.3346 12.2013L49.8455 13.5364ZM40.5284 3.14425L49.8455 13.5364L51.3346 12.2013L42.0175 1.80916L40.5284 3.14425ZM37.3167 2.31077C38.4575 1.9174 39.7229 2.2458 40.5284 3.14425L42.0175 1.80916C40.675 0.311736 38.566 -0.235585 36.6647 0.420023L37.3167 2.31077ZM14.9221 10.0331L37.3167 2.31077L36.6647 0.420023L14.2701 8.14231L14.9221 10.0331ZM8.89892 14.6474C10.3547 12.4983 12.4681 10.8792 14.9221 10.0331L14.2701 8.14231C11.4072 9.12953 8.94153 11.0184 7.24308 13.5257L8.89892 14.6474ZM2.89753 23.5066L8.89892 14.6474L7.24308 13.5257L1.24169 22.3849L2.89753 23.5066ZM2.66633 28.739C1.75065 27.0908 1.84004 25.0676 2.89753 23.5066L1.24169 22.3849C-0.238786 24.5703 -0.36394 27.4028 0.918016 29.7103L2.66633 28.739ZM6.60168 35.8227L2.66633 28.739L0.918016 29.7103L4.85337 36.7939L6.60168 35.8227ZM6.41712 37.0325C8.39148 35.1524 11.0608 33.9999 14.0014 33.9999V31.9999C10.5271 31.9999 7.36927 33.3641 5.03793 35.5841L6.41712 37.0325ZM14.0014 33.9999C14.4362 33.9999 14.8648 34.0251 15.2858 34.074L15.5166 32.0874C15.0192 32.0296 14.5135 31.9999 14.0014 31.9999V33.9999ZM14.87 32.2238L14.7706 32.3046L16.0318 33.8568L16.1312 33.776L14.87 32.2238ZM13.667 31.5686L14.6062 33.4471L16.3951 32.5527L15.4558 30.6742L13.667 31.5686ZM14.6643 24.7732C12.9401 26.6052 12.5418 29.3184 13.667 31.5686L15.4558 30.6742C14.7057 29.174 14.9712 27.3652 16.1207 26.1439L14.6643 24.7732ZM16.5959 22.7208L14.6643 24.7732L16.1207 26.1439L18.0523 24.0916L16.5959 22.7208ZM25.374 22.7633C23.0138 20.2065 18.9807 20.187 16.5959 22.7208L18.0523 24.0916C19.6422 22.4023 22.3309 22.4154 23.9043 24.1199L25.374 22.7633ZM25.6005 23.0087L25.374 22.7633L23.9043 24.1199L24.1308 24.3653L25.6005 23.0087ZM26.0867 29.1736C27.3672 27.2528 27.1663 24.705 25.6004 23.0087L24.1308 24.3653C25.0703 25.3831 25.1909 26.9117 24.4226 28.0642L26.0867 29.1736ZM24.7908 31.1174L26.0867 29.1736L24.4226 28.0642L23.1267 30.008L24.7908 31.1174ZM22.034 33.7461C23.1362 33.0847 24.0778 32.1869 24.7908 31.1174L23.1267 30.008C22.578 30.8311 21.8533 31.5221 21.005 32.0311L22.034 33.7461ZM15.3855 37.7352L22.034 33.7461L21.005 32.0311L14.3565 36.0202L15.3855 37.7352ZM13.9467 43.3859C12.7942 41.4267 13.4364 38.9047 15.3855 37.7352L14.3565 36.0202C11.466 37.7545 10.5137 41.4945 12.2228 44.3999L13.9467 43.3859ZM19.3389 45.0047C17.3947 45.9577 15.0445 45.2522 13.9467 43.3859L12.2228 44.3999C13.8508 47.1676 17.3361 48.2139 20.2192 46.8005L19.3389 45.0047Z" fill="white"/>
</svg>
