<?xml version="1.0" encoding="UTF-8" standalone="no"?><!DOCTYPE svg PUBLIC "-//W3C//DTD SVG 1.1//EN" "http://www.w3.org/Graphics/SVG/1.1/DTD/svg11.dtd"><svg width="100%" height="100%" viewBox="0 0 48 48" version="1.1" xmlns="http://www.w3.org/2000/svg" xmlns:xlink="http://www.w3.org/1999/xlink" xml:space="preserve" xmlns:serif="http://www.serif.com/" style="fill-rule:evenodd;clip-rule:evenodd;stroke-linecap:round;stroke-linejoin:round;stroke-miterlimit:1.5;"><rect id="Artboard1" x="0" y="0" width="48" height="48" style="fill:none;"/><path d="M34.257,7.66c-0,-0.751 -0.299,-1.472 -0.83,-2.003c-0.531,-0.532 -1.252,-0.83 -2.004,-0.83l-13.566,-0c-0.751,-0 -1.472,0.298 -2.003,0.83c-0.532,0.531 -0.83,1.252 -0.83,2.003l-0,34.115c-0,0.751 0.298,1.472 0.83,2.003c0.531,0.532 1.252,0.83 2.003,0.83l13.566,0c0.752,0 1.473,-0.298 2.004,-0.83c0.531,-0.531 0.83,-1.252 0.83,-2.003l-0,-34.115Z" style="fill:#333;"/><path d="M33.583,7.828c0,-0.616 -0.244,-1.206 -0.68,-1.641c-0.435,-0.436 -1.025,-0.68 -1.641,-0.68c-3.428,-0 -9.809,-0 -13.238,-0c-0.615,-0 -1.206,0.244 -1.641,0.68c-0.435,0.435 -0.68,1.025 -0.68,1.641c0,6.864 0,27.014 0,33.878c0,0.615 0.245,1.206 0.68,1.641c0.435,0.435 1.026,0.68 1.641,0.68c3.429,-0 9.81,-0 13.238,-0c0.616,-0 1.206,-0.245 1.641,-0.68c0.436,-0.435 0.68,-1.026 0.68,-1.641c0,-6.864 0,-27.014 0,-33.878Z" style="fill:#0d0d0d;"/><clipPath id="_clip1"><path d="M33.583,7.828c0,-0.616 -0.244,-1.206 -0.68,-1.641c-0.435,-0.436 -1.025,-0.68 -1.641,-0.68c-3.428,-0 -9.809,-0 -13.238,-0c-0.615,-0 -1.206,0.244 -1.641,0.68c-0.435,0.435 -0.68,1.025 -0.68,1.641c0,6.864 0,27.014 0,33.878c0,0.615 0.245,1.206 0.68,1.641c0.435,0.435 1.026,0.68 1.641,0.68c3.429,-0 9.81,-0 13.238,-0c0.616,-0 1.206,-0.245 1.641,-0.68c0.436,-0.435 0.68,-1.026 0.68,-1.641c0,-6.864 0,-27.014 0,-33.878Z"/></clipPath><g clip-path="url(#_clip1)"><path d="M15.179,27.315c0,-0 0.99,1.245 1.767,1.045c1.48,-0.382 1.398,-3.77 2.608,-4.028c1.004,-0.213 1.223,2.282 2.323,2.157c1.422,-0.161 1.851,-3.97 3.073,-3.929c0.841,0.029 0.701,1.187 1.325,1.335c0.555,0.131 1.003,-0.695 1.779,-0.366c0.633,0.268 0.311,2.57 1.431,2.523c1.121,-0.048 0.571,-5.232 1.995,-5.465c1.424,-0.234 1.053,2.449 3.137,2.252l1.651,24.151l-24.493,-0l3.404,-19.675Z" style="fill:#214b4b;"/><clipPath id="_clip2"><path d="M15.179,27.315c0,-0 0.99,1.245 1.767,1.045c1.48,-0.382 1.398,-3.77 2.608,-4.028c1.004,-0.213 1.223,2.282 2.323,2.157c1.422,-0.161 1.851,-3.97 3.073,-3.929c0.841,0.029 0.701,1.187 1.325,1.335c0.555,0.131 1.003,-0.695 1.779,-0.366c0.633,0.268 0.311,2.57 1.431,2.523c1.121,-0.048 0.571,-5.232 1.995,-5.465c1.424,-0.234 1.053,2.449 3.137,2.252l1.651,24.151l-24.493,-0l3.404,-19.675Z"/></clipPath><g clip-path="url(#_clip2)"><path d="M21.811,26.345l-0,8.403" style="fill:none;stroke:#61c861;stroke-width:0.01px;"/><path d="M15.581,26.345l-0,8.403" style="fill:none;stroke:#61c861;stroke-width:0.01px;"/><path d="M28.041,23.518l0,11.23" style="fill:none;stroke:#61c861;stroke-width:0.01px;"/><path d="M24.933,22.56l-0,11.69" style="fill:none;stroke:#61c861;stroke-width:0.01px;"/><path d="M18.702,22.56l0,11.69" style="fill:none;stroke:#61c861;stroke-width:0.01px;"/><path d="M31.163,20.572l-0,13.678" style="fill:none;stroke:#61c861;stroke-width:0.01px;"/></g><path d="M15.179,27.315c0,-0 0.99,1.245 1.767,1.045c1.48,-0.382 1.398,-3.77 2.608,-4.028c1.004,-0.213 1.223,2.282 2.323,2.157c1.422,-0.161 1.851,-3.97 3.073,-3.929c0.841,0.029 0.701,1.187 1.325,1.335c0.555,0.131 1.003,-0.695 1.779,-0.366c0.633,0.268 0.311,2.57 1.431,2.523c1.121,-0.048 0.571,-5.232 1.995,-5.465c1.424,-0.234 1.053,2.449 3.137,2.252l1.651,24.151l-24.493,-0l3.404,-19.675Z" style="fill:none;stroke:#61c861;stroke-width:0.29px;"/><path d="M33.554,33.924c-0,-0.506 -0.201,-0.992 -0.559,-1.35c-0.359,-0.358 -0.844,-0.56 -1.351,-0.56c-3.441,0 -10.644,0 -14.086,0c-0.506,0 -0.992,0.202 -1.35,0.56c-0.358,0.358 -0.56,0.844 -0.56,1.35c0,3.501 0,10.591 0,10.591l17.906,-0l-0,-10.591Z" style="fill:#1a1a1a;"/><path d="M17.915,41.597l0.501,0.289l-0,0.578l-0.501,0.289l-0.501,-0.289l0,-0.578l0.501,-0.289Z" style="fill:#d4d4d4;"/><g><circle cx="30.825" cy="41.888" r="0.291" style="fill:none;stroke:#fff;stroke-width:0.05px;"/><path d="M30.825,42.311c0.271,-0 0.49,0.185 0.49,0.413l-0.98,-0c0,-0.228 0.22,-0.413 0.49,-0.413Z" style="fill:none;stroke:#fff;stroke-width:0.05px;"/></g><g><path d="M28.216,41.953c-0,-0.029 -0.012,-0.056 -0.032,-0.076c-0.02,-0.02 -0.047,-0.032 -0.076,-0.032l-0.855,0c-0.029,0 -0.056,0.012 -0.076,0.032c-0.02,0.02 -0.032,0.047 -0.032,0.076l0,0.601c0,0.029 0.012,0.056 0.032,0.076c0.02,0.02 0.047,0.032 0.076,0.032l0.855,-0c0.029,-0 0.056,-0.012 0.076,-0.032c0.02,-0.02 0.032,-0.047 0.032,-0.076l-0,-0.601Z" style="fill:none;stroke:#fff;stroke-width:0.05px;"/><path d="M28.094,41.845l-0,-0.04c-0,-0.059 -0.048,-0.107 -0.108,-0.107c-0.182,-0 -0.551,-0 -0.733,-0c-0.059,-0 -0.108,0.048 -0.108,0.107c0,0.077 0,0.461 0,0.461" style="fill:none;stroke:#fff;stroke-width:0.05px;"/><path d="M28.216,42.116l-0.283,-0c-0.033,-0 -0.065,0.013 -0.089,0.036c-0.023,0.024 -0.036,0.056 -0.036,0.089c-0,0.008 -0,0.015 -0,0.023c-0,0.033 0.013,0.065 0.036,0.089c0.024,0.023 0.056,0.036 0.089,0.036c0.12,0 0.283,0 0.283,0l-0,-0.273Z" style="fill:none;stroke:#fff;stroke-width:0.05px;"/></g><g><path d="M24.199,41.701c-0.102,0.001 -0.201,0.033 -0.284,0.093c-0.222,0.16 -0.273,0.47 -0.113,0.692c0.159,0.223 0.47,0.274 0.692,0.114l-0.289,-0.403l-0.006,-0.496Z" style="fill:none;stroke:#fff;stroke-width:0.05px;"/><path d="M24.658,42.625c0.121,-0.102 0.191,-0.258 0.19,-0.424l-0.491,0.003c0,0.001 -0,0.002 -0.001,0.003l0.302,0.418Z" style="fill:none;stroke:#fff;stroke-width:0.05px;"/><path d="M24.832,42.09c-0.001,-0.271 -0.234,-0.49 -0.519,-0.488l0.004,0.492l0.515,-0.004Z" style="fill:none;stroke:#fff;stroke-width:0.05px;"/></g><path d="M21.153,42.33l-0.165,-0c-0.018,-0 -0.035,0.007 -0.048,0.02c-0.013,0.012 -0.02,0.03 -0.02,0.048c0,0.116 0,0.341 0,0.341l-0.171,-0c-0.019,-0 -0.037,-0.008 -0.05,-0.021c-0.014,-0.013 -0.021,-0.032 -0.021,-0.05c-0,-0.138 -0,-0.426 -0,-0.426l-0.122,0c-0.021,0 -0.04,-0.012 -0.048,-0.032c-0.008,-0.02 -0.004,-0.042 0.011,-0.057c0.176,-0.178 0.551,-0.558 0.551,-0.558c0,-0 0.376,0.38 0.552,0.558c0.015,0.015 0.019,0.037 0.011,0.057c-0.008,0.02 -0.027,0.032 -0.049,0.032c-0.061,0 -0.121,0 -0.121,0l0,0.426c0,0.018 -0.007,0.037 -0.021,0.05c-0.013,0.013 -0.031,0.021 -0.05,0.021c-0.072,-0 -0.171,-0 -0.171,-0l-0,-0.341c-0,-0.018 -0.008,-0.036 -0.02,-0.048c-0.013,-0.013 -0.03,-0.02 -0.048,-0.02Z" style="fill:none;stroke:#fff;stroke-width:0.05px;"/><path d="M18.822,14.897l1.306,0l-0,0.213l-1.925,0l-0,-0.213l0.376,0l-0,-0.869l-0.376,-0l-0,-0.167l0.376,0l-0,-0.28c-0,-0.253 0.08,-0.453 0.24,-0.601c0.16,-0.148 0.388,-0.221 0.686,-0.221c0.273,-0 0.495,0.058 0.666,0.176l-0.09,0.203c-0.146,-0.106 -0.345,-0.16 -0.596,-0.16c-0.22,0 -0.385,0.052 -0.496,0.155c-0.111,0.104 -0.167,0.253 -0.167,0.448l0,0.28l0.923,0l-0,0.167l-0.923,-0l0,0.869Z" style="fill:#007ef4;fill-rule:nonzero;"/><path d="M21.057,12.759c0.309,-0 0.545,0.101 0.71,0.304c0.164,0.204 0.246,0.491 0.246,0.861c0,0.26 -0.044,0.48 -0.133,0.66c-0.089,0.18 -0.213,0.316 -0.373,0.408c-0.16,0.092 -0.346,0.138 -0.56,0.138c-0.231,0 -0.415,-0.042 -0.553,-0.126l0.097,-0.193c0.111,0.073 0.262,0.11 0.453,0.11c0.258,-0 0.46,-0.082 0.606,-0.245c0.147,-0.164 0.22,-0.401 0.22,-0.712c0,-0.057 -0.003,-0.121 -0.01,-0.189c-0.058,0.126 -0.15,0.224 -0.276,0.294c-0.127,0.07 -0.272,0.105 -0.437,0.105c-0.153,0 -0.289,-0.029 -0.408,-0.086c-0.119,-0.058 -0.211,-0.14 -0.278,-0.245c-0.067,-0.106 -0.1,-0.228 -0.1,-0.368c0,-0.142 0.035,-0.268 0.103,-0.377c0.069,-0.108 0.164,-0.192 0.285,-0.251c0.121,-0.059 0.257,-0.088 0.408,-0.088Zm0.027,1.212c0.118,0 0.221,-0.022 0.311,-0.066c0.09,-0.045 0.161,-0.106 0.212,-0.184c0.051,-0.077 0.077,-0.164 0.077,-0.26c-0,-0.088 -0.024,-0.171 -0.072,-0.246c-0.048,-0.076 -0.118,-0.137 -0.212,-0.183c-0.093,-0.047 -0.204,-0.07 -0.333,-0.07c-0.168,-0 -0.306,0.046 -0.411,0.138c-0.106,0.092 -0.158,0.215 -0.158,0.368c-0,0.153 0.052,0.275 0.158,0.367c0.105,0.091 0.248,0.136 0.428,0.136Z" style="fill:#007ef4;fill-rule:nonzero;"/><path d="M22.973,13.735c0.337,-0 0.583,0.06 0.738,0.181c0.154,0.121 0.231,0.291 0.231,0.508c0,0.136 -0.032,0.257 -0.095,0.363c-0.063,0.107 -0.158,0.191 -0.285,0.252c-0.126,0.061 -0.282,0.091 -0.466,0.091c-0.167,0 -0.325,-0.027 -0.475,-0.081c-0.15,-0.055 -0.27,-0.127 -0.361,-0.218l0.116,-0.19c0.078,0.08 0.18,0.145 0.307,0.195c0.126,0.05 0.263,0.075 0.41,0.075c0.193,-0 0.342,-0.044 0.448,-0.13c0.105,-0.087 0.158,-0.202 0.158,-0.347c-0,-0.16 -0.06,-0.281 -0.178,-0.363c-0.119,-0.082 -0.32,-0.123 -0.602,-0.123l-0.496,-0l0.12,-1.169l1.276,-0l-0,0.213l-1.066,-0l-0.08,0.743l0.3,-0Z" style="fill:#007ef4;fill-rule:nonzero;"/><path d="M25.844,12.779l0,0.169l-0.976,2.162l-0.26,0l0.96,-2.118l-1.2,-0l0,0.436l-0.236,0l-0,-0.649l1.712,-0Z" style="fill:#007ef4;fill-rule:nonzero;"/><path d="M26.164,15.127c-0.049,0 -0.091,-0.018 -0.125,-0.053c-0.034,-0.036 -0.052,-0.079 -0.052,-0.13c0,-0.051 0.018,-0.094 0.052,-0.128c0.034,-0.035 0.076,-0.052 0.125,-0.052c0.049,-0 0.091,0.017 0.127,0.052c0.035,0.034 0.053,0.077 0.053,0.128c-0,0.051 -0.018,0.094 -0.053,0.13c-0.036,0.035 -0.078,0.053 -0.127,0.053Z" style="fill:#007ef4;fill-rule:nonzero;"/><path d="M28.059,13.888c0.147,0.049 0.26,0.122 0.338,0.22c0.079,0.097 0.119,0.215 0.119,0.353c-0,0.135 -0.037,0.254 -0.11,0.355c-0.073,0.101 -0.178,0.178 -0.315,0.233c-0.137,0.054 -0.297,0.081 -0.481,0.081c-0.28,0 -0.5,-0.06 -0.66,-0.18c-0.16,-0.119 -0.24,-0.283 -0.24,-0.489c0,-0.14 0.039,-0.258 0.115,-0.355c0.077,-0.097 0.188,-0.169 0.335,-0.218c-0.12,-0.047 -0.211,-0.114 -0.273,-0.202c-0.062,-0.087 -0.093,-0.191 -0.093,-0.311c-0,-0.189 0.073,-0.339 0.221,-0.45c0.148,-0.111 0.346,-0.166 0.595,-0.166c0.164,-0 0.308,0.025 0.431,0.075c0.123,0.05 0.219,0.121 0.288,0.214c0.069,0.094 0.103,0.202 0.103,0.327c0,0.12 -0.032,0.224 -0.096,0.311c-0.065,0.088 -0.157,0.155 -0.277,0.202Zm-1.026,-0.506c0,0.128 0.051,0.23 0.154,0.306c0.102,0.075 0.243,0.113 0.423,0.113c0.18,0 0.321,-0.038 0.424,-0.113c0.104,-0.076 0.155,-0.177 0.155,-0.303c0,-0.131 -0.052,-0.234 -0.158,-0.31c-0.105,-0.075 -0.246,-0.113 -0.421,-0.113c-0.178,-0 -0.318,0.038 -0.422,0.113c-0.103,0.076 -0.155,0.178 -0.155,0.307Zm0.577,1.545c0.206,0 0.368,-0.042 0.484,-0.126c0.117,-0.085 0.175,-0.199 0.175,-0.344c0,-0.144 -0.058,-0.258 -0.175,-0.341c-0.116,-0.083 -0.278,-0.125 -0.484,-0.125c-0.205,0 -0.365,0.042 -0.482,0.125c-0.116,0.083 -0.175,0.197 -0.175,0.341c0,0.147 0.058,0.262 0.174,0.345c0.115,0.084 0.276,0.125 0.483,0.125Z" style="fill:#007ef4;fill-rule:nonzero;"/><path d="M29.778,15.13c-0.18,0 -0.34,-0.047 -0.481,-0.143c-0.141,-0.095 -0.251,-0.233 -0.33,-0.411c-0.079,-0.179 -0.118,-0.389 -0.118,-0.632c-0,-0.242 0.039,-0.452 0.118,-0.631c0.079,-0.179 0.189,-0.316 0.33,-0.411c0.141,-0.096 0.301,-0.143 0.481,-0.143c0.18,-0 0.341,0.047 0.482,0.143c0.141,0.095 0.251,0.232 0.331,0.411c0.08,0.179 0.12,0.389 0.12,0.631c-0,0.243 -0.04,0.453 -0.12,0.632c-0.08,0.178 -0.19,0.316 -0.331,0.411c-0.141,0.096 -0.302,0.143 -0.482,0.143Zm0,-0.219c0.136,-0 0.255,-0.038 0.358,-0.114c0.104,-0.075 0.184,-0.185 0.242,-0.33c0.058,-0.144 0.086,-0.318 0.086,-0.523c0,-0.204 -0.028,-0.378 -0.086,-0.523c-0.058,-0.144 -0.138,-0.254 -0.242,-0.329c-0.103,-0.076 -0.222,-0.114 -0.358,-0.114c-0.135,0 -0.255,0.038 -0.358,0.114c-0.103,0.075 -0.184,0.185 -0.241,0.329c-0.058,0.145 -0.087,0.319 -0.087,0.523c0,0.205 0.029,0.379 0.087,0.523c0.057,0.145 0.138,0.255 0.241,0.33c0.103,0.076 0.223,0.114 0.358,0.114Z" style="fill:#007ef4;fill-rule:nonzero;"/><path d="M31.209,7.825c-0.056,-0.005 -0.113,-0.005 -0.17,0l-0.065,0.219c-0.046,0.011 -0.091,0.028 -0.134,0.049l-0.191,-0.126c-0.047,0.032 -0.09,0.069 -0.13,0.11l0.091,0.209c-0.028,0.038 -0.052,0.08 -0.072,0.124l-0.226,0.026c-0.016,0.054 -0.026,0.11 -0.03,0.167l0.204,0.102c0.003,0.048 0.012,0.095 0.025,0.141l-0.157,0.166c0.023,0.051 0.052,0.101 0.085,0.147l0.222,-0.054c0.033,0.035 0.07,0.066 0.11,0.093l-0.014,0.227c0.051,0.025 0.105,0.045 0.16,0.059l0.135,-0.184c0.048,0.006 0.096,0.006 0.144,0l0.135,0.184c0.056,-0.014 0.109,-0.034 0.16,-0.059l-0.014,-0.227c0.04,-0.027 0.077,-0.058 0.11,-0.093l0.222,0.054c0.033,-0.046 0.062,-0.096 0.085,-0.147l-0.157,-0.166c0.014,-0.046 0.022,-0.093 0.025,-0.141l0.204,-0.102c-0.004,-0.057 -0.014,-0.113 -0.029,-0.167l-0.227,-0.026c-0.019,-0.044 -0.043,-0.086 -0.072,-0.124l0.091,-0.209c-0.039,-0.041 -0.083,-0.078 -0.13,-0.11l-0.19,0.126c-0.043,-0.021 -0.088,-0.038 -0.135,-0.049l-0.065,-0.219Zm-0.085,0.571c0.149,0 0.269,0.121 0.269,0.269c0,0.149 -0.12,0.269 -0.269,0.269c-0.148,0 -0.269,-0.12 -0.269,-0.269c0,-0.148 0.121,-0.269 0.269,-0.269Z" style="fill:none;stroke:#fff;stroke-width:0.11px;"/><circle cx="20.455" cy="18.253" r="1.549" style="fill:#007ef4;"/><clipPath id="_clip3"><circle cx="20.455" cy="18.253" r="1.549"/></clipPath><g clip-path="url(#_clip3)"><path d="M20.454,18.943l0,-1.381l0.607,0.607l-0.607,-0.607l-0.582,0.583" style="fill:none;stroke:#fff;stroke-width:0.22px;"/></g><path d="M25.751,17.157c0.604,0.605 0.604,1.587 -0,2.191c-0.605,0.605 -1.587,0.605 -2.191,0c-0.605,-0.604 -0.605,-1.586 -0,-2.191c0.604,-0.604 1.586,-0.604 2.191,0Z" style="fill:#007ef4;"/><clipPath id="_clip4"><path d="M25.751,17.157c0.604,0.605 0.604,1.587 -0,2.191c-0.605,0.605 -1.587,0.605 -2.191,0c-0.605,-0.604 -0.605,-1.586 -0,-2.191c0.604,-0.604 1.586,-0.604 2.191,0Z"/></clipPath><g clip-path="url(#_clip4)"><path d="M24.167,18.741l0.976,-0.976l-0,0.858l-0,-0.858l-0.824,-0" style="fill:none;stroke:#fff;stroke-width:0.22px;"/></g><path d="M30.405,18.253c0,0.855 -0.694,1.549 -1.549,1.549c-0.855,0 -1.549,-0.694 -1.549,-1.549c-0,-0.855 0.694,-1.549 1.549,-1.549c0.855,-0 1.549,0.694 1.549,1.549Z" style="fill:#007ef4;"/><clipPath id="_clip5"><path d="M30.405,18.253c0,0.855 -0.694,1.549 -1.549,1.549c-0.855,0 -1.549,-0.694 -1.549,-1.549c-0,-0.855 0.694,-1.549 1.549,-1.549c0.855,-0 1.549,0.694 1.549,1.549Z"/></clipPath><g clip-path="url(#_clip5)"><path d="M28.166,18.054l1.38,-0l-0.582,-0.582" style="fill:none;stroke:#fff;stroke-width:0.22px;"/><path d="M29.546,18.452l-1.38,0l0.582,0.583" style="fill:none;stroke:#fff;stroke-width:0.22px;"/></g><circle cx="21.811" cy="26.345" r="0.417" style="fill:#61c861;stroke:#fff;stroke-width:0.29px;"/><circle cx="28.057" cy="23.478" r="0.417" style="fill:#61c861;stroke:#fff;stroke-width:0.29px;"/><g><circle cx="17.676" cy="34.849" r="0.977" style="fill:#ffaf2e;"/><clipPath id="_clip6"><circle cx="17.676" cy="34.849" r="0.977"/></clipPath><g clip-path="url(#_clip6)"><g><path d="M17.923,34.881c0.042,0.022 0.073,0.052 0.093,0.092c0.02,0.04 0.027,0.087 0.021,0.14c-0.01,0.077 -0.043,0.132 -0.1,0.166c-0.058,0.035 -0.136,0.046 -0.237,0.034l-0.397,-0.049l0.106,-0.869l0.376,0.046c0.093,0.012 0.163,0.041 0.208,0.088c0.045,0.046 0.064,0.104 0.055,0.174c-0.005,0.042 -0.019,0.079 -0.041,0.109c-0.022,0.031 -0.05,0.054 -0.084,0.069Zm-0.356,-0.313l-0.025,0.205l0.177,0.022c0.044,0.005 0.078,0.001 0.103,-0.014c0.025,-0.015 0.04,-0.039 0.044,-0.073c0.004,-0.034 -0.004,-0.061 -0.025,-0.08c-0.021,-0.02 -0.053,-0.033 -0.097,-0.038l-0.177,-0.022Zm0.139,0.592c0.047,0.006 0.083,0.001 0.109,-0.013c0.026,-0.015 0.041,-0.04 0.045,-0.077c0.009,-0.072 -0.034,-0.113 -0.128,-0.125l-0.208,-0.025l-0.026,0.214l0.208,0.026Z" style="fill:#fff;fill-rule:nonzero;"/><path d="M17.688,34.251l-0.119,-0.014l-0.026,0.214l0.119,0.015l0.026,-0.215Z" style="fill:#fff;"/><path d="M17.565,35.259l-0.119,-0.015l-0.026,0.215l0.118,0.014l0.027,-0.214Z" style="fill:#fff;"/><path d="M17.902,34.278l-0.119,-0.015l-0.026,0.215l0.118,0.014l0.027,-0.214Z" style="fill:#fff;"/><path d="M17.778,35.285l-0.118,-0.015l-0.026,0.215l0.118,0.015l0.026,-0.215Z" style="fill:#fff;"/></g></g><path d="M19.933,34.139c0.027,0.01 0.049,0.025 0.064,0.045c0.016,0.021 0.024,0.045 0.024,0.074c-0,0.042 -0.017,0.075 -0.051,0.098c-0.034,0.023 -0.083,0.034 -0.147,0.034l-0.26,-0l0,-0.481l0.246,0c0.061,0 0.108,0.011 0.14,0.034c0.032,0.023 0.048,0.053 0.048,0.092c0,0.023 -0.005,0.043 -0.016,0.061c-0.012,0.018 -0.028,0.033 -0.048,0.043Zm-0.235,-0.132l-0,0.093l0.093,0c0.046,0 0.069,-0.016 0.069,-0.047c-0,-0.03 -0.023,-0.046 -0.069,-0.046l-0.093,0Zm0.114,0.285c0.047,-0 0.071,-0.017 0.071,-0.049c0,-0.033 -0.024,-0.049 -0.071,-0.049l-0.114,0l-0,0.098l0.114,-0Z" style="fill:#fff;fill-rule:nonzero;"/><rect x="20.091" y="33.909" width="0.136" height="0.481" style="fill:#fff;fill-rule:nonzero;"/><path d="M20.427,34.017l-0.148,-0l0,-0.108l0.431,0l-0,0.108l-0.147,-0l-0,0.373l-0.136,-0l-0,-0.373Z" style="fill:#fff;fill-rule:nonzero;"/><path d="M20.994,34.4c-0.051,-0 -0.096,-0.011 -0.136,-0.032c-0.04,-0.022 -0.072,-0.051 -0.095,-0.089c-0.023,-0.038 -0.034,-0.081 -0.034,-0.129c0,-0.049 0.011,-0.092 0.034,-0.13c0.023,-0.038 0.055,-0.067 0.095,-0.089c0.04,-0.021 0.085,-0.032 0.136,-0.032c0.043,0 0.083,0.008 0.118,0.024c0.036,0.015 0.065,0.038 0.088,0.067l-0.086,0.078c-0.031,-0.037 -0.069,-0.056 -0.114,-0.056c-0.026,0 -0.049,0.006 -0.069,0.017c-0.021,0.012 -0.037,0.028 -0.048,0.049c-0.011,0.021 -0.017,0.045 -0.017,0.072c0,0.027 0.006,0.05 0.017,0.071c0.011,0.021 0.027,0.037 0.048,0.049c0.02,0.011 0.043,0.017 0.069,0.017c0.045,-0 0.083,-0.019 0.114,-0.056l0.086,0.078c-0.023,0.029 -0.052,0.052 -0.088,0.067c-0.035,0.016 -0.075,0.024 -0.118,0.024Z" style="fill:#fff;fill-rule:nonzero;"/><path d="M21.493,34.4c-0.051,-0 -0.097,-0.011 -0.137,-0.033c-0.041,-0.021 -0.072,-0.051 -0.096,-0.089c-0.023,-0.038 -0.034,-0.081 -0.034,-0.128c-0,-0.048 0.011,-0.091 0.034,-0.129c0.024,-0.038 0.055,-0.068 0.096,-0.089c0.04,-0.022 0.086,-0.033 0.137,-0.033c0.051,0 0.096,0.011 0.137,0.033c0.041,0.021 0.072,0.051 0.096,0.089c0.023,0.038 0.034,0.081 0.034,0.129c0,0.047 -0.011,0.09 -0.034,0.128c-0.024,0.038 -0.055,0.068 -0.096,0.089c-0.041,0.022 -0.086,0.033 -0.137,0.033Zm-0,-0.113c0.024,-0 0.046,-0.006 0.066,-0.017c0.02,-0.012 0.035,-0.028 0.047,-0.049c0.011,-0.021 0.017,-0.044 0.017,-0.071c-0,-0.027 -0.006,-0.051 -0.017,-0.072c-0.012,-0.021 -0.027,-0.037 -0.047,-0.049c-0.02,-0.011 -0.042,-0.017 -0.066,-0.017c-0.024,0 -0.046,0.006 -0.066,0.017c-0.02,0.012 -0.035,0.028 -0.047,0.049c-0.011,0.021 -0.017,0.045 -0.017,0.072c0,0.027 0.006,0.05 0.017,0.071c0.012,0.021 0.027,0.037 0.047,0.049c0.02,0.011 0.042,0.017 0.066,0.017Z" style="fill:#fff;fill-rule:nonzero;"/><rect x="21.832" y="33.909" width="0.136" height="0.481" style="fill:#fff;fill-rule:nonzero;"/><path d="M22.522,33.909l0,0.481l-0.112,-0l-0.212,-0.256l-0,0.256l-0.133,-0l-0,-0.481l0.112,0l0.212,0.256l-0,-0.256l0.133,0Z" style="fill:#fff;fill-rule:nonzero;"/><path d="M19.968,35.863c-0.081,0 -0.154,-0.021 -0.218,-0.065c-0.064,-0.043 -0.114,-0.105 -0.15,-0.186c-0.035,-0.081 -0.053,-0.177 -0.053,-0.287c-0,-0.11 0.018,-0.205 0.053,-0.286c0.036,-0.081 0.086,-0.144 0.15,-0.187c0.064,-0.043 0.137,-0.065 0.218,-0.065c0.082,0 0.155,0.022 0.219,0.065c0.064,0.043 0.114,0.106 0.15,0.187c0.037,0.081 0.055,0.176 0.055,0.286c-0,0.11 -0.018,0.206 -0.055,0.287c-0.036,0.081 -0.086,0.143 -0.15,0.186c-0.064,0.044 -0.137,0.065 -0.219,0.065Zm0,-0.099c0.062,-0 0.116,-0.018 0.163,-0.052c0.047,-0.034 0.083,-0.084 0.11,-0.149c0.026,-0.066 0.039,-0.145 0.039,-0.238c-0,-0.092 -0.013,-0.172 -0.039,-0.237c-0.027,-0.066 -0.063,-0.115 -0.11,-0.15c-0.047,-0.034 -0.101,-0.051 -0.163,-0.051c-0.061,-0 -0.115,0.017 -0.162,0.051c-0.047,0.035 -0.083,0.084 -0.11,0.15c-0.026,0.065 -0.039,0.145 -0.039,0.237c0,0.093 0.013,0.172 0.039,0.238c0.027,0.065 0.063,0.115 0.11,0.149c0.047,0.034 0.101,0.052 0.162,0.052Z" style="fill:#fff;fill-rule:nonzero;"/><path d="M20.612,35.862c-0.022,-0 -0.041,-0.008 -0.056,-0.024c-0.016,-0.016 -0.024,-0.036 -0.024,-0.059c0,-0.023 0.008,-0.043 0.024,-0.058c0.015,-0.016 0.034,-0.024 0.056,-0.024c0.023,0 0.042,0.008 0.058,0.024c0.016,0.015 0.024,0.035 0.024,0.058c0,0.023 -0.008,0.043 -0.024,0.059c-0.016,0.016 -0.035,0.024 -0.058,0.024Z" style="fill:#fff;fill-rule:nonzero;"/><path d="M21.256,35.863c-0.081,0 -0.154,-0.021 -0.218,-0.065c-0.064,-0.043 -0.114,-0.105 -0.15,-0.186c-0.035,-0.081 -0.053,-0.177 -0.053,-0.287c-0,-0.11 0.018,-0.205 0.053,-0.286c0.036,-0.081 0.086,-0.144 0.15,-0.187c0.064,-0.043 0.137,-0.065 0.218,-0.065c0.082,0 0.155,0.022 0.219,0.065c0.064,0.043 0.114,0.106 0.15,0.187c0.037,0.081 0.055,0.176 0.055,0.286c-0,0.11 -0.018,0.206 -0.055,0.287c-0.036,0.081 -0.086,0.143 -0.15,0.186c-0.064,0.044 -0.137,0.065 -0.219,0.065Zm0,-0.099c0.062,-0 0.116,-0.018 0.163,-0.052c0.047,-0.034 0.083,-0.084 0.11,-0.149c0.026,-0.066 0.039,-0.145 0.039,-0.238c-0,-0.092 -0.013,-0.172 -0.039,-0.237c-0.027,-0.066 -0.063,-0.115 -0.11,-0.15c-0.047,-0.034 -0.101,-0.051 -0.163,-0.051c-0.061,-0 -0.115,0.017 -0.162,0.051c-0.047,0.035 -0.084,0.084 -0.11,0.15c-0.026,0.065 -0.039,0.145 -0.039,0.237c-0,0.093 0.013,0.172 0.039,0.238c0.026,0.065 0.063,0.115 0.11,0.149c0.047,0.034 0.101,0.052 0.162,0.052Z" style="fill:#fff;fill-rule:nonzero;"/><path d="M22.114,35.23c0.153,0 0.264,0.027 0.334,0.082c0.07,0.055 0.105,0.132 0.105,0.231c0,0.061 -0.014,0.116 -0.043,0.165c-0.028,0.048 -0.071,0.086 -0.129,0.114c-0.057,0.028 -0.128,0.041 -0.212,0.041c-0.075,0 -0.147,-0.012 -0.215,-0.037c-0.068,-0.024 -0.123,-0.057 -0.164,-0.099l0.053,-0.086c0.035,0.036 0.082,0.066 0.139,0.089c0.057,0.022 0.119,0.034 0.186,0.034c0.088,-0 0.155,-0.02 0.203,-0.059c0.048,-0.04 0.072,-0.092 0.072,-0.158c0,-0.072 -0.027,-0.127 -0.081,-0.164c-0.054,-0.038 -0.145,-0.056 -0.273,-0.056l-0.225,-0l0.055,-0.531l0.578,0l0,0.097l-0.483,-0l-0.037,0.337l0.137,0Z" style="fill:#fff;fill-rule:nonzero;"/><path d="M23.113,35.863c-0.082,0 -0.155,-0.021 -0.219,-0.065c-0.064,-0.043 -0.114,-0.105 -0.149,-0.186c-0.036,-0.081 -0.054,-0.177 -0.054,-0.287c-0,-0.11 0.018,-0.205 0.054,-0.286c0.035,-0.081 0.085,-0.144 0.149,-0.187c0.064,-0.043 0.137,-0.065 0.219,-0.065c0.081,0 0.154,0.022 0.218,0.065c0.064,0.043 0.114,0.106 0.151,0.187c0.036,0.081 0.054,0.176 0.054,0.286c0,0.11 -0.018,0.206 -0.054,0.287c-0.037,0.081 -0.087,0.143 -0.151,0.186c-0.064,0.044 -0.137,0.065 -0.218,0.065Zm-0,-0.099c0.061,-0 0.115,-0.018 0.162,-0.052c0.047,-0.034 0.084,-0.084 0.11,-0.149c0.026,-0.066 0.039,-0.145 0.039,-0.238c0,-0.092 -0.013,-0.172 -0.039,-0.237c-0.026,-0.066 -0.063,-0.115 -0.11,-0.15c-0.047,-0.034 -0.101,-0.051 -0.162,-0.051c-0.062,-0 -0.116,0.017 -0.163,0.051c-0.047,0.035 -0.083,0.084 -0.109,0.15c-0.027,0.065 -0.04,0.145 -0.04,0.237c0,0.093 0.013,0.172 0.04,0.238c0.026,0.065 0.062,0.115 0.109,0.149c0.047,0.034 0.101,0.052 0.163,0.052Z" style="fill:#fff;fill-rule:nonzero;"/><path d="M24.591,35.576l-0.211,0l-0,0.278l-0.109,0l-0,-0.278l-0.597,0l-0,-0.078l0.56,-0.702l0.121,0l-0.541,0.683l0.46,0l-0,-0.244l0.106,-0l-0,0.244l0.211,0l0,0.097Z" style="fill:#fff;fill-rule:nonzero;"/><path d="M24.946,34.796l0,1.058l-0.108,0l-0,-0.961l-0.25,-0l0,-0.097l0.358,0Z" style="fill:#fff;fill-rule:nonzero;"/><path d="M29.631,34.802c0.105,0 0.182,0.019 0.23,0.057c0.048,0.038 0.072,0.09 0.072,0.158c-0,0.043 -0.01,0.08 -0.03,0.114c-0.02,0.033 -0.049,0.059 -0.089,0.078c-0.039,0.019 -0.088,0.029 -0.145,0.029c-0.052,-0 -0.101,-0.009 -0.148,-0.026c-0.047,-0.017 -0.084,-0.04 -0.113,-0.068l0.037,-0.059c0.024,0.025 0.056,0.045 0.095,0.061c0.04,0.015 0.082,0.023 0.128,0.023c0.06,-0 0.107,-0.014 0.14,-0.041c0.033,-0.027 0.049,-0.063 0.049,-0.108c-0,-0.049 -0.019,-0.087 -0.056,-0.113c-0.037,-0.025 -0.099,-0.038 -0.187,-0.038l-0.155,-0l0.038,-0.365l0.397,0l0,0.067l-0.332,-0l-0.025,0.231l0.094,0Z" style="fill:#fff;fill-rule:nonzero;"/><path d="M30.083,35.236c-0.015,0 -0.028,-0.005 -0.038,-0.016c-0.011,-0.011 -0.017,-0.025 -0.017,-0.041c0,-0.016 0.006,-0.029 0.017,-0.04c0.01,-0.01 0.023,-0.016 0.038,-0.016c0.016,0 0.029,0.006 0.04,0.016c0.011,0.011 0.017,0.024 0.017,0.04c-0,0.016 -0.006,0.03 -0.017,0.041c-0.011,0.011 -0.024,0.016 -0.04,0.016Z" style="fill:#fff;fill-rule:nonzero;"/><path d="M30.748,34.504l0,0.053l-0.304,0.674l-0.081,0l0.299,-0.66l-0.374,-0l0,0.136l-0.074,-0l0,-0.203l0.534,0Z" style="fill:#fff;fill-rule:nonzero;"/><path d="M31.059,34.504l-0,0.727l-0.075,0l0,-0.66l-0.171,-0l-0,-0.067l0.246,0Z" style="fill:#fff;fill-rule:nonzero;"/><path d="M31.386,34.894c-0.049,-0 -0.089,-0.019 -0.119,-0.055c-0.03,-0.036 -0.045,-0.084 -0.045,-0.143c0,-0.059 0.015,-0.106 0.045,-0.143c0.03,-0.036 0.07,-0.054 0.119,-0.054c0.049,-0 0.088,0.018 0.119,0.054c0.03,0.036 0.045,0.084 0.045,0.143c0,0.06 -0.015,0.108 -0.045,0.144c-0.031,0.036 -0.07,0.054 -0.119,0.054Zm0.441,-0.39l0.061,0l-0.497,0.727l-0.061,0l0.497,-0.727Zm-0.441,0.343c0.034,-0 0.061,-0.013 0.082,-0.04c0.02,-0.027 0.03,-0.064 0.03,-0.111c0,-0.047 -0.01,-0.084 -0.03,-0.11c-0.021,-0.027 -0.048,-0.04 -0.082,-0.04c-0.034,-0 -0.062,0.013 -0.082,0.04c-0.02,0.027 -0.03,0.064 -0.03,0.11c-0,0.047 0.01,0.083 0.03,0.11c0.02,0.027 0.048,0.041 0.082,0.041Zm0.446,0.389c-0.049,0 -0.088,-0.018 -0.119,-0.054c-0.03,-0.036 -0.045,-0.084 -0.045,-0.143c-0,-0.059 0.015,-0.106 0.045,-0.143c0.031,-0.036 0.07,-0.054 0.119,-0.054c0.049,-0 0.089,0.018 0.119,0.054c0.03,0.037 0.045,0.084 0.045,0.143c-0,0.059 -0.015,0.107 -0.045,0.143c-0.03,0.036 -0.07,0.054 -0.119,0.054Zm-0,-0.046c0.034,-0 0.062,-0.014 0.082,-0.041c0.02,-0.027 0.03,-0.063 0.03,-0.11c0,-0.046 -0.01,-0.083 -0.03,-0.11c-0.02,-0.027 -0.048,-0.041 -0.082,-0.041c-0.034,0 -0.061,0.014 -0.082,0.04c-0.02,0.027 -0.03,0.064 -0.03,0.111c-0,0.047 0.01,0.084 0.03,0.111c0.021,0.026 0.048,0.04 0.082,0.04Z" style="fill:#fff;fill-rule:nonzero;"/><path d="M28.757,35.19l0,-0.691l0.304,0.304l-0.304,-0.304l-0.292,0.292" style="fill:none;stroke:#30ff9e;stroke-width:0.08px;"/></g><g><circle cx="17.676" cy="38.044" r="0.977" style="fill:#4891e5;"/><clipPath id="_clip7"><circle cx="17.676" cy="38.044" r="0.977"/></clipPath><g clip-path="url(#_clip7)"><path d="M17.876,37.36l-0.68,0.76l0.553,-0l-0.187,0.609l0.581,-0.806l-0.516,-0l0.249,-0.563Z" style="fill:#fff;"/></g><path d="M19.563,37.104l0.136,-0l0,0.373l0.23,0l-0,0.108l-0.366,-0l0,-0.481Z" style="fill:#fff;fill-rule:nonzero;"/><rect x="19.982" y="37.104" width="0.136" height="0.481" style="fill:#fff;fill-rule:nonzero;"/><path d="M20.537,37.334l0.121,0l-0,0.199c-0.028,0.02 -0.06,0.035 -0.095,0.046c-0.036,0.01 -0.072,0.016 -0.107,0.016c-0.051,-0 -0.096,-0.011 -0.136,-0.032c-0.041,-0.022 -0.072,-0.051 -0.095,-0.089c-0.023,-0.038 -0.035,-0.081 -0.035,-0.13c0,-0.048 0.012,-0.091 0.035,-0.129c0.023,-0.038 0.054,-0.067 0.095,-0.089c0.041,-0.021 0.087,-0.032 0.138,-0.032c0.045,0 0.086,0.008 0.121,0.023c0.036,0.015 0.066,0.037 0.09,0.065l-0.087,0.079c-0.033,-0.036 -0.071,-0.054 -0.117,-0.054c-0.041,0 -0.074,0.013 -0.099,0.037c-0.026,0.025 -0.038,0.059 -0.038,0.1c-0,0.027 0.006,0.051 0.017,0.072c0.011,0.02 0.027,0.037 0.048,0.048c0.021,0.012 0.044,0.018 0.071,0.018c0.026,-0 0.05,-0.005 0.073,-0.016l0,-0.132Z" style="fill:#fff;fill-rule:nonzero;"/><path d="M21.202,37.104l-0,0.481l-0.136,-0l-0,-0.188l-0.186,0l0,0.188l-0.136,-0l0,-0.481l0.136,-0l0,0.181l0.186,-0l-0,-0.181l0.136,-0Z" style="fill:#fff;fill-rule:nonzero;"/><path d="M21.4,37.212l-0.147,-0l-0,-0.108l0.43,-0l0,0.108l-0.147,-0l0,0.373l-0.136,-0l0,-0.373Z" style="fill:#fff;fill-rule:nonzero;"/><path d="M22.192,37.104l-0,0.481l-0.112,-0l-0.213,-0.256l0,0.256l-0.133,-0l0,-0.481l0.112,-0l0.212,0.256l0,-0.256l0.134,-0Z" style="fill:#fff;fill-rule:nonzero;"/><rect x="22.288" y="37.104" width="0.136" height="0.481" style="fill:#fff;fill-rule:nonzero;"/><path d="M22.978,37.104l0,0.481l-0.112,-0l-0.212,-0.256l0,0.256l-0.133,-0l-0,-0.481l0.112,-0l0.212,0.256l0,-0.256l0.133,-0Z" style="fill:#fff;fill-rule:nonzero;"/><path d="M23.397,37.334l0.12,0l-0,0.199c-0.028,0.02 -0.059,0.035 -0.095,0.046c-0.036,0.01 -0.071,0.016 -0.107,0.016c-0.05,-0 -0.096,-0.011 -0.136,-0.032c-0.04,-0.022 -0.072,-0.051 -0.095,-0.089c-0.023,-0.038 -0.034,-0.081 -0.034,-0.13c-0,-0.048 0.011,-0.091 0.034,-0.129c0.023,-0.038 0.055,-0.067 0.096,-0.089c0.04,-0.021 0.086,-0.032 0.138,-0.032c0.045,0 0.085,0.008 0.121,0.023c0.035,0.015 0.065,0.037 0.089,0.065l-0.087,0.079c-0.032,-0.036 -0.071,-0.054 -0.116,-0.054c-0.042,0 -0.075,0.013 -0.1,0.037c-0.025,0.025 -0.038,0.059 -0.038,0.1c0,0.027 0.006,0.051 0.017,0.072c0.012,0.02 0.028,0.037 0.048,0.048c0.021,0.012 0.045,0.018 0.071,0.018c0.026,-0 0.051,-0.005 0.074,-0.016l-0,-0.132Z" style="fill:#fff;fill-rule:nonzero;"/><path d="M19.968,39.058c-0.081,0 -0.154,-0.021 -0.218,-0.065c-0.064,-0.043 -0.114,-0.105 -0.15,-0.186c-0.035,-0.082 -0.053,-0.177 -0.053,-0.287c-0,-0.11 0.018,-0.205 0.053,-0.286c0.036,-0.081 0.086,-0.144 0.15,-0.187c0.064,-0.043 0.137,-0.065 0.218,-0.065c0.082,-0 0.155,0.022 0.219,0.065c0.064,0.043 0.114,0.106 0.15,0.187c0.037,0.081 0.055,0.176 0.055,0.286c-0,0.11 -0.018,0.205 -0.055,0.287c-0.036,0.081 -0.086,0.143 -0.15,0.186c-0.064,0.044 -0.137,0.065 -0.219,0.065Zm0,-0.099c0.062,-0 0.116,-0.018 0.163,-0.052c0.047,-0.034 0.083,-0.084 0.11,-0.15c0.026,-0.065 0.039,-0.144 0.039,-0.237c-0,-0.093 -0.013,-0.172 -0.039,-0.237c-0.027,-0.066 -0.063,-0.116 -0.11,-0.15c-0.047,-0.034 -0.101,-0.051 -0.163,-0.051c-0.061,-0 -0.115,0.017 -0.162,0.051c-0.047,0.034 -0.083,0.084 -0.11,0.15c-0.026,0.065 -0.039,0.144 -0.039,0.237c0,0.093 0.013,0.172 0.039,0.237c0.027,0.066 0.063,0.116 0.11,0.15c0.047,0.034 0.101,0.052 0.162,0.052Z" style="fill:#fff;fill-rule:nonzero;"/><path d="M20.612,39.057c-0.022,-0 -0.041,-0.008 -0.056,-0.024c-0.016,-0.017 -0.024,-0.036 -0.024,-0.059c0,-0.024 0.008,-0.043 0.024,-0.059c0.015,-0.015 0.034,-0.023 0.056,-0.023c0.023,0 0.042,0.008 0.058,0.023c0.016,0.016 0.024,0.035 0.024,0.059c0,0.023 -0.008,0.042 -0.024,0.059c-0.016,0.016 -0.035,0.024 -0.058,0.024Z" style="fill:#fff;fill-rule:nonzero;"/><path d="M21.256,39.058c-0.081,0 -0.154,-0.021 -0.218,-0.065c-0.064,-0.043 -0.114,-0.105 -0.15,-0.186c-0.035,-0.082 -0.053,-0.177 -0.053,-0.287c-0,-0.11 0.018,-0.205 0.053,-0.286c0.036,-0.081 0.086,-0.144 0.15,-0.187c0.064,-0.043 0.137,-0.065 0.218,-0.065c0.082,-0 0.155,0.022 0.219,0.065c0.064,0.043 0.114,0.106 0.15,0.187c0.037,0.081 0.055,0.176 0.055,0.286c-0,0.11 -0.018,0.205 -0.055,0.287c-0.036,0.081 -0.086,0.143 -0.15,0.186c-0.064,0.044 -0.137,0.065 -0.219,0.065Zm0,-0.099c0.062,-0 0.116,-0.018 0.163,-0.052c0.047,-0.034 0.083,-0.084 0.11,-0.15c0.026,-0.065 0.039,-0.144 0.039,-0.237c-0,-0.093 -0.013,-0.172 -0.039,-0.237c-0.027,-0.066 -0.063,-0.116 -0.11,-0.15c-0.047,-0.034 -0.101,-0.051 -0.163,-0.051c-0.061,-0 -0.115,0.017 -0.162,0.051c-0.047,0.034 -0.084,0.084 -0.11,0.15c-0.026,0.065 -0.039,0.144 -0.039,0.237c-0,0.093 0.013,0.172 0.039,0.237c0.026,0.066 0.063,0.116 0.11,0.15c0.047,0.034 0.101,0.052 0.162,0.052Z" style="fill:#fff;fill-rule:nonzero;"/><path d="M22.257,39.058c-0.081,0 -0.154,-0.021 -0.218,-0.065c-0.064,-0.043 -0.114,-0.105 -0.15,-0.186c-0.036,-0.082 -0.054,-0.177 -0.054,-0.287c0,-0.11 0.018,-0.205 0.054,-0.286c0.036,-0.081 0.086,-0.144 0.15,-0.187c0.064,-0.043 0.137,-0.065 0.218,-0.065c0.082,-0 0.155,0.022 0.219,0.065c0.064,0.043 0.114,0.106 0.15,0.187c0.036,0.081 0.054,0.176 0.054,0.286c0,0.11 -0.018,0.205 -0.054,0.287c-0.036,0.081 -0.086,0.143 -0.15,0.186c-0.064,0.044 -0.137,0.065 -0.219,0.065Zm0,-0.099c0.062,-0 0.116,-0.018 0.163,-0.052c0.047,-0.034 0.083,-0.084 0.109,-0.15c0.026,-0.065 0.04,-0.144 0.04,-0.237c-0,-0.093 -0.014,-0.172 -0.04,-0.237c-0.026,-0.066 -0.062,-0.116 -0.109,-0.15c-0.047,-0.034 -0.101,-0.051 -0.163,-0.051c-0.061,-0 -0.116,0.017 -0.162,0.051c-0.047,0.034 -0.084,0.084 -0.11,0.15c-0.026,0.065 -0.039,0.144 -0.039,0.237c-0,0.093 0.013,0.172 0.039,0.237c0.026,0.066 0.063,0.116 0.11,0.15c0.046,0.034 0.101,0.052 0.162,0.052Z" style="fill:#fff;fill-rule:nonzero;"/><path d="M23.258,39.058c-0.082,0 -0.155,-0.021 -0.219,-0.065c-0.064,-0.043 -0.113,-0.105 -0.149,-0.186c-0.036,-0.082 -0.054,-0.177 -0.054,-0.287c0,-0.11 0.018,-0.205 0.054,-0.286c0.036,-0.081 0.085,-0.144 0.149,-0.187c0.064,-0.043 0.137,-0.065 0.219,-0.065c0.082,-0 0.154,0.022 0.218,0.065c0.064,0.043 0.114,0.106 0.151,0.187c0.036,0.081 0.054,0.176 0.054,0.286c0,0.11 -0.018,0.205 -0.054,0.287c-0.037,0.081 -0.087,0.143 -0.151,0.186c-0.064,0.044 -0.136,0.065 -0.218,0.065Zm-0,-0.099c0.061,-0 0.116,-0.018 0.162,-0.052c0.047,-0.034 0.084,-0.084 0.11,-0.15c0.026,-0.065 0.039,-0.144 0.039,-0.237c0,-0.093 -0.013,-0.172 -0.039,-0.237c-0.026,-0.066 -0.063,-0.116 -0.11,-0.15c-0.046,-0.034 -0.101,-0.051 -0.162,-0.051c-0.062,-0 -0.116,0.017 -0.163,0.051c-0.046,0.034 -0.083,0.084 -0.109,0.15c-0.026,0.065 -0.04,0.144 -0.04,0.237c0,0.093 0.014,0.172 0.04,0.237c0.026,0.066 0.063,0.116 0.109,0.15c0.047,0.034 0.101,0.052 0.163,0.052Z" style="fill:#fff;fill-rule:nonzero;"/><path d="M24.736,38.771l-0.211,0l-0,0.278l-0.109,0l-0,-0.278l-0.597,0l-0,-0.079l0.561,-0.701l0.12,0l-0.541,0.683l0.46,0l-0,-0.245l0.106,0l-0,0.245l0.211,0l0,0.097Z" style="fill:#fff;fill-rule:nonzero;"/><path d="M25.108,38.425c0.153,-0 0.265,0.027 0.335,0.082c0.07,0.055 0.105,0.132 0.105,0.231c0,0.061 -0.014,0.116 -0.043,0.165c-0.029,0.048 -0.072,0.086 -0.129,0.114c-0.058,0.027 -0.128,0.041 -0.212,0.041c-0.075,0 -0.147,-0.012 -0.215,-0.037c-0.068,-0.024 -0.123,-0.057 -0.164,-0.099l0.053,-0.086c0.035,0.036 0.081,0.066 0.139,0.089c0.057,0.022 0.119,0.034 0.186,0.034c0.087,-0 0.155,-0.02 0.203,-0.059c0.048,-0.04 0.072,-0.092 0.072,-0.158c-0,-0.072 -0.027,-0.127 -0.081,-0.164c-0.054,-0.038 -0.145,-0.056 -0.273,-0.056l-0.225,-0l0.054,-0.531l0.579,0l0,0.097l-0.484,-0l-0.036,0.337l0.136,-0Z" style="fill:#fff;fill-rule:nonzero;"/><path d="M26.107,39.058c-0.081,0 -0.154,-0.021 -0.218,-0.065c-0.064,-0.043 -0.114,-0.105 -0.15,-0.186c-0.035,-0.082 -0.053,-0.177 -0.053,-0.287c-0,-0.11 0.018,-0.205 0.053,-0.286c0.036,-0.081 0.086,-0.144 0.15,-0.187c0.064,-0.043 0.137,-0.065 0.218,-0.065c0.082,-0 0.155,0.022 0.219,0.065c0.064,0.043 0.114,0.106 0.15,0.187c0.037,0.081 0.055,0.176 0.055,0.286c-0,0.11 -0.018,0.205 -0.055,0.287c-0.036,0.081 -0.086,0.143 -0.15,0.186c-0.064,0.044 -0.137,0.065 -0.219,0.065Zm0,-0.099c0.062,-0 0.116,-0.018 0.163,-0.052c0.047,-0.034 0.083,-0.084 0.11,-0.15c0.026,-0.065 0.039,-0.144 0.039,-0.237c-0,-0.093 -0.013,-0.172 -0.039,-0.237c-0.027,-0.066 -0.063,-0.116 -0.11,-0.15c-0.047,-0.034 -0.101,-0.051 -0.163,-0.051c-0.061,-0 -0.115,0.017 -0.162,0.051c-0.047,0.034 -0.083,0.084 -0.11,0.15c-0.026,0.065 -0.039,0.144 -0.039,0.237c0,0.093 0.013,0.172 0.039,0.237c0.027,0.066 0.063,0.116 0.11,0.15c0.047,0.034 0.101,0.052 0.162,0.052Z" style="fill:#fff;fill-rule:nonzero;"/><path d="M27.108,39.058c-0.081,0 -0.154,-0.021 -0.218,-0.065c-0.064,-0.043 -0.114,-0.105 -0.15,-0.186c-0.036,-0.082 -0.054,-0.177 -0.054,-0.287c0,-0.11 0.018,-0.205 0.054,-0.286c0.036,-0.081 0.086,-0.144 0.15,-0.187c0.064,-0.043 0.137,-0.065 0.218,-0.065c0.082,-0 0.155,0.022 0.219,0.065c0.064,0.043 0.114,0.106 0.15,0.187c0.036,0.081 0.054,0.176 0.054,0.286c0,0.11 -0.018,0.205 -0.054,0.287c-0.036,0.081 -0.086,0.143 -0.15,0.186c-0.064,0.044 -0.137,0.065 -0.219,0.065Zm0,-0.099c0.062,-0 0.116,-0.018 0.163,-0.052c0.047,-0.034 0.083,-0.084 0.109,-0.15c0.026,-0.065 0.04,-0.144 0.04,-0.237c-0,-0.093 -0.014,-0.172 -0.04,-0.237c-0.026,-0.066 -0.062,-0.116 -0.109,-0.15c-0.047,-0.034 -0.101,-0.051 -0.163,-0.051c-0.061,-0 -0.115,0.017 -0.162,0.051c-0.047,0.034 -0.084,0.084 -0.11,0.15c-0.026,0.065 -0.039,0.144 -0.039,0.237c-0,0.093 0.013,0.172 0.039,0.237c0.026,0.066 0.063,0.116 0.11,0.15c0.047,0.034 0.101,0.052 0.162,0.052Z" style="fill:#fff;fill-rule:nonzero;"/><path d="M28.109,39.058c-0.082,0 -0.155,-0.021 -0.219,-0.065c-0.064,-0.043 -0.113,-0.105 -0.149,-0.186c-0.036,-0.082 -0.054,-0.177 -0.054,-0.287c0,-0.11 0.018,-0.205 0.054,-0.286c0.036,-0.081 0.085,-0.144 0.149,-0.187c0.064,-0.043 0.137,-0.065 0.219,-0.065c0.082,-0 0.154,0.022 0.218,0.065c0.064,0.043 0.114,0.106 0.151,0.187c0.036,0.081 0.054,0.176 0.054,0.286c0,0.11 -0.018,0.205 -0.054,0.287c-0.037,0.081 -0.087,0.143 -0.151,0.186c-0.064,0.044 -0.136,0.065 -0.218,0.065Zm-0,-0.099c0.061,-0 0.116,-0.018 0.162,-0.052c0.047,-0.034 0.084,-0.084 0.11,-0.15c0.026,-0.065 0.039,-0.144 0.039,-0.237c0,-0.093 -0.013,-0.172 -0.039,-0.237c-0.026,-0.066 -0.063,-0.116 -0.11,-0.15c-0.046,-0.034 -0.101,-0.051 -0.162,-0.051c-0.062,-0 -0.116,0.017 -0.163,0.051c-0.046,0.034 -0.083,0.084 -0.109,0.15c-0.026,0.065 -0.039,0.144 -0.039,0.237c-0,0.093 0.013,0.172 0.039,0.237c0.026,0.066 0.063,0.116 0.109,0.15c0.047,0.034 0.101,0.052 0.163,0.052Z" style="fill:#fff;fill-rule:nonzero;"/><path d="M28.978,37.991l0,1.058l-0.109,0l0,-0.961l-0.249,-0l-0,-0.097l0.358,0Z" style="fill:#fff;fill-rule:nonzero;"/></g><path d="M27.138,6.839c-0,-0.378 -0.307,-0.685 -0.685,-0.685c-0.946,0 -2.643,0 -3.589,0c-0.378,0 -0.685,0.307 -0.685,0.685c-0,0 -0,0 -0,0c-0,0.379 0.307,0.685 0.685,0.685c0.946,0 2.643,0 3.589,0c0.378,0 0.685,-0.306 0.685,-0.685c-0,0 -0,0 -0,0Z" style="fill:#333;"/></g><circle cx="16.23" cy="20.408" r="4.455" style="fill:none;"/><clipPath id="_clip8"><circle cx="16.23" cy="20.408" r="4.455"/></clipPath><g clip-path="url(#_clip8)"><g><path d="M15.648,15.397l0,10.76" style="fill:none;stroke:#61c861;stroke-width:0.13px;"/><path d="M26.408,16.078l-10.76,-0" style="fill:none;stroke:#61c861;stroke-width:0.13px;"/><path d="M16.432,15.397l-0,10.76" style="fill:none;stroke:#61c861;stroke-width:0.13px;"/><path d="M26.408,16.861l-10.76,-0" style="fill:none;stroke:#61c861;stroke-width:0.13px;"/><path d="M17.215,15.397l-0,10.76" style="fill:none;stroke:#61c861;stroke-width:0.13px;"/><path d="M26.408,17.644l-10.76,0" style="fill:none;stroke:#61c861;stroke-width:0.13px;"/><path d="M17.998,15.397l-0,10.76" style="fill:none;stroke:#61c861;stroke-width:0.13px;"/><path d="M26.408,18.427l-10.76,0" style="fill:none;stroke:#61c861;stroke-width:0.13px;"/><path d="M18.781,15.397l0,10.76" style="fill:none;stroke:#61c861;stroke-width:0.13px;"/><path d="M26.408,19.21l-10.76,0" style="fill:none;stroke:#61c861;stroke-width:0.13px;"/><path d="M19.564,15.397l0,10.76" style="fill:none;stroke:#61c861;stroke-width:0.13px;"/><path d="M26.408,19.994l-10.76,-0" style="fill:none;stroke:#61c861;stroke-width:0.13px;"/><path d="M20.348,15.397l-0,10.76" style="fill:none;stroke:#61c861;stroke-width:0.13px;"/><path d="M26.408,20.777l-10.76,-0" style="fill:none;stroke:#61c861;stroke-width:0.13px;"/><path d="M21.131,15.397l-0,10.76" style="fill:none;stroke:#61c861;stroke-width:0.13px;"/><path d="M26.408,21.56l-10.76,-0" style="fill:none;stroke:#61c861;stroke-width:0.13px;"/><path d="M21.914,15.397l-0,10.76" style="fill:none;stroke:#61c861;stroke-width:0.13px;"/><path d="M26.408,22.343l-10.76,0" style="fill:none;stroke:#61c861;stroke-width:0.13px;"/><path d="M22.697,15.397l0,10.76" style="fill:none;stroke:#61c861;stroke-width:0.13px;"/><path d="M26.408,23.126l-10.76,0" style="fill:none;stroke:#61c861;stroke-width:0.13px;"/><path d="M23.48,15.397l0,10.76" style="fill:none;stroke:#61c861;stroke-width:0.13px;"/><path d="M26.408,23.909l-10.76,0" style="fill:none;stroke:#61c861;stroke-width:0.13px;"/><path d="M24.263,15.397l0,10.76" style="fill:none;stroke:#61c861;stroke-width:0.13px;"/><path d="M26.408,24.693l-10.76,-0" style="fill:none;stroke:#61c861;stroke-width:0.13px;"/><path d="M25.047,15.397l-0,10.76" style="fill:none;stroke:#61c861;stroke-width:0.13px;"/><path d="M26.408,25.476l-10.76,-0" style="fill:none;stroke:#61c861;stroke-width:0.13px;"/></g><circle cx="20.455" cy="18.253" r="1.549" style="fill:#61c861;"/></g><circle cx="16.23" cy="20.408" r="4.455" style="fill:none;stroke:#61c861;stroke-width:0.22px;"/><circle cx="33.554" cy="30.009" r="4.455" style="fill:none;"/><clipPath id="_clip9"><circle cx="33.554" cy="30.009" r="4.455"/></clipPath><g clip-path="url(#_clip9)"><g><path d="M33.554,35.388l-0,-10.759" style="fill:none;stroke:#61c861;stroke-width:0.13px;"/><path d="M22.794,34.708l10.76,-0" style="fill:none;stroke:#61c861;stroke-width:0.13px;"/><path d="M32.771,35.388l-0,-10.759" style="fill:none;stroke:#61c861;stroke-width:0.13px;"/><path d="M22.794,33.924l10.76,0" style="fill:none;stroke:#61c861;stroke-width:0.13px;"/><path d="M31.988,35.388l-0,-10.759" style="fill:none;stroke:#61c861;stroke-width:0.13px;"/><path d="M22.794,33.141l10.76,0" style="fill:none;stroke:#61c861;stroke-width:0.13px;"/><path d="M31.204,35.388l0,-10.759" style="fill:none;stroke:#61c861;stroke-width:0.13px;"/><path d="M22.794,32.358l10.76,0" style="fill:none;stroke:#61c861;stroke-width:0.13px;"/><path d="M30.421,35.388l0,-10.759" style="fill:none;stroke:#61c861;stroke-width:0.13px;"/><path d="M22.794,31.575l10.76,-0" style="fill:none;stroke:#61c861;stroke-width:0.13px;"/><path d="M29.638,35.388l0,-10.759" style="fill:none;stroke:#61c861;stroke-width:0.13px;"/><path d="M22.794,30.792l10.76,-0" style="fill:none;stroke:#61c861;stroke-width:0.13px;"/><path d="M28.855,35.388l-0,-10.759" style="fill:none;stroke:#61c861;stroke-width:0.13px;"/><path d="M22.794,30.009l10.76,-0" style="fill:none;stroke:#61c861;stroke-width:0.13px;"/><path d="M28.072,35.388l-0,-10.759" style="fill:none;stroke:#61c861;stroke-width:0.13px;"/><path d="M22.794,29.225l10.76,0" style="fill:none;stroke:#61c861;stroke-width:0.13px;"/><path d="M27.289,35.388l-0,-10.759" style="fill:none;stroke:#61c861;stroke-width:0.13px;"/><path d="M22.794,28.442l10.76,0" style="fill:none;stroke:#61c861;stroke-width:0.13px;"/><path d="M26.505,35.388l0,-10.759" style="fill:none;stroke:#61c861;stroke-width:0.13px;"/><path d="M22.794,27.659l10.76,0" style="fill:none;stroke:#61c861;stroke-width:0.13px;"/><path d="M25.722,35.388l0,-10.759" style="fill:none;stroke:#61c861;stroke-width:0.13px;"/><path d="M22.794,26.876l10.76,-0" style="fill:none;stroke:#61c861;stroke-width:0.13px;"/><path d="M24.939,35.388l0,-10.759" style="fill:none;stroke:#61c861;stroke-width:0.13px;"/><path d="M22.794,26.093l10.76,-0" style="fill:none;stroke:#61c861;stroke-width:0.13px;"/><path d="M24.156,35.388l-0,-10.759" style="fill:none;stroke:#61c861;stroke-width:0.13px;"/><path d="M22.794,25.309l10.76,0" style="fill:none;stroke:#61c861;stroke-width:0.13px;"/></g><path d="M33.554,33.924c-0,-0.506 -0.201,-0.992 -0.559,-1.35c-0.359,-0.358 -0.844,-0.56 -1.351,-0.56c-3.441,0 -10.644,0 -14.086,0c-0.506,0 -0.992,0.202 -1.35,0.56c-0.358,0.358 -0.56,0.844 -0.56,1.35c0,3.501 0,10.591 0,10.591l17.906,-0l-0,-10.591Z" style="fill:#61c861;"/></g><circle cx="33.554" cy="30.009" r="4.455" style="fill:none;stroke:#61c861;stroke-width:0.22px;"/><path d="M7.655,8.019l-0,10.974c-0,0.375 0.149,0.735 0.414,1c0.266,0.265 0.626,0.415 1.001,0.415l2.705,-0" style="fill:none;stroke:#61c861;stroke-width:0.13px;"/><path d="M42.179,23.814l-0,4.78c-0,0.781 -0.634,1.415 -1.415,1.415c-1.209,-0 -2.755,-0 -2.755,-0" style="fill:none;stroke:#61c861;stroke-width:0.13px;"/><path d="M17.079,3.192c0,-0.256 -0.101,-0.501 -0.282,-0.682c-0.181,-0.181 -0.426,-0.282 -0.682,-0.282l-12.081,-0c-0.256,-0 -0.502,0.101 -0.682,0.282c-0.181,0.181 -0.283,0.426 -0.283,0.682l0,3.863c0,0.255 0.102,0.501 0.283,0.681c0.18,0.181 0.426,0.283 0.682,0.283l12.081,-0c0.256,-0 0.501,-0.102 0.682,-0.283c0.181,-0.18 0.282,-0.426 0.282,-0.681l0,-3.863Z" style="fill:#333;"/><clipPath id="_clip10"><path d="M17.079,3.192c0,-0.256 -0.101,-0.501 -0.282,-0.682c-0.181,-0.181 -0.426,-0.282 -0.682,-0.282l-12.081,-0c-0.256,-0 -0.502,0.101 -0.682,0.282c-0.181,0.181 -0.283,0.426 -0.283,0.682l0,3.863c0,0.255 0.102,0.501 0.283,0.681c0.18,0.181 0.426,0.283 0.682,0.283l12.081,-0c0.256,-0 0.501,-0.102 0.682,-0.283c0.181,-0.18 0.282,-0.426 0.282,-0.681l0,-3.863Z"/></clipPath><g clip-path="url(#_clip10)"><path d="M8.319,6.357c0.036,0.072 0.047,0.144 0.033,0.218c-0.013,0.073 -0.049,0.136 -0.107,0.187c-0.058,0.052 -0.127,0.077 -0.207,0.077l-3.217,0c-0.08,0 -0.149,-0.025 -0.207,-0.077c-0.058,-0.051 -0.094,-0.114 -0.108,-0.187c-0.013,-0.074 -0.002,-0.146 0.034,-0.218l1.608,-2.787c0.04,-0.072 0.097,-0.12 0.171,-0.144c0.074,-0.025 0.147,-0.025 0.221,-0c0.074,0.024 0.131,0.072 0.171,0.144l1.608,2.787Zm-1.89,-0.576c-0.084,-0 -0.157,0.03 -0.217,0.09c-0.061,0.061 -0.091,0.133 -0.091,0.218c0,0.085 0.03,0.157 0.091,0.218c0.06,0.06 0.133,0.09 0.217,0.09c0.085,0 0.158,-0.03 0.218,-0.09c0.061,-0.061 0.091,-0.133 0.091,-0.218c-0,-0.085 -0.03,-0.157 -0.091,-0.218c-0.06,-0.06 -0.133,-0.09 -0.218,-0.09Zm-0.294,-1.106l0.053,0.911c0,0.018 0.008,0.035 0.024,0.051c0.015,0.015 0.034,0.023 0.057,0.023l0.321,0c0.023,0 0.042,-0.008 0.057,-0.023c0.016,-0.016 0.024,-0.033 0.024,-0.051l0.053,-0.911c0,-0.027 -0.008,-0.048 -0.023,-0.063c-0.016,-0.016 -0.035,-0.024 -0.057,-0.024l-0.429,0c-0.022,0 -0.041,0.008 -0.057,0.024c-0.016,0.015 -0.023,0.036 -0.023,0.063Z" style="fill:#61c861;fill-rule:nonzero;"/><rect x="9.715" y="3.407" width="6.198" height="0.602" style="fill:#61c861;"/><rect x="9.715" y="4.822" width="3.842" height="0.301" style="fill:#61c861;"/><rect x="9.715" y="5.501" width="3.842" height="0.301" style="fill:#61c861;"/><rect x="9.715" y="6.18" width="3.842" height="0.301" style="fill:#61c861;"/></g><path d="M45.156,19.202c0,-0.256 -0.101,-0.501 -0.282,-0.682c-0.181,-0.181 -0.426,-0.283 -0.682,-0.283c-1.109,0 -2.918,0 -4.026,0c-0.256,0 -0.501,0.102 -0.682,0.283c-0.181,0.181 -0.283,0.426 -0.283,0.682c0,1.071 0,2.791 0,3.862c0,0.256 0.102,0.501 0.283,0.682c0.181,0.181 0.426,0.282 0.682,0.282c1.108,0 2.917,0 4.026,0c0.256,0 0.501,-0.101 0.682,-0.282c0.181,-0.181 0.282,-0.426 0.282,-0.682c0,-1.071 0,-2.791 0,-3.862Z" style="fill:#333;"/><clipPath id="_clip11"><path d="M45.156,19.202c0,-0.256 -0.101,-0.501 -0.282,-0.682c-0.181,-0.181 -0.426,-0.283 -0.682,-0.283c-1.109,0 -2.918,0 -4.026,0c-0.256,0 -0.501,0.102 -0.682,0.283c-0.181,0.181 -0.283,0.426 -0.283,0.682c0,1.071 0,2.791 0,3.862c0,0.256 0.102,0.501 0.283,0.682c0.181,0.181 0.426,0.282 0.682,0.282c1.108,0 2.917,0 4.026,0c0.256,0 0.501,-0.101 0.682,-0.282c0.181,-0.181 0.282,-0.426 0.282,-0.682c0,-1.071 0,-2.791 0,-3.862Z"/></clipPath><g clip-path="url(#_clip11)"><path d="M43.841,21.133c-0,0.299 -0.075,0.576 -0.225,0.831c-0.149,0.254 -0.352,0.456 -0.606,0.606c-0.255,0.15 -0.532,0.225 -0.831,0.225c-0.299,-0 -0.576,-0.075 -0.831,-0.225c-0.255,-0.15 -0.457,-0.352 -0.606,-0.606c-0.15,-0.255 -0.225,-0.532 -0.225,-0.831c0,-0.299 0.075,-0.576 0.225,-0.831c0.149,-0.255 0.351,-0.457 0.606,-0.607c0.255,-0.149 0.532,-0.224 0.831,-0.224c0.299,0 0.576,0.075 0.831,0.224c0.254,0.15 0.457,0.352 0.606,0.607c0.15,0.255 0.225,0.532 0.225,0.831Zm-1.615,-1.113c-0.179,0 -0.333,0.038 -0.463,0.114c-0.12,0.067 -0.227,0.172 -0.321,0.315c-0.014,0.018 -0.018,0.037 -0.014,0.057c0.005,0.02 0.016,0.037 0.034,0.051l0.234,0.174c0.014,0.013 0.032,0.019 0.054,0.017c0.022,-0.003 0.04,-0.013 0.054,-0.031c0.071,-0.085 0.127,-0.143 0.167,-0.174c0.063,-0.045 0.134,-0.067 0.215,-0.067c0.075,0 0.146,0.021 0.211,0.064c0.064,0.042 0.097,0.095 0.097,0.157c-0,0.049 -0.02,0.092 -0.061,0.128c-0.026,0.022 -0.078,0.055 -0.154,0.1l-0.013,0.007c-0.112,0.062 -0.19,0.118 -0.235,0.167c-0.08,0.085 -0.12,0.186 -0.12,0.302l-0,0.027c-0,0.022 0.008,0.041 0.023,0.057c0.016,0.015 0.035,0.023 0.057,0.023l0.375,0c0.023,0 0.042,-0.008 0.057,-0.023c0.016,-0.016 0.024,-0.035 0.024,-0.057l-0,-0.007c-0,-0.036 0.018,-0.067 0.053,-0.094c0.023,-0.018 0.065,-0.045 0.128,-0.08c0.116,-0.072 0.199,-0.134 0.248,-0.188c0.085,-0.094 0.127,-0.212 0.127,-0.355c0,-0.125 -0.038,-0.24 -0.114,-0.345c-0.076,-0.105 -0.174,-0.188 -0.295,-0.248c-0.12,-0.06 -0.243,-0.091 -0.368,-0.091Zm-0.047,1.662c-0.085,0 -0.158,0.03 -0.218,0.091c-0.06,0.06 -0.09,0.133 -0.09,0.218c-0,0.084 0.03,0.157 0.09,0.217c0.06,0.061 0.133,0.091 0.218,0.091c0.085,-0 0.157,-0.03 0.218,-0.091c0.06,-0.06 0.09,-0.133 0.09,-0.217c0,-0.085 -0.03,-0.158 -0.09,-0.218c-0.061,-0.061 -0.133,-0.091 -0.218,-0.091Z" style="fill:#61c861;fill-rule:nonzero;"/></g></svg>