<?xml version="1.0" encoding="UTF-8" standalone="no"?><!DOCTYPE svg PUBLIC "-//W3C//DTD SVG 1.1//EN" "http://www.w3.org/Graphics/SVG/1.1/DTD/svg11.dtd"><svg width="100%" height="100%" viewBox="0 0 48 48" version="1.1" xmlns="http://www.w3.org/2000/svg" xmlns:xlink="http://www.w3.org/1999/xlink" xml:space="preserve" xmlns:serif="http://www.serif.com/" style="fill-rule:evenodd;clip-rule:evenodd;stroke-linecap:round;stroke-linejoin:round;stroke-miterlimit:1.5;"><rect id="Artboard1" x="0" y="0" width="48" height="48" style="fill:none;"/><path d="M34.257,7.66c-0,-0.751 -0.299,-1.472 -0.83,-2.003c-0.531,-0.532 -1.252,-0.83 -2.004,-0.83l-13.566,-0c-0.751,-0 -1.472,0.298 -2.003,0.83c-0.532,0.531 -0.83,1.252 -0.83,2.003l-0,34.115c-0,0.751 0.298,1.472 0.83,2.003c0.531,0.532 1.252,0.83 2.003,0.83l13.566,0c0.752,0 1.473,-0.298 2.004,-0.83c0.531,-0.531 0.83,-1.252 0.83,-2.003l-0,-34.115Z" style="fill:#d3d3d3;"/><path d="M33.583,7.828c0,-0.616 -0.244,-1.206 -0.68,-1.641c-0.435,-0.436 -1.025,-0.68 -1.641,-0.68c-3.428,-0 -9.809,-0 -13.238,-0c-0.615,-0 -1.206,0.244 -1.641,0.68c-0.435,0.435 -0.68,1.025 -0.68,1.641c0,6.864 0,27.014 0,33.878c0,0.615 0.245,1.206 0.68,1.641c0.435,0.435 1.026,0.68 1.641,0.68c3.429,-0 9.81,-0 13.238,-0c0.616,-0 1.206,-0.245 1.641,-0.68c0.436,-0.435 0.68,-1.026 0.68,-1.641c0,-6.864 0,-27.014 0,-33.878Z" style="fill:#fff;"/><clipPath id="_clip1"><path d="M33.583,7.828c0,-0.616 -0.244,-1.206 -0.68,-1.641c-0.435,-0.436 -1.025,-0.68 -1.641,-0.68c-3.428,-0 -9.809,-0 -13.238,-0c-0.615,-0 -1.206,0.244 -1.641,0.68c-0.435,0.435 -0.68,1.025 -0.68,1.641c0,6.864 0,27.014 0,33.878c0,0.615 0.245,1.206 0.68,1.641c0.435,0.435 1.026,0.68 1.641,0.68c3.429,-0 9.81,-0 13.238,-0c0.616,-0 1.206,-0.245 1.641,-0.68c0.436,-0.435 0.68,-1.026 0.68,-1.641c0,-6.864 0,-27.014 0,-33.878Z"/></clipPath><g clip-path="url(#_clip1)"><path d="M15.179,27.315c0,-0 0.99,1.245 1.767,1.045c1.48,-0.382 1.398,-3.77 2.608,-4.028c1.004,-0.213 1.223,2.282 2.323,2.157c1.422,-0.161 1.851,-3.97 3.073,-3.929c0.841,0.029 0.701,1.187 1.325,1.335c0.555,0.131 1.003,-0.695 1.779,-0.366c0.633,0.268 0.311,2.57 1.431,2.523c1.121,-0.048 0.571,-5.232 1.995,-5.465c1.424,-0.234 1.053,2.449 3.137,2.252l1.651,24.151l-24.493,-0l3.404,-19.675Z" style="fill:#ecf6f2;"/><clipPath id="_clip2"><path d="M15.179,27.315c0,-0 0.99,1.245 1.767,1.045c1.48,-0.382 1.398,-3.77 2.608,-4.028c1.004,-0.213 1.223,2.282 2.323,2.157c1.422,-0.161 1.851,-3.97 3.073,-3.929c0.841,0.029 0.701,1.187 1.325,1.335c0.555,0.131 1.003,-0.695 1.779,-0.366c0.633,0.268 0.311,2.57 1.431,2.523c1.121,-0.048 0.571,-5.232 1.995,-5.465c1.424,-0.234 1.053,2.449 3.137,2.252l1.651,24.151l-24.493,-0l3.404,-19.675Z"/></clipPath><g clip-path="url(#_clip2)"><path d="M21.811,26.345l-0,8.403" style="fill:none;stroke:#007ef4;stroke-width:0.01px;"/><path d="M15.581,26.345l-0,8.403" style="fill:none;stroke:#007ef4;stroke-width:0.01px;"/><path d="M28.041,23.518l0,11.23" style="fill:none;stroke:#007ef4;stroke-width:0.01px;"/><path d="M24.933,22.56l-0,11.69" style="fill:none;stroke:#007ef4;stroke-width:0.01px;"/><path d="M18.702,22.56l0,11.69" style="fill:none;stroke:#007ef4;stroke-width:0.01px;"/><path d="M31.163,20.572l-0,13.678" style="fill:none;stroke:#007ef4;stroke-width:0.01px;"/></g><path d="M15.179,27.315c0,-0 0.99,1.245 1.767,1.045c1.48,-0.382 1.398,-3.77 2.608,-4.028c1.004,-0.213 1.223,2.282 2.323,2.157c1.422,-0.161 1.851,-3.97 3.073,-3.929c0.841,0.029 0.701,1.187 1.325,1.335c0.555,0.131 1.003,-0.695 1.779,-0.366c0.633,0.268 0.311,2.57 1.431,2.523c1.121,-0.048 0.571,-5.232 1.995,-5.465c1.424,-0.234 1.053,2.449 3.137,2.252l1.651,24.151l-24.493,-0l3.404,-19.675Z" style="fill:none;stroke:#61c861;stroke-width:0.29px;"/><path d="M33.554,33.924c-0,-0.506 -0.201,-0.992 -0.559,-1.35c-0.359,-0.358 -0.844,-0.56 -1.351,-0.56c-3.441,0 -10.644,0 -14.086,0c-0.506,0 -0.992,0.202 -1.35,0.56c-0.358,0.358 -0.56,0.844 -0.56,1.35c0,3.501 0,10.591 0,10.591l17.906,-0l-0,-10.591Z" style="fill:#fff;"/><path d="M17.915,41.597l0.501,0.289l-0,0.578l-0.501,0.289l-0.501,-0.289l0,-0.578l0.501,-0.289Z" style="fill:#56708c;"/><g><circle cx="30.825" cy="41.888" r="0.291" style="fill:none;stroke:#56708c;stroke-width:0.05px;"/><path d="M30.825,42.311c0.271,-0 0.49,0.185 0.49,0.413l-0.98,-0c0,-0.228 0.22,-0.413 0.49,-0.413Z" style="fill:none;stroke:#56708c;stroke-width:0.05px;"/></g><g><path d="M28.216,41.953c-0,-0.029 -0.012,-0.056 -0.032,-0.076c-0.02,-0.02 -0.047,-0.032 -0.076,-0.032l-0.855,0c-0.029,0 -0.056,0.012 -0.076,0.032c-0.02,0.02 -0.032,0.047 -0.032,0.076l0,0.601c0,0.029 0.012,0.056 0.032,0.076c0.02,0.02 0.047,0.032 0.076,0.032l0.855,-0c0.029,-0 0.056,-0.012 0.076,-0.032c0.02,-0.02 0.032,-0.047 0.032,-0.076l-0,-0.601Z" style="fill:none;stroke:#56708c;stroke-width:0.05px;"/><path d="M28.094,41.845l-0,-0.04c-0,-0.059 -0.048,-0.107 -0.108,-0.107c-0.182,-0 -0.551,-0 -0.733,-0c-0.059,-0 -0.108,0.048 -0.108,0.107c0,0.077 0,0.461 0,0.461" style="fill:none;stroke:#56708c;stroke-width:0.05px;"/><path d="M28.216,42.116l-0.283,-0c-0.033,-0 -0.065,0.013 -0.089,0.036c-0.023,0.024 -0.036,0.056 -0.036,0.089c-0,0.008 -0,0.015 -0,0.023c-0,0.033 0.013,0.065 0.036,0.089c0.024,0.023 0.056,0.036 0.089,0.036c0.12,0 0.283,0 0.283,0l-0,-0.273Z" style="fill:none;stroke:#56708c;stroke-width:0.05px;"/></g><g><path d="M24.199,41.701c-0.102,0.001 -0.201,0.033 -0.284,0.093c-0.222,0.16 -0.273,0.47 -0.113,0.692c0.159,0.223 0.47,0.274 0.692,0.114l-0.289,-0.403l-0.006,-0.496Z" style="fill:none;stroke:#56708c;stroke-width:0.05px;"/><path d="M24.658,42.625c0.121,-0.102 0.191,-0.258 0.19,-0.424l-0.491,0.003c0,0.001 -0,0.002 -0.001,0.003l0.302,0.418Z" style="fill:none;stroke:#56708c;stroke-width:0.05px;"/><path d="M24.832,42.09c-0.001,-0.271 -0.234,-0.49 -0.519,-0.488l0.004,0.492l0.515,-0.004Z" style="fill:none;stroke:#56708c;stroke-width:0.05px;"/></g><path d="M21.153,42.33l-0.165,-0c-0.018,-0 -0.035,0.007 -0.048,0.02c-0.013,0.012 -0.02,0.03 -0.02,0.048c0,0.116 0,0.341 0,0.341l-0.171,-0c-0.019,-0 -0.037,-0.008 -0.05,-0.021c-0.014,-0.013 -0.021,-0.032 -0.021,-0.05c-0,-0.138 -0,-0.426 -0,-0.426l-0.122,0c-0.021,0 -0.04,-0.012 -0.048,-0.032c-0.008,-0.02 -0.004,-0.042 0.011,-0.057c0.176,-0.178 0.551,-0.558 0.551,-0.558c0,-0 0.376,0.38 0.552,0.558c0.015,0.015 0.019,0.037 0.011,0.057c-0.008,0.02 -0.027,0.032 -0.049,0.032c-0.061,0 -0.121,0 -0.121,0l0,0.426c0,0.018 -0.007,0.037 -0.021,0.05c-0.013,0.013 -0.031,0.021 -0.05,0.021c-0.072,-0 -0.171,-0 -0.171,-0l-0,-0.341c-0,-0.018 -0.008,-0.036 -0.02,-0.048c-0.013,-0.013 -0.03,-0.02 -0.048,-0.02Z" style="fill:none;stroke:#56708c;stroke-width:0.05px;"/><text x="18.103px" y="15.11px" style="font-family:'Montserrat-Regular', 'Montserrat';font-size:3.331px;fill:#56708c;">£95<tspan x="24.025px 25.811px " y="15.11px 15.11px ">7.</tspan>80</text><path d="M31.209,7.825c-0.056,-0.005 -0.113,-0.005 -0.17,0l-0.065,0.219c-0.046,0.011 -0.091,0.028 -0.134,0.049l-0.191,-0.126c-0.047,0.032 -0.09,0.069 -0.13,0.11l0.091,0.209c-0.028,0.038 -0.052,0.08 -0.072,0.124l-0.226,0.026c-0.016,0.054 -0.026,0.11 -0.03,0.167l0.204,0.102c0.003,0.048 0.012,0.095 0.025,0.141l-0.157,0.166c0.023,0.051 0.052,0.101 0.085,0.147l0.222,-0.054c0.033,0.035 0.07,0.066 0.11,0.093l-0.014,0.227c0.051,0.025 0.105,0.045 0.16,0.059l0.135,-0.184c0.048,0.006 0.096,0.006 0.144,0l0.135,0.184c0.056,-0.014 0.109,-0.034 0.16,-0.059l-0.014,-0.227c0.04,-0.027 0.077,-0.058 0.11,-0.093l0.222,0.054c0.033,-0.046 0.062,-0.096 0.085,-0.147l-0.157,-0.166c0.014,-0.046 0.022,-0.093 0.025,-0.141l0.204,-0.102c-0.004,-0.057 -0.014,-0.113 -0.029,-0.167l-0.227,-0.026c-0.019,-0.044 -0.043,-0.086 -0.072,-0.124l0.091,-0.209c-0.039,-0.041 -0.083,-0.078 -0.13,-0.11l-0.19,0.126c-0.043,-0.021 -0.088,-0.038 -0.135,-0.049l-0.065,-0.219Zm-0.085,0.571c0.149,0 0.269,0.121 0.269,0.269c0,0.149 -0.12,0.269 -0.269,0.269c-0.148,0 -0.269,-0.12 -0.269,-0.269c0,-0.148 0.121,-0.269 0.269,-0.269Z" style="fill:none;stroke:#56708c;stroke-width:0.11px;"/><circle cx="20.455" cy="18.253" r="1.549" style="fill:#56708c;"/><clipPath id="_clip3"><circle cx="20.455" cy="18.253" r="1.549"/></clipPath><g clip-path="url(#_clip3)"><path d="M20.454,18.943l0,-1.381l0.607,0.607l-0.607,-0.607l-0.582,0.583" style="fill:none;stroke:#fff;stroke-width:0.22px;"/></g><path d="M25.751,17.157c0.604,0.605 0.604,1.587 -0,2.191c-0.605,0.605 -1.587,0.605 -2.191,0c-0.605,-0.604 -0.605,-1.586 -0,-2.191c0.604,-0.604 1.586,-0.604 2.191,0Z" style="fill:#56708c;"/><clipPath id="_clip4"><path d="M25.751,17.157c0.604,0.605 0.604,1.587 -0,2.191c-0.605,0.605 -1.587,0.605 -2.191,0c-0.605,-0.604 -0.605,-1.586 -0,-2.191c0.604,-0.604 1.586,-0.604 2.191,0Z"/></clipPath><g clip-path="url(#_clip4)"><path d="M24.167,18.741l0.976,-0.976l-0,0.858l-0,-0.858l-0.824,-0" style="fill:none;stroke:#fff;stroke-width:0.22px;"/></g><path d="M30.405,18.253c0,0.855 -0.694,1.549 -1.549,1.549c-0.855,0 -1.549,-0.694 -1.549,-1.549c-0,-0.855 0.694,-1.549 1.549,-1.549c0.855,-0 1.549,0.694 1.549,1.549Z" style="fill:#56708c;"/><clipPath id="_clip5"><path d="M30.405,18.253c0,0.855 -0.694,1.549 -1.549,1.549c-0.855,0 -1.549,-0.694 -1.549,-1.549c-0,-0.855 0.694,-1.549 1.549,-1.549c0.855,-0 1.549,0.694 1.549,1.549Z"/></clipPath><g clip-path="url(#_clip5)"><path d="M28.166,18.054l1.38,-0l-0.582,-0.582" style="fill:none;stroke:#fff;stroke-width:0.22px;"/><path d="M29.546,18.452l-1.38,0l0.582,0.583" style="fill:none;stroke:#fff;stroke-width:0.22px;"/></g><circle cx="21.811" cy="26.345" r="0.417" style="fill:#61c861;stroke:#fff;stroke-width:0.29px;"/><circle cx="28.057" cy="23.478" r="0.417" style="fill:#61c861;stroke:#fff;stroke-width:0.29px;"/><g><circle cx="17.676" cy="34.849" r="0.977" style="fill:#ffaf2e;"/><clipPath id="_clip6"><circle cx="17.676" cy="34.849" r="0.977"/></clipPath><g clip-path="url(#_clip6)"><g><g transform="matrix(0.878,0.107437,-0.121459,0.992596,-0.191244,-0.596056)"><text x="24.451px" y="33.47px" style="font-family:'Montserrat-Bold', 'Montserrat';font-weight:700;font-size:1.251px;fill:#fff;">B</text></g><path d="M17.688,34.251l-0.119,-0.014l-0.026,0.214l0.119,0.015l0.026,-0.215Z" style="fill:#fff;"/><path d="M17.565,35.259l-0.119,-0.015l-0.026,0.215l0.118,0.014l0.027,-0.214Z" style="fill:#fff;"/><path d="M17.902,34.278l-0.119,-0.015l-0.026,0.215l0.118,0.014l0.027,-0.214Z" style="fill:#fff;"/><path d="M17.778,35.285l-0.118,-0.015l-0.026,0.215l0.118,0.015l0.026,-0.215Z" style="fill:#fff;"/></g></g><text x="19.515px" y="34.39px" style="font-family:'Montserrat-ExtraBold', 'Montserrat';font-weight:800;font-size:0.687px;fill:#070707;">BITCOIN</text><text x="19.468px" y="35.854px" style="font-family:'Montserrat-Regular', 'Montserrat';font-size:1.512px;">0.05041</text><text x="29.385px" y="35.231px" style="font-family:'Montserrat-Regular', 'Montserrat';font-size:1.039px;">5.71%</text><path d="M28.757,35.19l0,-0.691l0.304,0.304l-0.304,-0.304l-0.292,0.292" style="fill:none;stroke:#30ff9e;stroke-width:0.08px;"/></g><g><circle cx="17.676" cy="38.044" r="0.977" style="fill:#4891e5;"/><clipPath id="_clip7"><circle cx="17.676" cy="38.044" r="0.977"/></clipPath><g clip-path="url(#_clip7)"><path d="M17.876,37.36l-0.68,0.76l0.553,-0l-0.187,0.609l0.581,-0.806l-0.516,-0l0.249,-0.563Z" style="fill:#fff;"/></g><text x="19.515px" y="37.585px" style="font-family:'Montserrat-ExtraBold', 'Montserrat';font-weight:800;font-size:0.687px;fill:#070707;">LIGHTNING</text><text x="19.468px" y="39.049px" style="font-family:'Montserrat-Regular', 'Montserrat';font-size:1.512px;">0.000450001</text></g><path d="M27.138,6.839c-0,-0.378 -0.307,-0.685 -0.685,-0.685c-0.946,0 -2.643,0 -3.589,0c-0.378,0 -0.685,0.307 -0.685,0.685c-0,0 -0,0 -0,0c-0,0.379 0.307,0.685 0.685,0.685c0.946,0 2.643,0 3.589,0c0.378,0 0.685,-0.306 0.685,-0.685c-0,0 -0,0 -0,0Z" style="fill:#d4d4d4;"/></g><circle cx="16.23" cy="20.408" r="4.455" style="fill:none;"/><clipPath id="_clip8"><circle cx="16.23" cy="20.408" r="4.455"/></clipPath><g clip-path="url(#_clip8)"><g><path d="M15.648,15.397l0,10.76" style="fill:none;stroke:#61c861;stroke-width:0.13px;"/><path d="M26.408,16.078l-10.76,-0" style="fill:none;stroke:#61c861;stroke-width:0.13px;"/><path d="M16.432,15.397l-0,10.76" style="fill:none;stroke:#61c861;stroke-width:0.13px;"/><path d="M26.408,16.861l-10.76,-0" style="fill:none;stroke:#61c861;stroke-width:0.13px;"/><path d="M17.215,15.397l-0,10.76" style="fill:none;stroke:#61c861;stroke-width:0.13px;"/><path d="M26.408,17.644l-10.76,0" style="fill:none;stroke:#61c861;stroke-width:0.13px;"/><path d="M17.998,15.397l-0,10.76" style="fill:none;stroke:#61c861;stroke-width:0.13px;"/><path d="M26.408,18.427l-10.76,0" style="fill:none;stroke:#61c861;stroke-width:0.13px;"/><path d="M18.781,15.397l0,10.76" style="fill:none;stroke:#61c861;stroke-width:0.13px;"/><path d="M26.408,19.21l-10.76,0" style="fill:none;stroke:#61c861;stroke-width:0.13px;"/><path d="M19.564,15.397l0,10.76" style="fill:none;stroke:#61c861;stroke-width:0.13px;"/><path d="M26.408,19.994l-10.76,-0" style="fill:none;stroke:#61c861;stroke-width:0.13px;"/><path d="M20.348,15.397l-0,10.76" style="fill:none;stroke:#61c861;stroke-width:0.13px;"/><path d="M26.408,20.777l-10.76,-0" style="fill:none;stroke:#61c861;stroke-width:0.13px;"/><path d="M21.131,15.397l-0,10.76" style="fill:none;stroke:#61c861;stroke-width:0.13px;"/><path d="M26.408,21.56l-10.76,-0" style="fill:none;stroke:#61c861;stroke-width:0.13px;"/><path d="M21.914,15.397l-0,10.76" style="fill:none;stroke:#61c861;stroke-width:0.13px;"/><path d="M26.408,22.343l-10.76,0" style="fill:none;stroke:#61c861;stroke-width:0.13px;"/><path d="M22.697,15.397l0,10.76" style="fill:none;stroke:#61c861;stroke-width:0.13px;"/><path d="M26.408,23.126l-10.76,0" style="fill:none;stroke:#61c861;stroke-width:0.13px;"/><path d="M23.48,15.397l0,10.76" style="fill:none;stroke:#61c861;stroke-width:0.13px;"/><path d="M26.408,23.909l-10.76,0" style="fill:none;stroke:#61c861;stroke-width:0.13px;"/><path d="M24.263,15.397l0,10.76" style="fill:none;stroke:#61c861;stroke-width:0.13px;"/><path d="M26.408,24.693l-10.76,-0" style="fill:none;stroke:#61c861;stroke-width:0.13px;"/><path d="M25.047,15.397l-0,10.76" style="fill:none;stroke:#61c861;stroke-width:0.13px;"/><path d="M26.408,25.476l-10.76,-0" style="fill:none;stroke:#61c861;stroke-width:0.13px;"/></g><circle cx="20.455" cy="18.253" r="1.549" style="fill:#61c861;"/></g><circle cx="16.23" cy="20.408" r="4.455" style="fill:none;stroke:#61c861;stroke-width:0.22px;"/><circle cx="33.554" cy="30.009" r="4.455" style="fill:none;"/><clipPath id="_clip9"><circle cx="33.554" cy="30.009" r="4.455"/></clipPath><g clip-path="url(#_clip9)"><g><path d="M33.554,35.388l-0,-10.759" style="fill:none;stroke:#61c861;stroke-width:0.13px;"/><path d="M22.794,34.708l10.76,-0" style="fill:none;stroke:#61c861;stroke-width:0.13px;"/><path d="M32.771,35.388l-0,-10.759" style="fill:none;stroke:#61c861;stroke-width:0.13px;"/><path d="M22.794,33.924l10.76,0" style="fill:none;stroke:#61c861;stroke-width:0.13px;"/><path d="M31.988,35.388l-0,-10.759" style="fill:none;stroke:#61c861;stroke-width:0.13px;"/><path d="M22.794,33.141l10.76,0" style="fill:none;stroke:#61c861;stroke-width:0.13px;"/><path d="M31.204,35.388l0,-10.759" style="fill:none;stroke:#61c861;stroke-width:0.13px;"/><path d="M22.794,32.358l10.76,0" style="fill:none;stroke:#61c861;stroke-width:0.13px;"/><path d="M30.421,35.388l0,-10.759" style="fill:none;stroke:#61c861;stroke-width:0.13px;"/><path d="M22.794,31.575l10.76,-0" style="fill:none;stroke:#61c861;stroke-width:0.13px;"/><path d="M29.638,35.388l0,-10.759" style="fill:none;stroke:#61c861;stroke-width:0.13px;"/><path d="M22.794,30.792l10.76,-0" style="fill:none;stroke:#61c861;stroke-width:0.13px;"/><path d="M28.855,35.388l-0,-10.759" style="fill:none;stroke:#61c861;stroke-width:0.13px;"/><path d="M22.794,30.009l10.76,-0" style="fill:none;stroke:#61c861;stroke-width:0.13px;"/><path d="M28.072,35.388l-0,-10.759" style="fill:none;stroke:#61c861;stroke-width:0.13px;"/><path d="M22.794,29.225l10.76,0" style="fill:none;stroke:#61c861;stroke-width:0.13px;"/><path d="M27.289,35.388l-0,-10.759" style="fill:none;stroke:#61c861;stroke-width:0.13px;"/><path d="M22.794,28.442l10.76,0" style="fill:none;stroke:#61c861;stroke-width:0.13px;"/><path d="M26.505,35.388l0,-10.759" style="fill:none;stroke:#61c861;stroke-width:0.13px;"/><path d="M22.794,27.659l10.76,0" style="fill:none;stroke:#61c861;stroke-width:0.13px;"/><path d="M25.722,35.388l0,-10.759" style="fill:none;stroke:#61c861;stroke-width:0.13px;"/><path d="M22.794,26.876l10.76,-0" style="fill:none;stroke:#61c861;stroke-width:0.13px;"/><path d="M24.939,35.388l0,-10.759" style="fill:none;stroke:#61c861;stroke-width:0.13px;"/><path d="M22.794,26.093l10.76,-0" style="fill:none;stroke:#61c861;stroke-width:0.13px;"/><path d="M24.156,35.388l-0,-10.759" style="fill:none;stroke:#61c861;stroke-width:0.13px;"/><path d="M22.794,25.309l10.76,0" style="fill:none;stroke:#61c861;stroke-width:0.13px;"/></g><path d="M33.554,33.924c-0,-0.506 -0.201,-0.992 -0.559,-1.35c-0.359,-0.358 -0.844,-0.56 -1.351,-0.56c-3.441,0 -10.644,0 -14.086,0c-0.506,0 -0.992,0.202 -1.35,0.56c-0.358,0.358 -0.56,0.844 -0.56,1.35c0,3.501 0,10.591 0,10.591l17.906,-0l-0,-10.591Z" style="fill:#61c861;"/></g><circle cx="33.554" cy="30.009" r="4.455" style="fill:none;stroke:#61c861;stroke-width:0.22px;"/><path d="M7.655,8.019l-0,10.974c-0,0.375 0.149,0.735 0.414,1c0.266,0.265 0.626,0.415 1.001,0.415l2.705,-0" style="fill:none;stroke:#61c861;stroke-width:0.13px;"/><path d="M42.179,23.814l-0,4.78c-0,0.781 -0.634,1.415 -1.415,1.415c-1.209,-0 -2.755,-0 -2.755,-0" style="fill:none;stroke:#61c861;stroke-width:0.13px;"/><path d="M17.079,3.192c0,-0.256 -0.101,-0.501 -0.282,-0.682c-0.181,-0.181 -0.426,-0.282 -0.682,-0.282l-12.081,-0c-0.256,-0 -0.502,0.101 -0.682,0.282c-0.181,0.181 -0.283,0.426 -0.283,0.682l0,3.863c0,0.255 0.102,0.501 0.283,0.681c0.18,0.181 0.426,0.283 0.682,0.283l12.081,-0c0.256,-0 0.501,-0.102 0.682,-0.283c0.181,-0.18 0.282,-0.426 0.282,-0.681l0,-3.863Z" style="fill:#fff;"/><clipPath id="_clip10"><path d="M17.079,3.192c0,-0.256 -0.101,-0.501 -0.282,-0.682c-0.181,-0.181 -0.426,-0.282 -0.682,-0.282l-12.081,-0c-0.256,-0 -0.502,0.101 -0.682,0.282c-0.181,0.181 -0.283,0.426 -0.283,0.682l0,3.863c0,0.255 0.102,0.501 0.283,0.681c0.18,0.181 0.426,0.283 0.682,0.283l12.081,-0c0.256,-0 0.501,-0.102 0.682,-0.283c0.181,-0.18 0.282,-0.426 0.282,-0.681l0,-3.863Z"/></clipPath><g clip-path="url(#_clip10)"><text x="4.5px" y="6.411px" style="font-family:'FontAwesome5FreeSolid', 'Font Awesome 5 Free';font-size:3.431px;fill:#61c861;"></text><rect x="9.715" y="3.407" width="6.198" height="0.602" style="fill:#61c861;"/><rect x="9.715" y="4.822" width="3.842" height="0.301" style="fill:#61c861;"/><rect x="9.715" y="5.501" width="3.842" height="0.301" style="fill:#61c861;"/><rect x="9.715" y="6.18" width="3.842" height="0.301" style="fill:#61c861;"/></g><path d="M45.156,19.202c0,-0.256 -0.101,-0.501 -0.282,-0.682c-0.181,-0.181 -0.426,-0.283 -0.682,-0.283c-1.109,0 -2.918,0 -4.026,0c-0.256,0 -0.501,0.102 -0.682,0.283c-0.181,0.181 -0.283,0.426 -0.283,0.682c0,1.071 0,2.791 0,3.862c0,0.256 0.102,0.501 0.283,0.682c0.181,0.181 0.426,0.282 0.682,0.282c1.108,0 2.917,0 4.026,0c0.256,0 0.501,-0.101 0.682,-0.282c0.181,-0.181 0.282,-0.426 0.282,-0.682c0,-1.071 0,-2.791 0,-3.862Z" style="fill:#fff;"/><clipPath id="_clip11"><path d="M45.156,19.202c0,-0.256 -0.101,-0.501 -0.282,-0.682c-0.181,-0.181 -0.426,-0.283 -0.682,-0.283c-1.109,0 -2.918,0 -4.026,0c-0.256,0 -0.501,0.102 -0.682,0.283c-0.181,0.181 -0.283,0.426 -0.283,0.682c0,1.071 0,2.791 0,3.862c0,0.256 0.102,0.501 0.283,0.682c0.181,0.181 0.426,0.282 0.682,0.282c1.108,0 2.917,0 4.026,0c0.256,0 0.501,-0.101 0.682,-0.282c0.181,-0.181 0.282,-0.426 0.282,-0.682c0,-1.071 0,-2.791 0,-3.862Z"/></clipPath><g clip-path="url(#_clip11)"><text x="40.463px" y="22.419px" style="font-family:'FontAwesome5FreeSolid', 'Font Awesome 5 Free';font-size:3.431px;fill:#61c861;"></text></g></svg>