<?xml version="1.0" encoding="UTF-8" standalone="no"?><!DOCTYPE svg PUBLIC "-//W3C//DTD SVG 1.1//EN" "http://www.w3.org/Graphics/SVG/1.1/DTD/svg11.dtd"><svg width="100%" height="100%" viewBox="0 0 471 70" version="1.1" xmlns="http://www.w3.org/2000/svg" xmlns:xlink="http://www.w3.org/1999/xlink" xml:space="preserve" xmlns:serif="http://www.serif.com/" style="fill-rule:evenodd;clip-rule:evenodd;stroke-linejoin:round;stroke-miterlimit:2;"><rect id="Artboard2" x="0" y="-0" width="470.284" height="69.399" style="fill:none;"/><clipPath id="_clip1"><rect x="0" y="-0" width="470.284" height="69.399"/></clipPath><g clip-path="url(#_clip1)"><g><path d="M44.231,54.247l-2.812,-0l-10.766,-37.785c-0.891,-3.086 -1.577,-5.623 -1.989,-7.612c-0.342,1.92 -0.891,4.183 -1.508,6.72c-0.686,2.469 -4.252,15.361 -10.835,38.677l-2.88,-0l-13.441,-48.963l3.566,0l8.572,31.545c0.343,1.302 0.686,2.468 0.96,3.565c0.274,1.029 0.548,2.058 0.754,3.018c0.275,0.96 0.48,1.851 0.686,2.743c0.137,0.891 0.343,1.783 0.48,2.674c0.549,-3.017 1.714,-7.68 3.429,-13.852l8.366,-29.693l3.772,0l9.806,34.082c1.166,3.909 1.989,7.132 2.469,9.532c0.274,-1.646 0.685,-3.292 1.097,-5.143c0.48,-1.783 3.909,-14.607 10.355,-38.471l3.428,0l-13.509,48.963Z" style="fill:#fff;fill-rule:nonzero;"/><path d="M86.273,54.247l-0.822,-5.761l-0.275,0c-1.851,2.332 -3.703,3.978 -5.623,5.006c-1.92,0.96 -4.252,1.44 -6.857,1.44c-3.566,0 -6.378,-0.96 -8.367,-2.743c-1.988,-1.851 -2.948,-4.388 -2.948,-7.611c-0,-3.566 1.44,-6.309 4.457,-8.298c2.949,-1.92 7.2,-3.017 12.824,-3.086l6.926,-0.206l-0,-2.4c-0,-3.497 -0.686,-6.103 -2.126,-7.817c-1.372,-1.783 -3.635,-2.675 -6.789,-2.675c-3.36,0 -6.858,0.96 -10.492,2.812l-1.234,-2.88c3.977,-1.852 7.954,-2.812 11.863,-2.812c3.977,0 6.995,1.029 8.983,3.086c1.921,2.126 2.949,5.349 2.949,9.738l0,24.207l-2.469,-0Zm-13.372,-2.332c3.84,0 6.926,-1.097 9.189,-3.36c2.263,-2.195 3.361,-5.28 3.361,-9.258l-0,-3.566l-6.378,0.275c-5.075,0.205 -8.778,1.028 -10.903,2.4c-2.195,1.303 -3.292,3.429 -3.292,6.309c-0,2.263 0.686,4.046 2.126,5.28c1.371,1.303 3.36,1.92 5.897,1.92Z" style="fill:#fff;fill-rule:nonzero;"/><rect x="100.52" y="2.13" width="3.292" height="52.117" style="fill:#fff;"/><rect x="116.024" y="2.13" width="3.292" height="52.117" style="fill:#fff;"/><path d="M146.203,54.932c-5.281,0 -9.395,-1.645 -12.344,-4.937c-2.949,-3.223 -4.457,-7.818 -4.457,-13.646c-0,-5.829 1.44,-10.492 4.32,-13.99c2.811,-3.497 6.652,-5.211 11.521,-5.211c4.32,-0 7.68,1.508 10.149,4.457c2.468,3.017 3.703,7.063 3.703,12.206l-0,2.675l-26.196,-0c0.069,5.006 1.234,8.846 3.497,11.452c2.263,2.674 5.555,3.977 9.807,3.977c2.057,0 3.908,-0.137 5.486,-0.48c1.577,-0.274 3.566,-0.891 5.966,-1.852l-0,3.018c-2.058,0.891 -3.909,1.508 -5.692,1.851c-1.714,0.275 -3.635,0.48 -5.76,0.48Zm-0.96,-34.836c-3.498,0 -6.309,1.166 -8.435,3.429c-2.126,2.332 -3.36,5.692 -3.703,10.012l22.492,-0c0,-4.183 -0.891,-7.475 -2.743,-9.875c-1.851,-2.4 -4.388,-3.566 -7.611,-3.566Z" style="fill:#fff;fill-rule:nonzero;"/><path d="M178.764,51.984c2.126,-0 3.909,-0.206 5.486,-0.549l0,2.674c-1.577,0.549 -3.428,0.823 -5.554,0.823c-3.223,0 -5.555,-0.891 -7.132,-2.606c-1.509,-1.714 -2.263,-4.388 -2.263,-8.091l0,-23.522l-5.417,0l-0,-1.92l5.417,-1.508l1.646,-8.229l1.714,-0l0,8.777l10.698,0l-0,2.88l-10.698,0l0,23.042c0,2.811 0.48,4.868 1.509,6.171c0.96,1.372 2.469,2.058 4.594,2.058Z" style="fill:#fff;fill-rule:nonzero;"/></g><g><path d="M228.318,6.172l0,9.238c-3.786,-2.271 -7.799,-3.407 -12.115,-3.407c-2.347,-0 -4.24,0.53 -5.528,1.59c-1.363,1.06 -2.044,2.423 -2.044,4.089c-0,1.666 0.757,3.029 2.196,4.089c1.438,1.136 3.559,2.347 6.436,3.634c2.044,0.909 3.635,1.666 4.922,2.348c1.287,0.681 2.65,1.665 4.164,2.877c1.439,1.212 2.575,2.65 3.332,4.316c0.682,1.742 1.06,3.635 1.06,5.831c0,4.543 -1.59,8.177 -4.846,10.827c-3.256,2.726 -7.572,4.089 -12.872,4.089c-5.755,0 -10.526,-1.06 -14.312,-3.256l0,-9.767c4.316,3.104 9.087,4.694 14.236,4.694c2.347,0 4.164,-0.606 5.603,-1.741c1.439,-1.06 2.12,-2.651 2.12,-4.544c0,-0.908 -0.151,-1.741 -0.53,-2.423c-0.378,-0.681 -1.06,-1.438 -2.12,-2.12c-1.136,-0.681 -1.969,-1.211 -2.499,-1.514c-0.605,-0.303 -1.817,-0.833 -3.634,-1.666c-0.53,-0.227 -0.909,-0.454 -1.136,-0.53c-1.893,-0.833 -3.407,-1.666 -4.543,-2.347c-1.136,-0.682 -2.423,-1.591 -3.786,-2.726c-1.363,-1.136 -2.423,-2.575 -3.029,-4.165c-0.682,-1.59 -1.06,-3.483 -1.06,-5.528c-0,-4.316 1.59,-7.799 4.846,-10.449c3.18,-2.65 7.421,-3.937 12.721,-3.937c4.77,-0 8.935,0.833 12.418,2.498Z" style="fill:#fff;fill-rule:nonzero;"/><path d="M246.037,36.006c0.075,3.635 1.211,6.588 3.331,8.784c2.045,2.196 4.922,3.331 8.481,3.331c3.105,0 6.058,-0.833 8.708,-2.574l-0,7.875c-2.65,1.59 -5.982,2.347 -9.995,2.347c-5.906,0 -10.677,-1.893 -14.311,-5.603c-3.711,-3.71 -5.528,-8.481 -5.528,-14.16c0.076,-5.603 1.893,-10.298 5.528,-14.16c3.559,-3.861 8.48,-5.754 14.765,-5.754c3.71,-0 6.891,0.681 9.541,2.12l-0,8.026c-2.499,-1.59 -5.376,-2.423 -8.632,-2.423c-3.559,0 -6.361,1.136 -8.557,3.332c-2.195,2.196 -3.256,5.149 -3.331,8.859Z" style="fill:#fff;fill-rule:nonzero;"/><path d="M283.443,16.698l-0,6.814c1.741,-4.77 4.997,-7.117 9.692,-7.117c1.06,-0 1.893,0.075 2.574,0.227l0,8.783c-1.135,-0.53 -2.423,-0.757 -3.861,-0.757c-2.499,0 -4.468,0.984 -6.058,3.029c-1.59,2.044 -2.347,4.543 -2.347,7.572l-0,19.839l-9.163,-0l0.076,-38.39l9.087,-0Z" style="fill:#fff;fill-rule:nonzero;"/><path d="M324.862,16.698l9.162,-0l-0,38.39l-9.162,-0l-0,-6.285c-2.045,4.467 -5.982,6.663 -11.813,6.663c-3.861,0 -6.89,-1.136 -9.086,-3.331c-2.196,-2.196 -3.256,-5.377 -3.256,-9.465l-0,-25.972l9.086,-0l0,23.851c0,2.423 0.606,4.241 1.818,5.528c1.135,1.287 2.801,1.893 4.846,1.893c2.65,-0 4.694,-0.909 6.209,-2.65c1.439,-1.742 2.196,-4.468 2.196,-8.027l-0,-20.595Z" style="fill:#fff;fill-rule:nonzero;"/><path d="M354.923,23.512l-0,19.536c-0,1.59 0.454,2.802 1.287,3.635c0.833,0.908 2.044,1.287 3.559,1.287c1.893,-0 3.71,-0.53 5.3,-1.59l0,7.799c-1.741,0.833 -4.013,1.287 -6.815,1.287c-8.253,0 -12.418,-4.164 -12.418,-12.569l0,-19.385l-5.754,0l-0,-6.814l5.754,-0l0,-9.238l9.087,-0l-0,9.238l9.541,-0l-0,6.814l-9.541,0Z" style="fill:#fff;fill-rule:nonzero;"/><path d="M372.944,55.088l0,-31.424l9.087,-0l-0,31.424l-9.087,-0Zm-0.908,-41.874c-0,-1.514 0.53,-2.801 1.59,-3.861c1.06,-1.06 2.347,-1.59 3.861,-1.59c1.515,-0 2.802,0.53 3.862,1.59c1.06,1.06 1.59,2.347 1.59,3.861c0,1.591 -0.53,2.878 -1.59,3.938c-1.06,1.06 -2.347,1.59 -3.862,1.59c-1.514,-0 -2.801,-0.53 -3.861,-1.59c-1.06,-1.06 -1.59,-2.347 -1.59,-3.938Z" style="fill:#fff;fill-rule:nonzero;"/><path d="M401.339,16.698l0,6.587c2.196,-4.694 6.134,-7.042 11.813,-7.042c3.862,0 6.89,1.136 9.086,3.483c2.196,2.348 3.332,5.604 3.332,9.844l-0,25.518l-9.087,-0l0,-23.625c0,-2.499 -0.605,-4.468 -1.817,-5.755c-1.211,-1.287 -2.877,-1.893 -4.922,-1.893c-2.347,0 -4.391,0.909 -5.982,2.726c-1.59,1.893 -2.423,4.543 -2.423,7.951l0,20.596l-9.086,-0l-0,-38.39l9.086,-0Z" style="fill:#fff;fill-rule:nonzero;"/><path d="M445.712,54.33l-15.144,-37.632l10.07,-0l4.468,12.266c1.363,3.635 2.499,6.664 3.332,9.162c0.832,2.499 1.287,4.013 1.514,4.695l0.227,1.06c0.53,-1.742 2.12,-6.739 4.846,-14.917l4.013,-12.266l9.541,-0l-13.857,37.33c-3.861,10.222 -9.692,15.371 -17.567,15.371c-1.439,-0 -2.726,-0.152 -3.786,-0.379l0,-7.496c0.833,0.227 1.666,0.303 2.575,0.303c4.619,-0 7.875,-2.499 9.768,-7.497Z" style="fill:#fff;fill-rule:nonzero;"/></g></g></svg>