<?xml version="1.0" encoding="UTF-8" standalone="no"?>
<!DOCTYPE svg PUBLIC "-//W3C//DTD SVG 1.1//EN" "http://www.w3.org/Graphics/SVG/1.1/DTD/svg11.dtd">
<svg width="100%" height="100%" viewBox="0 0 561 290" version="1.1" xmlns="http://www.w3.org/2000/svg" xmlns:xlink="http://www.w3.org/1999/xlink" xml:space="preserve" xmlns:serif="http://www.serif.com/" style="fill-rule:evenodd;clip-rule:evenodd;stroke-linejoin:round;stroke-miterlimit:2;">
    <g transform="matrix(1,0,0,1,-1296.4,-654.128)">
        <g id="Artboard8" transform="matrix(1.88124,0,0,0.969631,43.3281,342.856)">
            <rect x="666.085" y="321.022" width="298.069" height="298.069" style="fill:none;"/>
            <g transform="matrix(1.13903,0,0,1.10076,-120.027,-45.9783)">
                <g transform="matrix(0.909027,0,0,1.82497,38.662,-366.828)">
                    <g transform="matrix(64,0,0,64,763.754,514.244)">
                        <path d="M0.445,-0.646L0.445,-0.524C0.395,-0.554 0.342,-0.569 0.285,-0.569C0.254,-0.569 0.229,-0.562 0.212,-0.548C0.194,-0.534 0.185,-0.516 0.185,-0.494C0.185,-0.472 0.195,-0.454 0.214,-0.44C0.233,-0.425 0.261,-0.409 0.299,-0.392C0.326,-0.38 0.347,-0.37 0.364,-0.361C0.381,-0.352 0.399,-0.339 0.419,-0.323C0.438,-0.307 0.453,-0.288 0.463,-0.266C0.472,-0.243 0.477,-0.218 0.477,-0.189C0.477,-0.129 0.456,-0.081 0.413,-0.046C0.37,-0.01 0.313,0.008 0.243,0.008C0.167,0.008 0.104,-0.006 0.054,-0.035L0.054,-0.164C0.111,-0.123 0.174,-0.102 0.242,-0.102C0.273,-0.102 0.297,-0.11 0.316,-0.125C0.335,-0.139 0.344,-0.16 0.344,-0.185C0.344,-0.197 0.342,-0.208 0.337,-0.217C0.332,-0.226 0.323,-0.236 0.309,-0.245C0.294,-0.254 0.283,-0.261 0.276,-0.265C0.268,-0.269 0.252,-0.276 0.228,-0.287C0.221,-0.29 0.216,-0.293 0.213,-0.294C0.188,-0.305 0.168,-0.316 0.153,-0.325C0.138,-0.334 0.121,-0.346 0.103,-0.361C0.085,-0.376 0.071,-0.395 0.063,-0.416C0.054,-0.437 0.049,-0.462 0.049,-0.489C0.049,-0.546 0.07,-0.592 0.113,-0.627C0.155,-0.662 0.211,-0.679 0.281,-0.679C0.344,-0.679 0.399,-0.668 0.445,-0.646Z" style="fill-rule:nonzero;"/>
                    </g>
                    <g transform="matrix(64,0,0,64,796.906,514.244)">
                        <path d="M0.161,-0.252C0.162,-0.204 0.177,-0.165 0.205,-0.136C0.232,-0.107 0.27,-0.092 0.317,-0.092C0.358,-0.092 0.397,-0.103 0.432,-0.126L0.432,-0.022C0.397,-0.001 0.353,0.009 0.3,0.009C0.222,0.009 0.159,-0.016 0.111,-0.065C0.062,-0.114 0.038,-0.177 0.038,-0.252C0.039,-0.326 0.063,-0.388 0.111,-0.439C0.158,-0.49 0.223,-0.515 0.306,-0.515C0.355,-0.515 0.397,-0.506 0.432,-0.487L0.432,-0.381C0.399,-0.402 0.361,-0.413 0.318,-0.413C0.271,-0.413 0.234,-0.398 0.205,-0.369C0.176,-0.34 0.162,-0.301 0.161,-0.252Z" style="fill-rule:nonzero;"/>
                    </g>
                    <g transform="matrix(64,0,0,64,826.986,514.244)">
                        <path d="M0.185,-0.507L0.185,-0.417C0.208,-0.48 0.251,-0.511 0.313,-0.511C0.327,-0.511 0.338,-0.51 0.347,-0.508L0.347,-0.392C0.332,-0.399 0.315,-0.402 0.296,-0.402C0.263,-0.402 0.237,-0.389 0.216,-0.362C0.195,-0.335 0.185,-0.302 0.185,-0.262L0.185,0L0.064,0L0.065,-0.507L0.185,-0.507Z" style="fill-rule:nonzero;"/>
                    </g>
                    <g transform="matrix(64,0,0,64,849.578,514.244)">
                        <path d="M0.379,-0.507L0.5,-0.507L0.5,0L0.379,0L0.379,-0.083C0.352,-0.024 0.3,0.005 0.223,0.005C0.172,0.005 0.132,-0.01 0.103,-0.039C0.074,-0.068 0.06,-0.11 0.06,-0.164L0.06,-0.507L0.18,-0.507L0.18,-0.192C0.18,-0.16 0.188,-0.136 0.204,-0.119C0.219,-0.102 0.241,-0.094 0.268,-0.094C0.303,-0.094 0.33,-0.106 0.35,-0.129C0.369,-0.152 0.379,-0.188 0.379,-0.235L0.379,-0.507Z" style="fill-rule:nonzero;"/>
                    </g>
                    <g transform="matrix(64,0,0,64,885.738,514.244)">
                        <path d="M0.211,-0.417L0.211,-0.159C0.211,-0.138 0.217,-0.122 0.228,-0.111C0.239,-0.099 0.255,-0.094 0.275,-0.094C0.3,-0.094 0.324,-0.101 0.345,-0.115L0.345,-0.012C0.322,-0.001 0.292,0.005 0.255,0.005C0.146,0.005 0.091,-0.05 0.091,-0.161L0.091,-0.417L0.015,-0.417L0.015,-0.507L0.091,-0.507L0.091,-0.629L0.211,-0.629L0.211,-0.507L0.337,-0.507L0.337,-0.417L0.211,-0.417Z" style="fill-rule:nonzero;"/>
                    </g>
                    <g transform="matrix(64,0,0,64,909.994,514.244)">
                        <path d="M0.07,0L0.07,-0.415L0.19,-0.415L0.19,0L0.07,0ZM0.058,-0.553C0.058,-0.573 0.065,-0.59 0.079,-0.604C0.093,-0.618 0.11,-0.625 0.13,-0.625C0.15,-0.625 0.167,-0.618 0.181,-0.604C0.195,-0.59 0.202,-0.573 0.202,-0.553C0.202,-0.532 0.195,-0.515 0.181,-0.501C0.167,-0.487 0.15,-0.48 0.13,-0.48C0.11,-0.48 0.093,-0.487 0.079,-0.501C0.065,-0.515 0.058,-0.532 0.058,-0.553Z" style="fill-rule:nonzero;"/>
                    </g>
                    <g transform="matrix(64,0,0,64,926.634,514.244)">
                        <path d="M0.185,-0.507L0.185,-0.42C0.214,-0.482 0.266,-0.513 0.341,-0.513C0.392,-0.513 0.432,-0.498 0.461,-0.467C0.49,-0.436 0.505,-0.393 0.505,-0.337L0.505,0L0.385,0L0.385,-0.312C0.385,-0.345 0.377,-0.371 0.361,-0.388C0.345,-0.405 0.323,-0.413 0.296,-0.413C0.265,-0.413 0.238,-0.401 0.217,-0.377C0.196,-0.352 0.185,-0.317 0.185,-0.272L0.185,0L0.065,0L0.065,-0.507L0.185,-0.507Z" style="fill-rule:nonzero;"/>
                    </g>
                    <g transform="matrix(64,0,0,64,962.794,514.244)">
                        <path d="M0.206,-0.01L0.006,-0.507L0.139,-0.507L0.198,-0.345C0.216,-0.297 0.231,-0.257 0.242,-0.224C0.253,-0.191 0.259,-0.171 0.262,-0.162L0.265,-0.148C0.272,-0.171 0.293,-0.237 0.329,-0.345L0.382,-0.507L0.508,-0.507L0.325,-0.014C0.274,0.121 0.197,0.189 0.093,0.189C0.074,0.189 0.057,0.187 0.043,0.184L0.043,0.085C0.054,0.088 0.065,0.089 0.077,0.089C0.138,0.089 0.181,0.056 0.206,-0.01Z" style="fill-rule:nonzero;"/>
                    </g>
                </g>
                <g transform="matrix(0.305881,0.558357,-0.27812,0.61409,740.301,260.962)">
                    <g transform="matrix(0.998066,-0.406853,0.406853,0.998066,-66.5778,126.089)">
                        <path d="M131.079,224.226C131.137,225.172 130.469,226.008 129.534,226.16C128.598,226.312 127.7,225.731 127.456,224.815C125.337,216.63 124.209,208.047 124.209,199.203C124.209,142.897 169.923,97.183 226.23,97.183C237.641,97.183 248.617,99.061 258.866,102.523C259.76,102.84 260.267,103.784 260.036,104.704C259.805,105.624 258.913,106.217 257.975,106.074C178.677,94.021 126.974,147.929 131.079,224.226Z"/>
                    </g>
                    <g transform="matrix(0.931309,-0.274863,0.311326,1.05486,-51.7234,42.8313)">
                        <path d="M145.877,95.675L162.215,76.639L169.661,99.6L145.877,95.675Z"/>
                    </g>
                    <g transform="matrix(0.931309,-0.274863,0.311326,1.05486,-51.7234,42.8313)">
                        <path d="M145.292,160.473C147.716,158.322 149.431,155.604 150.215,152.613C150.716,150.699 149.363,148.785 147.195,148.342C145.026,147.899 142.859,149.094 142.357,151.008C141.914,152.699 140.944,154.236 139.574,155.452C138.005,156.845 138.011,159.101 139.59,160.487C141.168,161.872 143.723,161.866 145.292,160.473ZM118.73,162.906C121.504,163.5 124.135,164.064 126.568,164.585C128.73,165.049 130.913,163.875 131.437,161.965C131.962,160.056 130.633,158.129 128.47,157.666C126.038,157.144 123.406,156.581 120.632,155.986C118.469,155.523 116.287,156.697 115.762,158.606C115.237,160.516 116.567,162.442 118.73,162.906ZM153.226,138.468C153.707,136.198 154.203,133.855 154.708,131.469C155.117,129.537 153.673,127.676 151.485,127.315C149.298,126.954 147.19,128.229 146.781,130.161C146.275,132.546 145.779,134.889 145.299,137.16C144.89,139.091 146.334,140.953 148.522,141.314C150.709,141.675 152.818,140.4 153.226,138.468ZM95.217,157.868C97.839,158.43 100.463,158.992 103.054,159.547C105.217,160.011 107.399,158.836 107.924,156.927C108.449,155.017 107.12,153.091 104.957,152.627C102.365,152.072 99.742,151.51 97.119,150.948C94.956,150.485 92.774,151.659 92.249,153.568C91.724,155.478 93.054,157.404 95.217,157.868ZM71.704,152.829C74.21,153.366 76.836,153.929 79.541,154.509C81.704,154.972 83.886,153.798 84.411,151.889C84.936,149.979 83.606,148.053 81.444,147.589C78.739,147.01 76.112,146.447 73.606,145.91C71.443,145.446 69.261,146.62 68.736,148.53C68.211,150.439 69.541,152.366 71.704,152.829ZM157.672,117.47C158.171,115.113 158.667,112.771 159.154,110.471C159.563,108.539 158.119,106.678 155.931,106.317C153.744,105.956 151.635,107.231 151.226,109.163C150.739,111.463 150.244,113.805 149.745,116.162C149.336,118.093 150.78,119.955 152.967,120.316C155.155,120.677 157.263,119.402 157.672,117.47ZM48.191,147.791C48.191,147.791 51.153,148.426 56.028,149.471C58.191,149.934 60.373,148.76 60.898,146.851C61.423,144.941 60.093,143.014 57.931,142.551C53.055,141.506 50.093,140.872 50.093,140.872C47.93,140.408 45.748,141.582 45.223,143.492C44.698,145.401 46.028,147.328 48.191,147.791ZM162.118,96.472C162.29,95.661 162.458,94.867 162.622,94.092C163.031,92.16 161.587,90.299 159.399,89.938C157.212,89.577 155.103,90.852 154.694,92.784C154.53,93.559 154.362,94.353 154.19,95.164C153.781,97.095 155.226,98.957 157.413,99.318C159.601,99.679 161.709,98.404 162.118,96.472Z"/>
                    </g>
                    <g transform="matrix(0.931309,-0.274863,0.311326,1.05486,-17.7551,5.66537)">
                        <path d="M154.415,55.351L170.753,36.316L178.199,59.276L154.415,55.351Z"/>
                    </g>
                    <g transform="matrix(0.931309,-0.274863,0.311326,1.05486,-17.7551,5.66537)">
                        <path d="M145.292,160.473C147.716,158.322 149.431,155.604 150.215,152.613C150.716,150.699 149.363,148.785 147.195,148.342C145.026,147.899 142.859,149.094 142.357,151.008C141.914,152.699 140.944,154.236 139.574,155.452C138.005,156.845 138.011,159.101 139.59,160.487C141.168,161.872 143.723,161.866 145.292,160.473ZM118.73,162.906C121.504,163.5 124.135,164.064 126.568,164.585C128.73,165.049 130.913,163.875 131.437,161.965C131.962,160.056 130.633,158.129 128.47,157.666C126.038,157.144 123.406,156.581 120.632,155.986C118.469,155.523 116.287,156.697 115.762,158.606C115.237,160.516 116.567,162.442 118.73,162.906ZM153.226,138.468C153.702,136.223 154.197,133.883 154.708,131.469C155.117,129.538 153.673,127.676 151.485,127.315C149.298,126.954 147.19,128.229 146.781,130.161C146.269,132.575 145.774,134.914 145.299,137.16C144.89,139.091 146.334,140.953 148.522,141.314C150.709,141.675 152.818,140.4 153.226,138.468ZM95.217,157.868C97.839,158.43 100.463,158.992 103.054,159.547C105.217,160.011 107.399,158.836 107.924,156.927C108.449,155.017 107.12,153.091 104.957,152.627C102.365,152.072 99.742,151.51 97.119,150.948C94.956,150.485 92.774,151.659 92.249,153.568C91.724,155.478 93.054,157.404 95.217,157.868ZM71.704,152.829C74.21,153.366 76.836,153.929 79.541,154.509C81.704,154.972 83.886,153.798 84.411,151.889C84.936,149.979 83.606,148.053 81.444,147.589C78.739,147.01 76.112,146.447 73.606,145.91C71.443,145.446 69.261,146.62 68.736,148.53C68.211,150.439 69.541,152.366 71.704,152.829ZM157.672,117.47C158.161,115.163 158.656,112.826 159.154,110.471C159.563,108.54 158.119,106.678 155.931,106.317C153.744,105.956 151.635,107.231 151.226,109.163C150.728,111.517 150.233,113.855 149.744,116.162C149.336,118.093 150.78,119.955 152.967,120.316C155.155,120.677 157.263,119.402 157.672,117.47ZM48.191,147.791C48.191,147.791 51.153,148.426 56.028,149.471C58.191,149.934 60.373,148.76 60.898,146.851C61.423,144.941 60.093,143.014 57.931,142.551C53.055,141.506 50.093,140.872 50.093,140.872C47.93,140.408 45.748,141.582 45.223,143.492C44.698,145.401 46.028,147.328 48.191,147.791ZM162.118,96.472C162.615,94.127 163.11,91.789 163.6,89.473C164.009,87.541 162.565,85.68 160.377,85.319C158.19,84.958 156.081,86.233 155.672,88.165C155.182,90.481 154.687,92.818 154.19,95.164C153.781,97.096 155.226,98.957 157.413,99.318C159.601,99.679 161.709,98.404 162.118,96.472ZM166.564,75.474C167.071,73.078 167.567,70.74 168.046,68.475C168.455,66.543 167.011,64.682 164.823,64.321C162.635,63.96 160.527,65.235 160.118,67.167C159.639,69.431 159.144,71.77 158.636,74.166C158.227,76.097 159.671,77.959 161.859,78.32C164.047,78.681 166.155,77.406 166.564,75.474ZM171.01,54.476C171.06,54.238 171.11,54.002 171.16,53.768C171.569,51.837 170.125,49.976 167.937,49.614C165.749,49.253 163.641,50.528 163.232,52.46C163.183,52.694 163.133,52.93 163.082,53.168C162.673,55.099 164.117,56.961 166.305,57.322C168.493,57.683 170.601,56.408 171.01,54.476Z"/>
                    </g>
                </g>
                <g transform="matrix(3.15848,0,0,6.34099,-2103.03,-2280.14)">
                    <g transform="matrix(12,0,0,12,916.223,435.832)">
                        <path d="M0.67,0L0.629,0L0.472,-0.551C0.459,-0.596 0.449,-0.633 0.443,-0.662C0.438,-0.634 0.43,-0.601 0.421,-0.564C0.411,-0.528 0.359,-0.34 0.263,0L0.221,0L0.025,-0.714L0.077,-0.714L0.202,-0.254C0.207,-0.235 0.212,-0.218 0.216,-0.202C0.22,-0.187 0.224,-0.172 0.227,-0.158C0.231,-0.144 0.234,-0.131 0.237,-0.118C0.239,-0.105 0.242,-0.092 0.244,-0.079C0.252,-0.123 0.269,-0.191 0.294,-0.281L0.416,-0.714L0.471,-0.714L0.614,-0.217C0.631,-0.16 0.643,-0.113 0.65,-0.078C0.654,-0.102 0.66,-0.126 0.666,-0.153C0.673,-0.179 0.723,-0.366 0.817,-0.714L0.867,-0.714L0.67,0Z" style="fill-rule:nonzero;"/>
                    </g>
                    <g transform="matrix(12,0,0,12,926.688,435.832)">
                        <path d="M0.411,0L0.399,-0.084L0.395,-0.084C0.368,-0.05 0.341,-0.026 0.313,-0.011C0.285,0.003 0.251,0.01 0.213,0.01C0.161,0.01 0.12,-0.004 0.091,-0.03C0.062,-0.057 0.048,-0.094 0.048,-0.141C0.048,-0.193 0.069,-0.233 0.113,-0.262C0.156,-0.29 0.218,-0.306 0.3,-0.307L0.401,-0.31L0.401,-0.345C0.401,-0.396 0.391,-0.434 0.37,-0.459C0.35,-0.485 0.317,-0.498 0.271,-0.498C0.222,-0.498 0.171,-0.484 0.118,-0.457L0.1,-0.499C0.158,-0.526 0.216,-0.54 0.273,-0.54C0.331,-0.54 0.375,-0.525 0.404,-0.495C0.432,-0.464 0.447,-0.417 0.447,-0.353L0.447,0L0.411,0ZM0.216,-0.034C0.272,-0.034 0.317,-0.05 0.35,-0.083C0.383,-0.115 0.399,-0.16 0.399,-0.218L0.399,-0.27L0.306,-0.266C0.232,-0.263 0.178,-0.251 0.147,-0.231C0.115,-0.212 0.099,-0.181 0.099,-0.139C0.099,-0.106 0.109,-0.08 0.13,-0.062C0.15,-0.043 0.179,-0.034 0.216,-0.034Z" style="fill-rule:nonzero;"/>
                    </g>
                    <g transform="matrix(12,0,0,12,933.045,435.832)">
                        <rect x="0.089" y="-0.76" width="0.048" height="0.76" style="fill-rule:nonzero;"/>
                    </g>
                    <g transform="matrix(12,0,0,12,935.758,435.832)">
                        <rect x="0.089" y="-0.76" width="0.048" height="0.76" style="fill-rule:nonzero;"/>
                    </g>
                    <g transform="matrix(12,0,0,12,938.471,435.832)">
                        <path d="M0.303,0.01C0.226,0.01 0.166,-0.014 0.123,-0.062C0.08,-0.109 0.058,-0.176 0.058,-0.261C0.058,-0.346 0.079,-0.414 0.121,-0.465C0.162,-0.516 0.218,-0.541 0.289,-0.541C0.352,-0.541 0.401,-0.519 0.437,-0.476C0.473,-0.432 0.491,-0.373 0.491,-0.298L0.491,-0.259L0.109,-0.259C0.11,-0.186 0.127,-0.13 0.16,-0.092C0.193,-0.053 0.241,-0.034 0.303,-0.034C0.333,-0.034 0.36,-0.036 0.383,-0.041C0.406,-0.045 0.435,-0.054 0.47,-0.068L0.47,-0.024C0.44,-0.011 0.413,-0.002 0.387,0.003C0.362,0.007 0.334,0.01 0.303,0.01ZM0.289,-0.498C0.238,-0.498 0.197,-0.481 0.166,-0.448C0.135,-0.414 0.117,-0.365 0.112,-0.302L0.44,-0.302C0.44,-0.363 0.427,-0.411 0.4,-0.446C0.373,-0.481 0.336,-0.498 0.289,-0.498Z" style="fill-rule:nonzero;"/>
                    </g>
                    <g transform="matrix(12,0,0,12,945.057,435.832)">
                        <path d="M0.229,-0.033C0.26,-0.033 0.286,-0.036 0.309,-0.041L0.309,-0.002C0.286,0.006 0.259,0.01 0.228,0.01C0.181,0.01 0.147,-0.003 0.124,-0.028C0.102,-0.053 0.091,-0.092 0.091,-0.146L0.091,-0.489L0.012,-0.489L0.012,-0.517L0.091,-0.539L0.115,-0.659L0.14,-0.659L0.14,-0.531L0.296,-0.531L0.296,-0.489L0.14,-0.489L0.14,-0.153C0.14,-0.112 0.147,-0.082 0.162,-0.063C0.176,-0.043 0.198,-0.033 0.229,-0.033Z" style="fill-rule:nonzero;"/>
                    </g>
                </g>
            </g>
        </g>
    </g>
</svg>
