<svg clip-rule="evenodd" fill-rule="evenodd" stroke-linejoin="round" stroke-miterlimit="2" viewBox="0 0 561 290" xmlns="http://www.w3.org/2000/svg"><g transform="matrix(1.88124 0 0 .969631 -1253.0719 -311.272)"><path d="m666.085 321.022h298.069v298.069h-298.069z" fill="none"/><g fill-rule="nonzero"><path d="m.445-.646v.122c-.05-.03-.103-.045-.16-.045-.031 0-.056.007-.073.021-.018.014-.027.032-.027.054s.01.04.029.054c.019.015.047.031.085.048.027.012.048.022.065.031s.035.022.055.038c.019.016.034.035.044.057.009.023.014.048.014.077 0 .06-.021.108-.064.143-.043.036-.1.054-.17.054-.076 0-.139-.014-.189-.043v-.129c.057.041.12.062.188.062.031 0 .055-.008.074-.023.019-.014.028-.035.028-.06 0-.012-.002-.023-.007-.032s-.014-.019-.028-.028c-.015-.009-.026-.016-.033-.02-.008-.004-.024-.011-.048-.022-.007-.003-.012-.006-.015-.007-.025-.011-.045-.022-.06-.031s-.032-.021-.05-.036-.032-.034-.04-.055c-.009-.021-.014-.046-.014-.073 0-.057.021-.103.064-.138.042-.035.098-.052.168-.052.063 0 .118.011.164.033z" transform="matrix(66.26617752384 0 0 128.5666545408 714.80796143098 583.27321537124)"/><path d="m.161-.252c.001.048.016.087.044.116.027.029.065.044.112.044.041 0 .08-.011.115-.034v.104c-.035.021-.079.031-.132.031-.078 0-.141-.025-.189-.074-.049-.049-.073-.112-.073-.187.001-.074.025-.136.073-.187.047-.051.112-.076.195-.076.049 0 .091.009.126.028v.106c-.033-.021-.071-.032-.114-.032-.047 0-.084.015-.113.044s-.043.068-.044.117z" transform="matrix(66.26617752384 0 0 128.5666545408 749.13384138833 583.27321537124)"/><path d="m.185-.507v.09c.023-.063.066-.094.128-.094.014 0 .025.001.034.003v.116c-.015-.007-.032-.01-.051-.01-.033 0-.059.013-.08.04s-.031.06-.031.1v.262h-.121l.001-.507z" transform="matrix(66.26617752384 0 0 128.5666545408 780.27894482454 583.27321537124)"/><path d="m.379-.507h.121v.507h-.121v-.083c-.027.059-.079.088-.156.088-.051 0-.091-.015-.12-.044s-.043-.071-.043-.125v-.343h.12v.315c0 .032.008.056.024.073.015.017.037.025.064.025.035 0 .062-.012.082-.035.019-.023.029-.059.029-.106z" transform="matrix(66.26617752384 0 0 128.5666545408 803.67090549045 583.27321537124)"/><path d="m.211-.417v.258c0 .021.006.037.017.048.011.012.027.017.047.017.025 0 .049-.007.07-.021v.103c-.023.011-.053.017-.09.017-.109 0-.164-.055-.164-.166v-.256h-.076v-.09h.076v-.122h.12v.122h.126v.09z" transform="matrix(66.26617752384 0 0 128.5666545408 841.11129579142 583.27321537124)"/><path d="m.07 0v-.415h.12v.415zm-.012-.553c0-.02.007-.037.021-.051s.031-.021.051-.021.037.007.051.021.021.031.021.051c0 .021-.007.038-.021.052s-.031.021-.051.021-.037-.007-.051-.021-.021-.031-.021-.052z" transform="matrix(66.26617752384 0 0 128.5666545408 866.22617707296 583.27321537124)"/><path d="m.185-.507v.087c.029-.062.081-.093.156-.093.051 0 .091.015.12.046s.044.074.044.13v.337h-.12v-.312c0-.033-.008-.059-.024-.076s-.038-.025-.065-.025c-.031 0-.058.012-.079.036-.021.025-.032.06-.032.105v.272h-.12v-.507z" transform="matrix(66.26617752384 0 0 128.5666545408 883.45538322916 583.27321537124)"/><path d="m.206-.01-.2-.497h.133l.059.162c.018.048.033.088.044.121s.017.053.02.062l.003.014c.007-.023.028-.089.064-.197l.053-.162h.126l-.183.493c-.051.135-.128.203-.232.203-.019 0-.036-.002-.05-.005v-.099c.011.003.022.004.034.004.061 0 .104-.033.129-.099z" transform="matrix(66.26617752384 0 0 128.5666545408 920.89577353013 583.27321537124)"/></g><path d="m131.079 224.226c.058.946-.61 1.782-1.545 1.934-.936.152-1.834-.429-2.078-1.345-2.119-8.185-3.247-16.768-3.247-25.612 0-56.306 45.714-102.02 102.021-102.02 11.411 0 22.387 1.878 32.636 5.34.894.317 1.401 1.261 1.17 2.181s-1.123 1.513-2.061 1.37c-79.298-12.053-131.001 41.855-126.896 118.152z" transform="matrix(.47661956598 .33840970558 -.1744236658 .9247171819 660.05847514117 285.59022020707)"/><path d="m145.877 95.675 16.338-19.036 7.446 22.961z" transform="matrix(.41154819821 .38660042894 -.22569760421 .90439545528 691.60882049568 238.44063757395)"/><path d="m145.292 160.473c2.424-2.151 4.139-4.869 4.923-7.86.501-1.914-.852-3.828-3.02-4.271-2.169-.443-4.336.752-4.838 2.666-.443 1.691-1.413 3.228-2.783 4.444-1.569 1.393-1.563 3.649.016 5.035 1.578 1.385 4.133 1.379 5.702-.014zm-26.562 2.433c2.774.594 5.405 1.158 7.838 1.679 2.162.464 4.345-.71 4.869-2.62.525-1.909-.804-3.836-2.967-4.299-2.432-.522-5.064-1.085-7.838-1.68-2.163-.463-4.345.711-4.87 2.62-.525 1.91.805 3.836 2.968 4.3zm34.496-24.438c.481-2.27.977-4.613 1.482-6.999.409-1.932-1.035-3.793-3.223-4.154-2.187-.361-4.295.914-4.704 2.846-.506 2.385-1.002 4.728-1.482 6.999-.409 1.931 1.035 3.793 3.223 4.154 2.187.361 4.296-.914 4.704-2.846zm-58.009 19.4c2.622.562 5.246 1.124 7.837 1.679 2.163.464 4.345-.711 4.87-2.62.525-1.91-.804-3.836-2.967-4.3-2.592-.555-5.215-1.117-7.838-1.679-2.163-.463-4.345.711-4.87 2.62-.525 1.91.805 3.836 2.968 4.3zm-23.513-5.039c2.506.537 5.132 1.1 7.837 1.68 2.163.463 4.345-.711 4.87-2.62.525-1.91-.805-3.836-2.967-4.3-2.705-.579-5.332-1.142-7.838-1.679-2.163-.464-4.345.71-4.87 2.62-.525 1.909.805 3.836 2.968 4.299zm85.968-35.359c.499-2.357.995-4.699 1.482-6.999.409-1.932-1.035-3.793-3.223-4.154-2.187-.361-4.296.914-4.705 2.846-.487 2.3-.982 4.642-1.481 6.999-.409 1.931 1.035 3.793 3.222 4.154 2.188.361 4.296-.914 4.705-2.846zm-109.481 30.321s2.962.635 7.837 1.68c2.163.463 4.345-.711 4.87-2.62.525-1.91-.805-3.837-2.967-4.3-4.876-1.045-7.838-1.679-7.838-1.679-2.163-.464-4.345.71-4.87 2.62-.525 1.909.805 3.836 2.968 4.299zm113.927-51.319c.172-.811.34-1.605.504-2.38.409-1.932-1.035-3.793-3.223-4.154-2.187-.361-4.296.914-4.705 2.846-.164.775-.332 1.569-.504 2.38-.409 1.931 1.036 3.793 3.223 4.154 2.188.361 4.296-.914 4.705-2.846z" transform="matrix(.41154819821 .38660042894 -.22569760421 .90439545528 691.60882049568 238.44063757395)"/><path d="m154.415 55.351 16.338-19.035 7.446 22.96z" transform="matrix(.41154819821 .38660042894 -.22569760421 .90439545528 715.21731992228 234.19523975751)"/><path d="m145.292 160.473c2.424-2.151 4.139-4.869 4.923-7.86.501-1.914-.852-3.828-3.02-4.271-2.169-.443-4.336.752-4.838 2.666-.443 1.691-1.413 3.228-2.783 4.444-1.569 1.393-1.563 3.649.016 5.035 1.578 1.385 4.133 1.379 5.702-.014zm-26.562 2.433c2.774.594 5.405 1.158 7.838 1.679 2.162.464 4.345-.71 4.869-2.62.525-1.909-.804-3.836-2.967-4.299-2.432-.522-5.064-1.085-7.838-1.68-2.163-.463-4.345.711-4.87 2.62-.525 1.91.805 3.836 2.968 4.3zm34.496-24.438c.476-2.245.971-4.585 1.482-6.999.409-1.931-1.035-3.793-3.223-4.154-2.187-.361-4.295.914-4.704 2.846-.512 2.414-1.007 4.753-1.482 6.999-.409 1.931 1.035 3.793 3.223 4.154 2.187.361 4.296-.914 4.704-2.846zm-58.009 19.4c2.622.562 5.246 1.124 7.837 1.679 2.163.464 4.345-.711 4.87-2.62.525-1.91-.804-3.836-2.967-4.3-2.592-.555-5.215-1.117-7.838-1.679-2.163-.463-4.345.711-4.87 2.62-.525 1.91.805 3.836 2.968 4.3zm-23.513-5.039c2.506.537 5.132 1.1 7.837 1.68 2.163.463 4.345-.711 4.87-2.62.525-1.91-.805-3.836-2.967-4.3-2.705-.579-5.332-1.142-7.838-1.679-2.163-.464-4.345.71-4.87 2.62-.525 1.909.805 3.836 2.968 4.299zm85.968-35.359c.489-2.307.984-4.644 1.482-6.999.409-1.931-1.035-3.793-3.223-4.154-2.187-.361-4.296.914-4.705 2.846-.498 2.354-.993 4.692-1.482 6.999-.408 1.931 1.036 3.793 3.223 4.154 2.188.361 4.296-.914 4.705-2.846zm-109.481 30.321s2.962.635 7.837 1.68c2.163.463 4.345-.711 4.87-2.62.525-1.91-.805-3.837-2.967-4.3-4.876-1.045-7.838-1.679-7.838-1.679-2.163-.464-4.345.71-4.87 2.62-.525 1.909.805 3.836 2.968 4.299zm113.927-51.319c.497-2.345.992-4.683 1.482-6.999.409-1.932-1.035-3.793-3.223-4.154-2.187-.361-4.296.914-4.705 2.846-.49 2.316-.985 4.653-1.482 6.999-.409 1.932 1.036 3.793 3.223 4.154 2.188.361 4.296-.914 4.705-2.846zm4.446-20.998c.507-2.396 1.003-4.734 1.482-6.999.409-1.932-1.035-3.793-3.223-4.154s-4.296.914-4.705 2.846c-.479 2.264-.974 4.603-1.482 6.999-.409 1.931 1.035 3.793 3.223 4.154s4.296-.914 4.705-2.846zm4.446-20.998c.05-.238.1-.474.15-.708.409-1.931-1.035-3.792-3.223-4.154-2.188-.361-4.296.914-4.705 2.846-.049.234-.099.47-.15.708-.409 1.931 1.035 3.793 3.223 4.154s4.296-.914 4.705-2.846z" transform="matrix(.41154819821 .38660042894 -.22569760421 .90439545528 715.21731992228 234.19523975751)"/><path d="m.67 0h-.041l-.157-.551c-.013-.045-.023-.082-.029-.111-.005.028-.013.061-.022.098-.01.036-.062.224-.158.564h-.042l-.196-.714h.052l.125.46c.005.019.01.036.014.052.004.015.008.03.011.044.004.014.007.027.01.04.002.013.005.026.007.039.008-.044.025-.112.05-.202l.122-.433h.055l.143.497c.017.057.029.104.036.139.004-.024.01-.048.016-.075.007-.026.057-.213.151-.561h.05z" fill-rule="nonzero" transform="matrix(43.1712416928 0 0 83.7588978288 780.76578722519 486.2021234768)"/><path d="m.411 0-.012-.084h-.004c-.027.034-.054.058-.082.073-.028.014-.062.021-.1.021-.052 0-.093-.014-.122-.04-.029-.027-.043-.064-.043-.111 0-.052.021-.092.065-.121.043-.028.105-.044.187-.045l.101-.003v-.035c0-.051-.01-.089-.031-.114-.02-.026-.053-.039-.099-.039-.049 0-.1.014-.153.041l-.018-.042c.058-.027.116-.041.173-.041.058 0 .102.015.131.045.028.031.043.078.043.142v.353zm-.195-.034c.056 0 .101-.016.134-.049.033-.032.049-.077.049-.135v-.052l-.093.004c-.074.003-.128.015-.159.035-.032.019-.048.05-.048.092 0 .033.01.059.031.077.02.019.049.028.086.028z" fill-rule="nonzero" transform="matrix(43.1712416928 0 0 83.7588978288 818.41470758479 486.2021234768)"/><path d="m.089-.76h.048v.76h-.048z" fill-rule="nonzero" transform="matrix(43.1712416928 0 0 83.7588978288 841.28467287155 486.2021234768)"/><path d="m.089-.76h.048v.76h-.048z" fill-rule="nonzero" transform="matrix(43.1712416928 0 0 83.7588978288 851.0449710976 486.2021234768)"/><path d="m.303.01c-.077 0-.137-.024-.18-.072-.043-.047-.065-.114-.065-.199s.021-.153.063-.204c.041-.051.097-.076.168-.076.063 0 .112.022.148.065.036.044.054.103.054.178v.039h-.382c.001.073.018.129.051.167.033.039.081.058.143.058.03 0 .057-.002.08-.007.023-.004.052-.013.087-.027v.044c-.03.013-.057.022-.083.027-.025.004-.053.007-.084.007zm-.014-.508c-.051 0-.092.017-.123.05-.031.034-.049.083-.054.146h.328c0-.061-.013-.109-.04-.144s-.064-.052-.111-.052z" fill-rule="nonzero" transform="matrix(43.1712416928 0 0 83.7588978288 860.80526932364 486.2021234768)"/><path d="m.229-.033c.031 0 .057-.003.08-.008v.039c-.023.008-.05.012-.081.012-.047 0-.081-.013-.104-.038-.022-.025-.033-.064-.033-.118v-.343h-.079v-.028l.079-.022.024-.12h.025v.128h.156v.042h-.156v.336c0 .041.007.071.022.09.014.02.036.03.067.03z" fill-rule="nonzero" transform="matrix(43.1712416928 0 0 83.7588978288 884.49908580604 486.2021234768)"/></g></svg>