<svg height="800" viewBox="0 0 455 455" width="800" xmlns="http://www.w3.org/2000/svg"><path d="m360.967 130.599c-4.06-.818-8.018 1.8-8.841 5.86s1.801 8.018 5.86 8.841c1.147.232 2.013 1.286 2.013 2.45v160c0 1.355-1.145 2.5-2.5 2.5h-177.823c-4.142 0-7.5 3.357-7.5 7.5s3.358 7.5 7.5 7.5h177.824c9.649 0 17.5-7.851 17.5-17.5v-160c0-8.29-5.901-15.503-14.033-17.151z"/><path d="m274.824 130.25h-177.324c-9.649 0-17.5 7.851-17.5 17.5v160c0 8.063 5.48 15.046 13.326 16.982.604.149 1.208.221 1.803.221 3.369 0 6.432-2.287 7.276-5.705.992-4.021-1.463-8.086-5.484-9.078-.955-.235-1.92-1.143-1.92-2.42v-160c0-1.355 1.145-2.5 2.5-2.5h177.324c4.142 0 7.5-3.357 7.5-7.5s-3.359-7.5-7.501-7.5z"/><path d="m235.363 170.798c-2.655-.363-5.3-.548-7.863-.548-31.706 0-57.5 25.794-57.5 57.5 0 2.563.185 5.209.548 7.863.515 3.759 3.731 6.483 7.421 6.483.339 0 .682-.023 1.027-.07 4.104-.562 6.975-4.345 6.413-8.448-.271-1.982-.409-3.943-.409-5.828 0-23.435 19.065-42.5 42.5-42.5 1.884 0 3.845.138 5.828.409 4.108.564 7.886-2.309 8.448-6.413.562-4.103-2.309-7.887-6.413-8.448z"/><path d="m219.127 284.636c2.789.407 5.605.614 8.373.614 31.706 0 57.5-25.794 57.5-57.5 0-2.77-.207-5.587-.613-8.373-.599-4.099-4.408-6.934-8.505-6.337-4.099.599-6.936 4.406-6.337 8.505.303 2.071.456 4.158.456 6.205 0 23.435-19.065 42.5-42.5 42.5-2.044 0-4.132-.153-6.205-.456-4.099-.6-7.907 2.238-8.505 6.337s2.237 7.906 6.336 8.505z"/><path d="m318.5 203.25c9.098 0 16.5-7.402 16.5-16.5 0-8.318-6.227-15.355-14.484-16.37-2.293-.277-4.585.509-6.218 2.142l-10.027 10.027c-1.633 1.632-2.422 3.926-2.141 6.217 1.015 8.257 8.053 14.484 16.37 14.484z"/><path d="m117.5 114.75h30c4.142 0 7.5-3.357 7.5-7.5s-3.358-7.5-7.5-7.5h-30c-4.142 0-7.5 3.357-7.5 7.5s3.358 7.5 7.5 7.5z"/><path d="m388.367 66.633c-42.97-42.969-100.099-66.633-160.867-66.633s-117.897 23.664-160.867 66.633c-42.969 42.97-66.633 100.099-66.633 160.867s23.664 117.897 66.633 160.867c42.97 42.969 100.099 66.633 160.867 66.633s117.897-23.664 160.867-66.633c42.969-42.97 66.633-100.099 66.633-160.867s-23.664-117.897-66.633-160.867zm-373.367 160.867c0-117.173 95.327-212.5 212.5-212.5 55.894 0 106.807 21.703 144.783 57.11l-300.173 300.173c-35.407-37.976-57.11-88.888-57.11-144.783zm212.5 212.5c-55.894 0-106.807-21.703-144.783-57.11l300.173-300.173c35.407 37.976 57.11 88.889 57.11 144.783 0 117.173-95.327 212.5-212.5 212.5z"/></svg>