<?xml version="1.0" encoding="UTF-8" standalone="no"?><!DOCTYPE svg PUBLIC "-//W3C//DTD SVG 1.1//EN" "http://www.w3.org/Graphics/SVG/1.1/DTD/svg11.dtd"><svg width="100%" height="100%" viewBox="0 0 57 57" version="1.1" xmlns="http://www.w3.org/2000/svg" xmlns:xlink="http://www.w3.org/1999/xlink" xml:space="preserve" xmlns:serif="http://www.serif.com/" style="fill-rule:evenodd;clip-rule:evenodd;stroke-linejoin:round;stroke-miterlimit:2;"><rect id="Artboard1" x="0" y="0" width="56.693" height="56.693" style="fill:none;"/><clipPath id="_clip1"><rect x="0" y="0" width="56.693" height="56.693"/></clipPath><g clip-path="url(#_clip1)"><path d="M0,27.378l56.693,-0l-0,-27.378l-56.693,-0l0,56.693l56.693,-0l-0,-19.151l-56.693,0l0,-10.164Z" style="fill:none;"/><clipPath id="_clip2"><path d="M0,27.378l56.693,-0l-0,-27.378l-56.693,-0l0,56.693l56.693,-0l-0,-19.151l-56.693,0l0,-10.164Z"/></clipPath><g clip-path="url(#_clip2)"><path d="M5.081,10.296c-0,-1.14 0.692,-2.166 1.749,-2.593c14.344,-5.731 28.686,-5.711 43.029,0.004c1.058,0.426 1.751,1.452 1.751,2.592c0.002,3.592 0.002,11.745 0.002,18.854c0,7.813 -4.168,15.033 -10.935,18.939c-4.497,2.597 -9.134,5.274 -11.209,6.472c-0.694,0.401 -1.549,0.401 -2.243,-0c-2.075,-1.198 -6.712,-3.875 -11.21,-6.472c-6.766,-3.906 -10.934,-11.126 -10.934,-18.939l-0,-18.857Zm6.289,5.449c0,-1.145 0.698,-2.174 1.762,-2.598c10.128,-3.979 20.255,-3.756 30.381,0.027c1.087,0.41 1.806,1.451 1.806,2.613c0.004,2.171 0.004,5.92 0.004,9.734c-0,7.814 -4.169,15.033 -10.935,18.94c-2.008,1.159 -3.816,2.203 -4.92,2.84c-0.694,0.401 -1.549,0.401 -2.243,0c-1.104,-0.637 -2.912,-1.681 -4.92,-2.84c-6.767,-3.907 -10.935,-11.126 -10.935,-18.94l0,-9.776Z" style="fill:none;"/><clipPath id="_clip3"><path d="M5.081,10.296c-0,-1.14 0.692,-2.166 1.749,-2.593c14.344,-5.731 28.686,-5.711 43.029,0.004c1.058,0.426 1.751,1.452 1.751,2.592c0.002,3.592 0.002,11.745 0.002,18.854c0,7.813 -4.168,15.033 -10.935,18.939c-4.497,2.597 -9.134,5.274 -11.209,6.472c-0.694,0.401 -1.549,0.401 -2.243,-0c-2.075,-1.198 -6.712,-3.875 -11.21,-6.472c-6.766,-3.906 -10.934,-11.126 -10.934,-18.939l-0,-18.857Zm6.289,5.449c0,-1.145 0.698,-2.174 1.762,-2.598c10.128,-3.979 20.255,-3.756 30.381,0.027c1.087,0.41 1.806,1.451 1.806,2.613c0.004,2.171 0.004,5.92 0.004,9.734c-0,7.814 -4.169,15.033 -10.935,18.94c-2.008,1.159 -3.816,2.203 -4.92,2.84c-0.694,0.401 -1.549,0.401 -2.243,0c-1.104,-0.637 -2.912,-1.681 -4.92,-2.84c-6.767,-3.907 -10.935,-11.126 -10.935,-18.94l0,-9.776Z"/></clipPath><g clip-path="url(#_clip3)"><g><path d="M28.346,-4.423c0,0 -0.056,3.062 -0.128,7.865c-0.049,3.267 -0.112,7.337 -0.161,11.797c-0.028,2.522 -0.051,5.169 -0.067,7.864c-0.01,1.735 -0.019,3.489 -0.018,5.243c-0,1.755 0.008,3.509 0.02,5.244c0.018,2.695 0.046,5.341 0.074,7.864c0.031,2.811 0.065,5.467 0.099,7.865c0.098,7 0.181,11.797 0.181,11.797c0,-0 0.084,-4.797 0.182,-11.797c0.033,-2.398 0.068,-5.054 0.099,-7.865c0.028,-2.523 0.056,-5.169 0.074,-7.864c0.011,-1.735 0.02,-3.489 0.02,-5.244c0.001,-1.754 -0.008,-3.508 -0.018,-5.243c-0.017,-2.695 -0.039,-5.342 -0.067,-7.864c-0.05,-4.46 -0.112,-8.53 -0.161,-11.797c-0.072,-4.803 -0.129,-7.865 -0.129,-7.865Z" style="fill:#d2d2d2;"/><path d="M31.761,-4.243c0,-0 -0.375,3.039 -0.947,7.808c-0.389,3.244 -0.875,7.285 -1.389,11.715c-0.291,2.506 -0.589,5.136 -0.886,7.815c-0.192,1.724 -0.383,3.468 -0.565,5.212c-0.183,1.745 -0.357,3.491 -0.527,5.217c-0.263,2.682 -0.51,5.317 -0.746,7.829c-0.262,2.799 -0.504,5.444 -0.721,7.832c-0.632,6.972 -1.049,11.751 -1.049,11.751c0,0 0.583,-4.762 1.41,-11.713c0.284,-2.382 0.595,-5.019 0.918,-7.811c0.291,-2.506 0.595,-5.135 0.894,-7.814c0.192,-1.724 0.383,-3.468 0.566,-5.212c0.183,-1.745 0.358,-3.491 0.528,-5.217c0.265,-2.682 0.518,-5.317 0.753,-7.828c0.416,-4.441 0.778,-8.495 1.069,-11.749c0.429,-4.784 0.692,-7.835 0.692,-7.835Z" style="fill:#d2d2d2;"/><path d="M35.139,-3.707c0,0 -0.69,2.984 -1.756,7.666c-0.725,3.186 -1.63,7.154 -2.603,11.506c-0.55,2.462 -1.121,5.046 -1.695,7.679c-0.37,1.694 -0.742,3.409 -1.105,5.125c-0.364,1.716 -0.719,3.434 -1.067,5.132c-0.541,2.641 -1.062,5.235 -1.558,7.709c-0.552,2.755 -1.069,5.36 -1.533,7.713c-1.356,6.867 -2.268,11.577 -2.268,11.577c-0,-0 1.076,-4.675 2.623,-11.502c0.53,-2.339 1.114,-4.929 1.727,-7.672c0.55,-2.462 1.126,-5.045 1.702,-7.678c0.371,-1.694 0.743,-3.408 1.107,-5.124c0.364,-1.716 0.719,-3.434 1.069,-5.132c0.543,-2.64 1.069,-5.233 1.565,-7.707c0.876,-4.372 1.658,-8.367 2.287,-11.572c0.925,-4.713 1.505,-7.72 1.505,-7.72Z" style="fill:#d2d2d2;"/><path d="M38.442,-2.819c0,0 -0.997,2.895 -2.545,7.44c-1.053,3.092 -2.367,6.944 -3.788,11.17c-0.803,2.391 -1.64,4.901 -2.486,7.459c-0.544,1.646 -1.093,3.312 -1.633,4.981c-0.54,1.669 -1.073,3.34 -1.596,4.993c-0.814,2.569 -1.602,5.094 -2.353,7.502c-0.836,2.683 -1.622,5.219 -2.328,7.51c-2.064,6.688 -3.462,11.276 -3.462,11.276c-0,-0 1.557,-4.536 3.807,-11.164c0.77,-2.27 1.622,-4.785 2.517,-7.449c0.804,-2.391 1.646,-4.899 2.493,-7.457c0.546,-1.646 1.094,-3.312 1.635,-4.98c0.541,-1.669 1.073,-3.34 1.598,-4.992c0.815,-2.569 1.608,-5.093 2.359,-7.5c1.327,-4.257 2.521,-8.148 3.481,-11.27c1.411,-4.589 2.301,-7.519 2.301,-7.519Z" style="fill:#d2d2d2;"/><path d="M41.635,-1.59c-0,0 -1.293,2.775 -3.307,7.133c-1.369,2.964 -3.077,6.658 -4.931,10.712c-1.048,2.293 -2.142,4.701 -3.25,7.157c-0.713,1.58 -1.432,3.18 -2.143,4.782c-0.711,1.603 -1.415,3.209 -2.108,4.798c-1.076,2.47 -2.124,4.899 -3.121,7.215c-1.112,2.58 -2.157,5.021 -3.099,7.225c-2.749,6.435 -4.618,10.851 -4.618,10.851c0,-0 2.022,-4.348 4.95,-10.704c1.003,-2.177 2.111,-4.589 3.28,-7.144c1.048,-2.294 2.147,-4.7 3.256,-7.155c0.714,-1.58 1.433,-3.179 2.145,-4.781c0.712,-1.603 1.415,-3.209 2.109,-4.798c1.078,-2.469 2.131,-4.896 3.128,-7.212c1.764,-4.094 3.357,-7.838 4.637,-10.842c1.882,-4.416 3.072,-7.237 3.072,-7.237Z" style="fill:#d2d2d2;"/><path d="M44.682,-0.033c-0,0 -1.575,2.624 -4.032,6.747c-1.671,2.805 -3.754,6.299 -6.02,10.137c-1.282,2.17 -2.621,4.451 -3.979,6.777c-0.873,1.497 -1.755,3.012 -2.629,4.531c-0.875,1.52 -1.742,3.044 -2.596,4.551c-1.329,2.344 -2.623,4.65 -3.857,6.848c-1.374,2.45 -2.668,4.767 -3.834,6.86c-3.405,6.112 -5.724,10.307 -5.724,10.307c0,0 2.464,-4.112 6.038,-10.125c1.225,-2.061 2.579,-4.343 4.006,-6.762c1.282,-2.171 2.626,-4.449 3.985,-6.774c0.875,-1.496 1.756,-3.011 2.631,-4.531c0.875,-1.519 1.742,-3.042 2.598,-4.549c1.329,-2.343 2.629,-4.646 3.862,-6.845c2.181,-3.886 4.155,-7.443 5.741,-10.297c2.332,-4.194 3.81,-6.875 3.81,-6.875Z" style="fill:#d2d2d2;"/><path d="M47.55,1.836c-0,-0 -1.84,2.444 -4.713,6.287c-1.954,2.614 -4.39,5.87 -7.044,9.449c-1.501,2.025 -3.07,4.153 -4.662,6.324c-1.025,1.397 -2.06,2.811 -3.088,4.231c-1.028,1.419 -2.049,2.843 -3.056,4.253c-1.565,2.191 -3.093,4.349 -4.549,6.406c-1.622,2.292 -3.15,4.461 -4.529,6.421c-4.023,5.721 -6.766,9.65 -6.766,9.65c0,0 2.879,-3.831 7.06,-9.437c1.433,-1.921 3.017,-4.049 4.689,-6.305c1.501,-2.024 3.075,-4.149 4.669,-6.319c1.026,-1.396 2.061,-2.811 3.089,-4.23c1.028,-1.419 2.05,-2.843 3.057,-4.252c1.567,-2.19 3.099,-4.345 4.555,-6.402c2.574,-3.637 4.908,-6.967 6.783,-9.639c2.756,-3.927 4.505,-6.437 4.505,-6.437Z" style="fill:#d2d2d2;"/><path d="M50.207,3.994c0,0 -2.084,2.238 -5.342,5.759c-2.215,2.395 -4.978,5.378 -7.99,8.659c-1.703,1.856 -3.486,3.808 -5.296,5.8c-1.165,1.282 -2.341,2.58 -3.511,3.884c-1.171,1.304 -2.335,2.614 -3.483,3.91c-1.785,2.015 -3.529,4.001 -5.192,5.894c-1.852,2.109 -3.598,4.106 -5.173,5.911c-4.597,5.267 -7.735,8.888 -7.735,8.888c0,-0 3.263,-3.509 8.005,-8.646c1.625,-1.76 3.423,-3.71 5.321,-5.778c1.703,-1.856 3.49,-3.804 5.302,-5.795c1.165,-1.282 2.342,-2.58 3.512,-3.883c1.171,-1.304 2.335,-2.613 3.484,-3.909c1.786,-2.014 3.535,-3.996 5.197,-5.889c2.938,-3.347 5.607,-6.414 7.75,-8.875c3.15,-3.617 5.151,-5.93 5.151,-5.93Z" style="fill:#d2d2d2;"/><path d="M52.626,6.42c-0,-0 -2.307,2.007 -5.913,5.167c-2.454,2.149 -5.512,4.827 -8.849,7.774c-1.888,1.667 -3.864,3.421 -5.872,5.213c-1.292,1.153 -2.597,2.32 -3.897,3.494c-1.299,1.174 -2.594,2.355 -3.871,3.524c-1.985,1.817 -3.927,3.608 -5.777,5.317c-2.062,1.904 -4.006,3.706 -5.761,5.336c-5.121,4.757 -8.619,8.028 -8.619,8.028c0,0 3.61,-3.147 8.862,-7.759c1.8,-1.579 3.791,-3.331 5.894,-5.189c1.888,-1.667 3.867,-3.417 5.876,-5.207c1.293,-1.152 2.599,-2.32 3.899,-3.493c1.3,-1.174 2.594,-2.354 3.872,-3.522c1.986,-1.816 3.932,-3.604 5.782,-5.313c3.271,-3.02 6.245,-5.791 8.633,-8.013c3.509,-3.267 5.741,-5.357 5.741,-5.357Z" style="fill:#d2d2d2;"/><path d="M54.778,9.085c-0,0 -2.503,1.755 -6.419,4.519c-2.664,1.881 -5.984,4.223 -9.611,6.804c-2.051,1.46 -4.199,2.998 -6.382,4.569c-1.405,1.011 -2.825,2.035 -4.24,3.067c-1.415,1.031 -2.825,2.069 -4.217,3.098c-2.164,1.599 -4.282,3.177 -6.3,4.682c-2.249,1.677 -4.371,3.266 -6.285,4.703c-5.589,4.194 -9.409,7.081 -9.409,7.081c0,-0 3.918,-2.752 9.622,-6.788c1.954,-1.382 4.117,-2.915 6.402,-4.542c2.051,-1.461 4.203,-2.993 6.387,-4.563c1.406,-1.01 2.826,-2.035 4.241,-3.066c1.415,-1.031 2.826,-2.069 4.218,-3.096c2.165,-1.598 4.286,-3.172 6.304,-4.677c3.568,-2.661 6.814,-5.105 9.421,-7.064c3.831,-2.881 6.268,-4.727 6.268,-4.727Z" style="fill:#d2d2d2;"/><path d="M56.64,11.962c0,-0 -2.672,1.482 -6.855,3.821c-2.845,1.591 -6.391,3.572 -10.266,5.759c-2.192,1.237 -4.489,2.541 -6.824,3.875c-1.503,0.858 -3.022,1.728 -4.536,2.605c-1.515,0.878 -3.026,1.762 -4.517,2.639c-2.319,1.363 -4.589,2.711 -6.754,3.997c-2.411,1.432 -4.687,2.79 -6.74,4.018c-5.996,3.584 -10.095,6.055 -10.095,6.055c-0,0 4.183,-2.326 10.276,-5.741c2.088,-1.17 4.398,-2.468 6.841,-3.847c2.192,-1.237 4.491,-2.536 6.827,-3.868c1.503,-0.857 3.022,-1.727 4.537,-2.604c1.515,-0.877 3.026,-1.762 4.518,-2.638c2.319,-1.362 4.593,-2.704 6.757,-3.99c3.826,-2.272 7.309,-4.362 10.105,-6.038c4.11,-2.463 6.726,-4.043 6.726,-4.043Z" style="fill:#d2d2d2;"/><path d="M58.193,15.018c-0,-0 -2.812,1.194 -7.216,3.082c-2.995,1.284 -6.728,2.882 -10.81,4.651c-2.309,1 -4.729,2.056 -7.19,3.138c-1.584,0.696 -3.186,1.401 -4.783,2.115c-1.598,0.714 -3.193,1.435 -4.767,2.151c-2.448,1.113 -4.847,2.215 -7.133,3.267c-2.548,1.171 -4.953,2.283 -7.123,3.289c-6.336,2.937 -10.671,4.964 -10.671,4.964c0,-0 4.403,-1.875 10.819,-4.633c2.198,-0.944 4.631,-1.993 7.203,-3.108c2.309,-1.001 4.731,-2.051 7.194,-3.131c1.584,-0.695 3.185,-1.401 4.783,-2.114c1.598,-0.714 3.193,-1.435 4.768,-2.15c2.448,-1.111 4.85,-2.208 7.136,-3.26c4.042,-1.859 7.723,-3.572 10.679,-4.945c4.345,-2.019 7.111,-3.316 7.111,-3.316Z" style="fill:#d2d2d2;"/><path d="M59.418,18.22c0,0 -2.921,0.893 -7.497,2.309c-3.113,0.963 -6.992,2.161 -11.236,3.492c-2.4,0.753 -4.917,1.549 -7.477,2.367c-1.648,0.526 -3.314,1.06 -4.978,1.602c-1.663,0.543 -3.324,1.093 -4.965,1.64c-2.55,0.85 -5.051,1.694 -7.434,2.5c-2.656,0.898 -5.163,1.752 -7.427,2.525c-6.607,2.256 -11.129,3.818 -11.129,3.818c-0,-0 4.574,-1.403 11.242,-3.473c2.284,-0.709 4.813,-1.497 7.488,-2.336c2.4,-0.754 4.918,-1.544 7.48,-2.36c1.648,-0.525 3.314,-1.059 4.978,-1.601c1.663,-0.542 3.324,-1.092 4.965,-1.638c2.551,-0.848 5.053,-1.688 7.437,-2.494c4.213,-1.425 8.053,-2.743 11.136,-3.799c4.531,-1.552 7.417,-2.552 7.417,-2.552Z" style="fill:#d2d2d2;"/><path d="M60.303,21.533c0,0 -2.998,0.582 -7.696,1.51c-3.196,0.631 -7.179,1.416 -11.538,2.295c-2.466,0.497 -5.052,1.025 -7.684,1.57c-1.693,0.35 -3.406,0.707 -5.117,1.072c-1.711,0.365 -3.42,0.738 -5.109,1.11c-2.624,0.578 -5.199,1.156 -7.654,1.707c-2.734,0.615 -5.317,1.201 -7.649,1.732c-6.806,1.552 -11.466,2.631 -11.466,2.631c-0,-0 4.695,-0.916 11.542,-2.276c2.346,-0.465 4.943,-0.984 7.69,-1.538c2.466,-0.497 5.053,-1.02 7.685,-1.563c1.694,-0.349 3.407,-0.706 5.118,-1.07c1.711,-0.365 3.42,-0.737 5.109,-1.108c2.625,-0.577 5.201,-1.149 7.655,-1.701c4.339,-0.975 8.296,-1.883 11.471,-2.61c4.669,-1.069 7.643,-1.761 7.643,-1.761Z" style="fill:#d2d2d2;"/><path d="M60.838,24.921c0,0 -3.042,0.264 -7.811,0.695c-3.245,0.292 -7.287,0.656 -11.714,1.073c-2.504,0.235 -5.131,0.49 -7.805,0.755c-1.721,0.171 -3.461,0.346 -5.201,0.53c-1.739,0.183 -3.478,0.375 -5.196,0.568c-2.671,0.3 -5.292,0.604 -7.791,0.896c-2.783,0.324 -5.413,0.636 -7.787,0.92c-6.931,0.829 -11.678,1.414 -11.678,1.414c-0,-0 4.765,-0.419 11.716,-1.053c2.381,-0.217 5.018,-0.46 7.808,-0.723c2.504,-0.237 5.131,-0.485 7.806,-0.749c1.721,-0.17 3.461,-0.345 5.201,-0.528c1.739,-0.183 3.478,-0.375 5.196,-0.566c2.671,-0.298 5.293,-0.597 7.791,-0.889c4.417,-0.515 8.447,-1.003 11.681,-1.393c4.754,-0.574 7.784,-0.95 7.784,-0.95Z" style="fill:#d2d2d2;"/><path d="M61.017,28.346c0,0 -3.053,-0.056 -7.841,-0.128c-3.257,-0.049 -7.315,-0.112 -11.761,-0.161c-2.515,-0.028 -5.154,-0.051 -7.841,-0.067c-1.729,-0.01 -3.478,-0.019 -5.228,-0.018c-1.749,-0 -3.498,0.008 -5.227,0.02c-2.687,0.018 -5.326,0.046 -7.841,0.074c-2.802,0.031 -5.45,0.065 -7.841,0.099c-6.979,0.098 -11.761,0.181 -11.761,0.181c-0,0 4.782,0.084 11.761,0.182c2.391,0.033 5.039,0.068 7.841,0.099c2.515,0.028 5.154,0.056 7.841,0.074c1.729,0.011 3.478,0.02 5.227,0.02c1.75,0.001 3.499,-0.008 5.228,-0.018c2.687,-0.017 5.326,-0.039 7.841,-0.067c4.446,-0.05 8.504,-0.112 11.761,-0.161c4.788,-0.072 7.841,-0.129 7.841,-0.129Z" style="fill:#d2d2d2;"/><path d="M60.838,31.772c0,-0 -3.03,-0.376 -7.784,-0.95c-3.234,-0.39 -7.264,-0.878 -11.681,-1.393c-2.498,-0.292 -5.12,-0.591 -7.791,-0.889c-1.718,-0.191 -3.457,-0.383 -5.196,-0.566c-1.74,-0.183 -3.48,-0.358 -5.201,-0.528c-2.675,-0.264 -5.302,-0.513 -7.806,-0.749c-2.79,-0.263 -5.427,-0.506 -7.808,-0.723c-6.951,-0.635 -11.716,-1.053 -11.716,-1.053c-0,0 4.747,0.585 11.678,1.414c2.374,0.284 5.004,0.596 7.787,0.92c2.499,0.292 5.12,0.596 7.791,0.896c1.718,0.193 3.457,0.384 5.196,0.568c1.74,0.184 3.48,0.359 5.201,0.53c2.674,0.265 5.301,0.519 7.805,0.755c4.427,0.417 8.469,0.78 11.714,1.073c4.769,0.431 7.811,0.695 7.811,0.695Z" style="fill:#d2d2d2;"/><path d="M60.303,35.16c0,-0 -2.974,-0.692 -7.643,-1.761c-3.175,-0.727 -7.132,-1.635 -11.471,-2.61c-2.454,-0.552 -5.03,-1.125 -7.655,-1.701c-1.689,-0.371 -3.398,-0.744 -5.109,-1.108c-1.711,-0.365 -3.424,-0.721 -5.118,-1.07c-2.632,-0.543 -5.219,-1.066 -7.685,-1.563c-2.747,-0.554 -5.344,-1.073 -7.69,-1.538c-6.847,-1.36 -11.542,-2.276 -11.542,-2.276c-0,0 4.66,1.079 11.466,2.631c2.332,0.531 4.915,1.117 7.649,1.732c2.455,0.551 5.03,1.129 7.654,1.707c1.689,0.372 3.398,0.745 5.109,1.11c1.711,0.365 3.424,0.722 5.117,1.072c2.632,0.544 5.218,1.073 7.684,1.57c4.359,0.879 8.342,1.663 11.538,2.295c4.698,0.928 7.696,1.51 7.696,1.51Z" style="fill:#d2d2d2;"/><path d="M59.418,38.473c0,-0 -2.886,-1 -7.417,-2.553c-3.083,-1.056 -6.923,-2.373 -11.136,-3.798c-2.384,-0.806 -4.886,-1.646 -7.437,-2.494c-1.641,-0.546 -3.302,-1.096 -4.965,-1.638c-1.664,-0.542 -3.33,-1.076 -4.978,-1.601c-2.562,-0.816 -5.08,-1.607 -7.48,-2.36c-2.675,-0.839 -5.204,-1.627 -7.488,-2.336c-6.668,-2.07 -11.242,-3.473 -11.242,-3.473c-0,0 4.522,1.562 11.129,3.818c2.264,0.773 4.771,1.627 7.427,2.525c2.383,0.806 4.884,1.65 7.434,2.5c1.641,0.547 3.302,1.097 4.965,1.64c1.664,0.542 3.33,1.076 4.978,1.602c2.56,0.818 5.077,1.614 7.477,2.367c4.244,1.331 8.123,2.529 11.236,3.492c4.576,1.416 7.497,2.309 7.497,2.309Z" style="fill:#d2d2d2;"/><path d="M58.193,41.675c-0,-0 -2.766,-1.297 -7.111,-3.316c-2.956,-1.373 -6.637,-3.086 -10.679,-4.945c-2.286,-1.052 -4.688,-2.149 -7.136,-3.26c-1.575,-0.715 -3.17,-1.436 -4.768,-2.15c-1.598,-0.713 -3.199,-1.419 -4.783,-2.114c-2.463,-1.08 -4.885,-2.13 -7.194,-3.131c-2.572,-1.115 -5.005,-2.164 -7.203,-3.108c-6.416,-2.758 -10.819,-4.633 -10.819,-4.633c0,-0 4.335,2.027 10.671,4.964c2.17,1.006 4.575,2.118 7.123,3.289c2.286,1.052 4.685,2.154 7.133,3.267c1.574,0.715 3.169,1.437 4.767,2.151c1.597,0.713 3.199,1.419 4.783,2.115c2.461,1.082 4.881,2.138 7.19,3.138c4.082,1.769 7.815,3.367 10.81,4.651c4.404,1.888 7.216,3.082 7.216,3.082Z" style="fill:#d2d2d2;"/><path d="M56.64,44.731c0,0 -2.616,-1.58 -6.726,-4.043c-2.796,-1.676 -6.279,-3.766 -10.105,-6.038c-2.164,-1.286 -4.438,-2.629 -6.757,-3.99c-1.492,-0.876 -3.003,-1.761 -4.518,-2.638c-1.515,-0.877 -3.034,-1.747 -4.537,-2.604c-2.336,-1.332 -4.635,-2.631 -6.827,-3.868c-2.443,-1.379 -4.753,-2.677 -6.841,-3.847c-6.093,-3.415 -10.276,-5.741 -10.276,-5.741c-0,-0 4.099,2.47 10.095,6.055c2.053,1.228 4.329,2.586 6.74,4.018c2.165,1.286 4.435,2.633 6.754,3.997c1.491,0.877 3.002,1.761 4.517,2.639c1.514,0.877 3.033,1.747 4.536,2.605c2.335,1.334 4.632,2.638 6.824,3.875c3.875,2.187 7.421,4.168 10.266,5.759c4.183,2.339 6.855,3.821 6.855,3.821Z" style="fill:#d2d2d2;"/><path d="M54.778,47.608c-0,-0 -2.437,-1.846 -6.268,-4.727c-2.606,-1.959 -5.853,-4.403 -9.421,-7.064c-2.018,-1.505 -4.139,-3.079 -6.304,-4.677c-1.392,-1.027 -2.803,-2.065 -4.218,-3.096c-1.415,-1.031 -2.835,-2.056 -4.241,-3.066c-2.184,-1.57 -4.336,-3.102 -6.387,-4.563c-2.285,-1.627 -4.448,-3.16 -6.402,-4.542c-5.704,-4.036 -9.622,-6.788 -9.622,-6.788c0,0 3.82,2.887 9.409,7.081c1.914,1.437 4.036,3.026 6.285,4.703c2.018,1.505 4.136,3.083 6.3,4.682c1.392,1.029 2.802,2.067 4.217,3.098c1.415,1.032 2.835,2.056 4.24,3.067c2.183,1.571 4.331,3.109 6.382,4.569c3.627,2.581 6.947,4.923 9.611,6.804c3.916,2.764 6.419,4.519 6.419,4.519Z" style="fill:#d2d2d2;"/><path d="M52.626,50.273c-0,0 -2.232,-2.09 -5.741,-5.357c-2.388,-2.223 -5.362,-4.993 -8.633,-8.014c-1.85,-1.708 -3.796,-3.496 -5.782,-5.312c-1.278,-1.168 -2.572,-2.348 -3.872,-3.522c-1.3,-1.173 -2.606,-2.341 -3.899,-3.493c-2.009,-1.79 -3.988,-3.54 -5.876,-5.207c-2.103,-1.858 -4.094,-3.61 -5.894,-5.189c-5.252,-4.612 -8.862,-7.759 -8.862,-7.759c0,-0 3.498,3.271 8.619,8.028c1.754,1.629 3.699,3.432 5.761,5.336c1.85,1.709 3.792,3.5 5.777,5.317c1.277,1.169 2.572,2.349 3.871,3.524c1.3,1.174 2.605,2.341 3.897,3.494c2.008,1.792 3.984,3.546 5.872,5.213c3.337,2.947 6.395,5.624 8.849,7.774c3.606,3.16 5.913,5.167 5.913,5.167Z" style="fill:#d2d2d2;"/><path d="M50.207,52.699c0,-0 -2.001,-2.314 -5.151,-5.93c-2.143,-2.461 -4.812,-5.528 -7.75,-8.875c-1.662,-1.893 -3.411,-3.875 -5.197,-5.889c-1.149,-1.296 -2.313,-2.605 -3.484,-3.909c-1.17,-1.303 -2.347,-2.602 -3.513,-3.883c-1.811,-1.991 -3.598,-3.939 -5.301,-5.795c-1.898,-2.068 -3.696,-4.018 -5.321,-5.778c-4.742,-5.137 -8.005,-8.646 -8.005,-8.646c0,0 3.138,3.621 7.735,8.888c1.575,1.805 3.321,3.802 5.173,5.911c1.663,1.893 3.407,3.879 5.192,5.894c1.148,1.296 2.312,2.606 3.483,3.91c1.17,1.304 2.346,2.602 3.511,3.884c1.81,1.992 3.593,3.944 5.296,5.8c3.012,3.281 5.775,6.264 7.99,8.659c3.258,3.521 5.342,5.759 5.342,5.759Z" style="fill:#d2d2d2;"/><path d="M47.55,54.857c-0,0 -1.749,-2.51 -4.505,-6.437c-1.875,-2.672 -4.209,-6.002 -6.783,-9.639c-1.456,-2.057 -2.988,-4.212 -4.555,-6.402c-1.007,-1.409 -2.029,-2.833 -3.057,-4.252c-1.028,-1.42 -2.063,-2.834 -3.089,-4.23c-1.594,-2.17 -3.168,-4.295 -4.669,-6.319c-1.672,-2.256 -3.256,-4.385 -4.689,-6.305c-4.181,-5.606 -7.06,-9.437 -7.06,-9.437c0,-0 2.743,3.929 6.766,9.65c1.378,1.96 2.907,4.129 4.529,6.421c1.456,2.057 2.984,4.215 4.549,6.406c1.007,1.409 2.028,2.834 3.056,4.253c1.028,1.42 2.063,2.834 3.088,4.231c1.592,2.171 3.161,4.299 4.662,6.324c2.654,3.578 5.09,6.835 7.044,9.449c2.873,3.843 4.713,6.287 4.713,6.287Z" style="fill:#d2d2d2;"/><path d="M44.682,56.725c-0,0 -1.478,-2.68 -3.81,-6.874c-1.586,-2.854 -3.56,-6.411 -5.741,-10.297c-1.233,-2.199 -2.533,-4.502 -3.862,-6.845c-0.856,-1.507 -1.723,-3.03 -2.598,-4.55c-0.875,-1.519 -1.756,-3.034 -2.631,-4.53c-1.359,-2.325 -2.703,-4.603 -3.985,-6.774c-1.427,-2.419 -2.781,-4.702 -4.006,-6.762c-3.574,-6.013 -6.038,-10.126 -6.038,-10.126c0,0 2.319,4.196 5.724,10.307c1.166,2.094 2.46,4.411 3.834,6.861c1.234,2.198 2.528,4.504 3.857,6.848c0.854,1.507 1.721,3.031 2.596,4.55c0.874,1.52 1.756,3.035 2.629,4.532c1.358,2.326 2.697,4.607 3.979,6.777c2.266,3.838 4.349,7.332 6.02,10.136c2.457,4.124 4.032,6.747 4.032,6.747Z" style="fill:#d2d2d2;"/><path d="M41.635,58.283c-0,-0 -1.19,-2.821 -3.072,-7.237c-1.28,-3.004 -2.873,-6.748 -4.637,-10.842c-0.997,-2.316 -2.05,-4.743 -3.128,-7.212c-0.694,-1.589 -1.397,-3.195 -2.109,-4.798c-0.712,-1.602 -1.431,-3.201 -2.145,-4.781c-1.109,-2.455 -2.208,-4.861 -3.256,-7.155c-1.168,-2.555 -2.277,-4.967 -3.28,-7.144c-2.928,-6.356 -4.95,-10.704 -4.95,-10.704c0,0 1.869,4.416 4.618,10.851c0.942,2.204 1.987,4.645 3.099,7.225c0.997,2.316 2.045,4.745 3.121,7.215c0.693,1.589 1.397,3.195 2.108,4.798c0.711,1.602 1.43,3.202 2.143,4.782c1.108,2.456 2.202,4.864 3.25,7.157c1.854,4.054 3.562,7.747 4.931,10.712c2.014,4.358 3.307,7.133 3.307,7.133Z" style="fill:#d2d2d2;"/><path d="M38.442,59.512c0,-0 -0.89,-2.93 -2.301,-7.519c-0.96,-3.122 -2.154,-7.013 -3.481,-11.27c-0.751,-2.407 -1.544,-4.931 -2.359,-7.5c-0.525,-1.652 -1.057,-3.324 -1.598,-4.992c-0.541,-1.669 -1.089,-3.334 -1.635,-4.98c-0.847,-2.558 -1.689,-5.066 -2.493,-7.457c-0.895,-2.664 -1.746,-5.179 -2.517,-7.449c-2.25,-6.628 -3.807,-11.164 -3.807,-11.164c-0,0 1.398,4.588 3.462,11.275c0.706,2.292 1.492,4.828 2.328,7.511c0.751,2.408 1.539,4.933 2.353,7.502c0.523,1.653 1.056,3.324 1.596,4.993c0.54,1.669 1.089,3.335 1.633,4.981c0.846,2.558 1.683,5.068 2.486,7.459c1.421,4.226 2.735,8.078 3.788,11.17c1.548,4.545 2.545,7.44 2.545,7.44Z" style="fill:#d2d2d2;"/><path d="M35.139,60.4c0,-0 -0.58,-3.007 -1.505,-7.72c-0.629,-3.205 -1.411,-7.2 -2.287,-11.572c-0.496,-2.474 -1.022,-5.067 -1.565,-7.707c-0.35,-1.698 -0.705,-3.416 -1.069,-5.132c-0.364,-1.716 -0.736,-3.431 -1.107,-5.125c-0.576,-2.632 -1.152,-5.215 -1.702,-7.677c-0.613,-2.743 -1.197,-5.333 -1.727,-7.672c-1.547,-6.827 -2.623,-11.502 -2.623,-11.502c-0,0 0.912,4.709 2.268,11.577c0.464,2.353 0.981,4.958 1.533,7.713c0.496,2.474 1.017,5.068 1.558,7.708c0.348,1.699 0.703,3.417 1.067,5.133c0.363,1.716 0.735,3.431 1.105,5.125c0.574,2.633 1.145,5.217 1.695,7.679c0.973,4.352 1.878,8.32 2.603,11.505c1.066,4.683 1.756,7.667 1.756,7.667Z" style="fill:#d2d2d2;"/><path d="M31.761,60.936c0,0 -0.263,-3.051 -0.692,-7.835c-0.291,-3.254 -0.653,-7.309 -1.069,-11.749c-0.235,-2.512 -0.488,-5.146 -0.753,-7.828c-0.17,-1.726 -0.345,-3.472 -0.528,-5.217c-0.183,-1.744 -0.374,-3.488 -0.566,-5.212c-0.299,-2.679 -0.603,-5.308 -0.894,-7.814c-0.323,-2.792 -0.634,-5.429 -0.918,-7.811c-0.827,-6.952 -1.41,-11.713 -1.41,-11.713c0,-0 0.417,4.779 1.049,11.751c0.217,2.388 0.459,5.033 0.721,7.832c0.236,2.512 0.483,5.147 0.746,7.829c0.17,1.726 0.344,3.472 0.527,5.217c0.182,1.744 0.373,3.488 0.565,5.212c0.297,2.679 0.595,5.309 0.886,7.814c0.514,4.43 1,8.472 1.389,11.716c0.572,4.769 0.947,7.808 0.947,7.808Z" style="fill:#d2d2d2;"/></g></g></g><path d="M27.616,17.593c0.187,-0.206 0.452,-0.323 0.73,-0.323c0.279,0 0.544,0.117 0.731,0.323l0.563,0.617c0.041,0.045 0.091,0.081 0.147,0.104c0.056,0.023 0.117,0.034 0.177,0.031l0.834,-0.039c0.278,-0.013 0.549,0.092 0.745,0.288c0.197,0.197 0.302,0.468 0.289,0.745l-0.039,0.835c-0.003,0.06 0.008,0.121 0.031,0.177c0.023,0.056 0.059,0.106 0.104,0.147l0.617,0.563c0.206,0.187 0.323,0.452 0.323,0.73c-0,0.279 -0.117,0.544 -0.323,0.731l-0.617,0.563c-0.045,0.041 -0.081,0.091 -0.104,0.147c-0.023,0.056 -0.034,0.117 -0.031,0.177l0.039,0.835c0.013,0.277 -0.092,0.548 -0.289,0.745c-0.196,0.196 -0.467,0.301 -0.745,0.288l-0.834,-0.039c-0.06,-0.003 -0.121,0.008 -0.177,0.031c-0.056,0.023 -0.106,0.059 -0.147,0.104l-0.563,0.617c-0.187,0.206 -0.452,0.323 -0.731,0.323c-0.278,-0 -0.543,-0.117 -0.73,-0.323l-0.563,-0.617c-0.041,-0.045 -0.091,-0.081 -0.147,-0.104c-0.056,-0.023 -0.117,-0.034 -0.177,-0.031l-0.835,0.039c-0.277,0.013 -0.548,-0.092 -0.745,-0.288c-0.196,-0.197 -0.301,-0.468 -0.288,-0.745l0.039,-0.835c0.003,-0.06 -0.008,-0.121 -0.031,-0.177c-0.023,-0.056 -0.059,-0.106 -0.104,-0.147l-0.617,-0.563c-0.206,-0.187 -0.323,-0.452 -0.323,-0.731c0,-0.278 0.117,-0.543 0.323,-0.73l0.617,-0.563c0.045,-0.041 0.081,-0.091 0.104,-0.147c0.023,-0.056 0.034,-0.117 0.031,-0.177l-0.039,-0.835c-0.013,-0.277 0.092,-0.548 0.288,-0.745c0.197,-0.196 0.468,-0.301 0.745,-0.288l0.835,0.039c0.06,0.003 0.121,-0.008 0.177,-0.031c0.056,-0.023 0.106,-0.059 0.147,-0.104l0.563,-0.617Zm-0.096,4.962l-1.01,-1.01l-0.643,0.644l1.653,1.653l3.306,-3.306l-0.644,-0.643l-2.662,2.662Z" style="fill:#d2d2d2;"/><path d="M3.617,33.912l-0.648,0l0,1.165l-1.188,0l0,-4.383l1.92,-0c0.38,-0 0.71,0.066 0.99,0.197c0.28,0.132 0.496,0.319 0.648,0.564c0.152,0.244 0.228,0.531 0.228,0.861c0,0.317 -0.071,0.594 -0.213,0.829c-0.142,0.236 -0.345,0.421 -0.609,0.555l0.906,1.377l-1.272,0l-0.762,-1.165Zm0.75,-1.596c0,-0.205 -0.062,-0.364 -0.186,-0.476c-0.124,-0.113 -0.308,-0.169 -0.552,-0.169l-0.66,-0l0,1.283l0.66,0c0.244,0 0.428,-0.055 0.552,-0.166c0.124,-0.11 0.186,-0.268 0.186,-0.472Z" style="fill:#d2d2d2;fill-rule:nonzero;"/><path d="M9.893,34.119l0,0.958l-3.372,0l0,-4.383l3.294,-0l0,0.958l-2.118,-0l0,0.739l1.866,-0l0,0.927l-1.866,-0l0,0.801l2.196,0Z" style="fill:#d2d2d2;fill-rule:nonzero;"/><path d="M12.773,30.694c0.38,-0 0.71,0.066 0.99,0.197c0.28,0.132 0.496,0.319 0.648,0.564c0.152,0.244 0.228,0.531 0.228,0.861c0,0.329 -0.076,0.615 -0.228,0.858c-0.152,0.242 -0.368,0.429 -0.648,0.56c-0.28,0.132 -0.61,0.197 -0.99,0.197l-0.732,0l0,1.146l-1.188,0l0,-4.383l1.92,-0Zm-0.072,2.26c0.244,0 0.428,-0.055 0.552,-0.166c0.124,-0.11 0.186,-0.268 0.186,-0.472c0,-0.205 -0.062,-0.364 -0.186,-0.476c-0.124,-0.113 -0.308,-0.169 -0.552,-0.169l-0.66,-0l0,1.283l0.66,0Z" style="fill:#d2d2d2;fill-rule:nonzero;"/><path d="M17.351,33.912l-0.648,0l0,1.165l-1.188,0l0,-4.383l1.92,-0c0.38,-0 0.71,0.066 0.99,0.197c0.28,0.132 0.496,0.319 0.648,0.564c0.152,0.244 0.228,0.531 0.228,0.861c0,0.317 -0.071,0.594 -0.213,0.829c-0.142,0.236 -0.345,0.421 -0.609,0.555l0.906,1.377l-1.272,0l-0.762,-1.165Zm0.75,-1.596c0,-0.205 -0.062,-0.364 -0.186,-0.476c-0.124,-0.113 -0.308,-0.169 -0.552,-0.169l-0.66,-0l0,1.283l0.66,0c0.244,0 0.428,-0.055 0.552,-0.166c0.124,-0.11 0.186,-0.268 0.186,-0.472Z" style="fill:#d2d2d2;fill-rule:nonzero;"/><path d="M22.373,35.165c-0.444,-0 -0.843,-0.098 -1.197,-0.294c-0.354,-0.197 -0.632,-0.468 -0.834,-0.814c-0.202,-0.347 -0.303,-0.737 -0.303,-1.171c0,-0.435 0.101,-0.825 0.303,-1.171c0.202,-0.347 0.48,-0.618 0.834,-0.815c0.354,-0.196 0.753,-0.294 1.197,-0.294c0.444,0 0.843,0.098 1.197,0.294c0.354,0.197 0.632,0.468 0.834,0.815c0.202,0.346 0.303,0.736 0.303,1.171c0,0.434 -0.101,0.824 -0.303,1.171c-0.202,0.346 -0.48,0.617 -0.834,0.814c-0.354,0.196 -0.753,0.294 -1.197,0.294Zm0,-1.027c0.212,-0 0.404,-0.052 0.576,-0.157c0.172,-0.104 0.308,-0.251 0.408,-0.441c0.1,-0.19 0.15,-0.408 0.15,-0.654c0,-0.247 -0.05,-0.465 -0.15,-0.655c-0.1,-0.19 -0.236,-0.337 -0.408,-0.441c-0.172,-0.105 -0.364,-0.157 -0.576,-0.157c-0.212,0 -0.404,0.052 -0.576,0.157c-0.172,0.104 -0.308,0.251 -0.408,0.441c-0.1,0.19 -0.15,0.408 -0.15,0.655c0,0.246 0.05,0.464 0.15,0.654c0.1,0.19 0.236,0.337 0.408,0.441c0.172,0.105 0.364,0.157 0.576,0.157Z" style="fill:#d2d2d2;fill-rule:nonzero;"/><path d="M25.631,30.694l1.986,-0c0.46,-0 0.868,0.09 1.224,0.269c0.356,0.18 0.632,0.434 0.828,0.764c0.196,0.33 0.294,0.716 0.294,1.159c0,0.442 -0.098,0.828 -0.294,1.158c-0.196,0.33 -0.472,0.584 -0.828,0.764c-0.356,0.179 -0.764,0.269 -1.224,0.269l-1.986,0l0,-4.383Zm1.938,3.394c0.36,-0 0.649,-0.107 0.867,-0.32c0.218,-0.212 0.327,-0.507 0.327,-0.882c0,-0.376 -0.109,-0.671 -0.327,-0.883c-0.218,-0.213 -0.507,-0.32 -0.867,-0.32l-0.75,0l0,2.405l0.75,-0Z" style="fill:#d2d2d2;fill-rule:nonzero;"/><path d="M32.825,35.165c-0.624,-0 -1.109,-0.178 -1.455,-0.532c-0.346,-0.355 -0.519,-0.858 -0.519,-1.51l0,-2.429l1.188,-0l0,2.392c0,0.701 0.266,1.052 0.798,1.052c0.528,-0 0.792,-0.351 0.792,-1.052l0,-2.392l1.17,-0l0,2.429c0,0.652 -0.173,1.155 -0.519,1.51c-0.346,0.354 -0.831,0.532 -1.455,0.532Z" style="fill:#d2d2d2;fill-rule:nonzero;"/><path d="M37.997,35.165c-0.44,-0 -0.835,-0.097 -1.185,-0.291c-0.35,-0.194 -0.625,-0.465 -0.825,-0.811c-0.2,-0.347 -0.3,-0.739 -0.3,-1.177c0,-0.439 0.1,-0.831 0.3,-1.178c0.2,-0.346 0.475,-0.617 0.825,-0.811c0.35,-0.194 0.745,-0.291 1.185,-0.291c0.384,0 0.73,0.071 1.038,0.213c0.308,0.142 0.564,0.347 0.768,0.614l-0.756,0.714c-0.272,-0.343 -0.602,-0.514 -0.99,-0.514c-0.228,0 -0.431,0.052 -0.609,0.157c-0.178,0.104 -0.316,0.251 -0.414,0.441c-0.098,0.19 -0.147,0.408 -0.147,0.655c0,0.246 0.049,0.464 0.147,0.654c0.098,0.19 0.236,0.337 0.414,0.441c0.178,0.105 0.381,0.157 0.609,0.157c0.388,-0 0.718,-0.171 0.99,-0.514l0.756,0.714c-0.204,0.267 -0.46,0.472 -0.768,0.614c-0.308,0.142 -0.654,0.213 -1.038,0.213Z" style="fill:#d2d2d2;fill-rule:nonzero;"/><rect x="40.631" y="30.694" width="1.188" height="4.383" style="fill:#d2d2d2;fill-rule:nonzero;"/><path d="M46.193,32.792c0.24,0.087 0.428,0.224 0.564,0.41c0.136,0.186 0.204,0.41 0.204,0.673c0,0.384 -0.148,0.68 -0.444,0.889c-0.296,0.209 -0.724,0.313 -1.284,0.313l-2.268,0l0,-4.383l2.148,-0c0.536,-0 0.944,0.103 1.224,0.31c0.28,0.206 0.42,0.485 0.42,0.836c0,0.209 -0.049,0.395 -0.147,0.56c-0.098,0.165 -0.237,0.296 -0.417,0.392Zm-2.052,-1.203l0,0.846l0.816,-0c0.4,-0 0.6,-0.142 0.6,-0.426c0,-0.28 -0.2,-0.42 -0.6,-0.42l-0.816,0Zm0.996,2.593c0.416,-0 0.624,-0.148 0.624,-0.445c0,-0.296 -0.208,-0.444 -0.624,-0.444l-0.996,-0l0,0.889l0.996,-0Z" style="fill:#d2d2d2;fill-rule:nonzero;"/><path d="M47.879,30.694l1.188,-0l0,3.4l2.004,0l0,0.983l-3.192,0l0,-4.383Z" style="fill:#d2d2d2;fill-rule:nonzero;"/><path d="M55.211,34.119l0,0.958l-3.372,0l0,-4.383l3.294,-0l0,0.958l-2.118,-0l0,0.739l1.866,-0l0,0.927l-1.866,-0l0,0.801l2.196,0Z" style="fill:#d2d2d2;fill-rule:nonzero;"/></g></svg>